<?xml version="1.0" encoding="UTF-8" standalone="no"?>
<!-- Created with Inkscape (http://www.inkscape.org/) -->

<svg
   id="svg3406"
   version="1.1"
   inkscape:version="1.2.2 (732a01da63, 2022-12-09)"
   width="511.9996"
   height="355.21301"
   viewBox="0 0 511.99963 355.21301"
   sodipodi:docname="player_six.svg"
   xmlns:inkscape="http://www.inkscape.org/namespaces/inkscape"
   xmlns:sodipodi="http://sodipodi.sourceforge.net/DTD/sodipodi-0.dtd"
   xmlns="http://www.w3.org/2000/svg"
   xmlns:svg="http://www.w3.org/2000/svg"
   xmlns:rdf="http://www.w3.org/1999/02/22-rdf-syntax-ns#"
   xmlns:cc="http://creativecommons.org/ns#"
   xmlns:dc="http://purl.org/dc/elements/1.1/">
  <title
     id="title3340">Silhouette Football 07</title>
  <metadata
     id="metadata3412">
    <rdf:RDF>
      <cc:Work
         rdf:about="">
        <dc:format>image/svg+xml</dc:format>
        <dc:type
           rdf:resource="http://purl.org/dc/dcmitype/StillImage" />
        <dc:title>Silhouette Football 07</dc:title>
        <dc:date>2017-03-18</dc:date>
        <dc:creator>
          <cc:Agent>
            <dc:title>JLouis</dc:title>
          </cc:Agent>
        </dc:creator>
        <dc:rights>
          <cc:Agent>
            <dc:title>Domaine pubic</dc:title>
          </cc:Agent>
        </dc:rights>
        <dc:publisher>
          <cc:Agent>
            <dc:title>inkscape</dc:title>
          </cc:Agent>
        </dc:publisher>
        <dc:subject>
          <rdf:Bag>
            <rdf:li>silhouette</rdf:li>
            <rdf:li>soccer</rdf:li>
            <rdf:li>player</rdf:li>
            <rdf:li>sport</rdf:li>
            <rdf:li>football</rdf:li>
            <rdf:li>joueurs</rdf:li>
          </rdf:Bag>
        </dc:subject>
        <dc:description>Soccer player in silhouette - Joueur de football en silhouette</dc:description>
      </cc:Work>
    </rdf:RDF>
  </metadata>
  <defs
     id="defs3410" />
  <sodipodi:namedview
     pagecolor="#ffffff"
     bordercolor="#666666"
     borderopacity="1"
     objecttolerance="10"
     gridtolerance="10"
     guidetolerance="10"
     inkscape:pageopacity="0"
     inkscape:pageshadow="2"
     inkscape:window-width="1920"
     inkscape:window-height="991"
     id="namedview3408"
     showgrid="false"
     inkscape:zoom="1.3632824"
     inkscape:cx="109.29504"
     inkscape:cy="177.87951"
     inkscape:window-x="-9"
     inkscape:window-y="-9"
     inkscape:window-maximized="1"
     inkscape:current-layer="svg3406"
     fit-margin-top="0"
     fit-margin-left="0"
     fit-margin-right="0"
     fit-margin-bottom="0"
     inkscape:showpageshadow="2"
     inkscape:pagecheckerboard="0"
     inkscape:deskcolor="#d1d1d1" />
  <path
     style="fill:#f20505;fill-opacity:1;stroke-width:3.05652"
     d="m 203.88134,303.20678 c 5.09286,-1.03236 9.17815,-3.86098 15.27446,-10.57596 3.71444,-4.09138 7.41092,-7.33146 9.54007,-8.36216 1.91179,-0.92549 4.80323,-3.21951 6.42543,-5.09782 2.28685,-2.64792 4.36197,-3.96928 9.23714,-5.88191 3.45825,-1.35673 7.70244,-3.29002 9.43156,-4.29618 3.10462,-1.80656 11.96775,-10.50216 13.461,-13.20657 0.51633,-0.93511 2.37016,-1.65192 5.62989,-2.17687 2.67305,-0.43049 5.77203,-1.12942 6.88661,-1.55319 1.11458,-0.42375 3.50665,-0.7753 5.3157,-0.7812 6.22671,-0.0202 6.65755,-0.37049 7.2488,-5.89145 0.57928,-5.40924 0.0205,-7.80921 -3.68792,-15.83894 -2.3889,-5.17267 -2.71059,-7.34318 -1.44014,-9.71704 0.53675,-1.00294 0.5381,-2.64115 0.004,-5.02381 -0.73185,-3.26566 -0.61809,-3.79315 1.49001,-6.90921 1.2553,-1.8555 3.1987,-4.23107 4.31868,-5.27905 1.12016,-1.04798 2.03651,-2.3067 2.03651,-2.79714 0,-0.49045 0.46807,-1.53185 1.04016,-2.31422 0.85879,-1.17448 1.30417,-1.2584 2.55438,-0.48128 1.23611,0.76838 2.48531,0.5881 6.80158,-0.98156 4.47608,-1.62776 5.88188,-1.81474 9.16212,-1.21854 2.26536,0.41174 5.71893,0.41507 8.31473,0.008 3.47416,-0.54481 5.57624,-0.3912 9.66356,0.70614 3.15391,0.84675 5.70553,1.14057 6.43996,0.74156 2.82727,-1.53606 5.58876,-5.49279 7.68665,-11.01365 l 2.23994,-5.89473 5.46943,-0.66118 c 3.00819,-0.36365 9.27121,-1.2621 13.91784,-1.99655 4.64662,-0.73445 8.95053,-1.05435 9.56424,-0.71089 0.62596,0.3503 3.99056,-0.0647 7.66384,-0.94531 3.6014,-0.86338 7.64978,-1.57226 8.99639,-1.57528 1.34661,-0.003 3.29187,-0.66182 4.3228,-1.46399 1.54405,-1.20138 3.9463,-1.55739 13.63186,-2.02014 6.46662,-0.30896 12.03713,-0.73457 12.37892,-0.9458 0.34178,-0.21124 0.62142,-1.22357 0.62142,-2.24963 0,-1.17561 0.58166,-2.05016 1.57276,-2.36473 3.36803,-1.06897 3.49506,-3.29669 0.54956,-9.63693 -0.672,-1.4465 -0.54398,-1.98558 0.68734,-2.89445 2.28301,-1.68514 0.56507,-2.93581 -2.83332,-2.06267 -1.49997,0.38537 -5.6451,0.93317 -9.2114,1.21732 -6.11959,0.48759 -6.4842,0.42882 -6.4842,-1.04521 0,-0.93821 1.10235,-2.24312 2.76081,-3.26811 3.28277,-2.02886 4.84901,-4.48786 3.63302,-5.70386 -0.57665,-0.57665 -1.21615,-0.50123 -2.12155,0.25017 -0.71284,0.59162 -1.91515,1.44315 -2.6718,1.89231 -5.10052,3.02775 -8.03727,5.52492 -10.59474,9.00888 -2.08965,2.84668 -3.462,3.99019 -4.78869,3.99019 -1.02279,0 -3.91055,0.53985 -6.41725,1.19966 -2.5067,0.65981 -6.58969,1.4174 -9.0733,1.68352 -2.48361,0.26613 -4.91428,0.96416 -5.40149,1.55121 -0.59001,0.71092 -2.70131,1.06735 -6.32231,1.06735 -2.99006,0 -8.87096,0.40408 -13.06864,0.89794 -8.91018,1.04829 -13.17054,1.13639 -21.7795,0.4504 -12.6154,-1.00524 -20.60673,-2.14421 -22.85309,-3.25713 -3.25295,-1.61161 -17.46923,-4.37983 -22.46324,-4.37407 -2.30965,0.002 -5.11646,0.48341 -6.23737,1.06833 -1.12091,0.58492 -3.37922,1.3151 -5.01845,1.62262 -2.85128,0.53491 -2.956,0.48009 -2.41638,-1.26482 1.3412,-4.33689 1.97902,-10.23553 1.93945,-17.93619 -0.0601,-11.70838 -0.89445,-14.91314 -4.7935,-18.4134 -5.70373,-5.12035 -6.8872,-5.44814 -17.50347,-4.84816 -9.15385,0.51731 -9.57339,0.6206 -13.49627,3.32238 -4.57954,3.15406 -5.99417,5.7934 -7.39324,13.79391 -0.6497,3.71526 -0.68029,6.01412 -0.10459,7.85963 0.44752,1.43463 0.68361,4.00492 0.52464,5.71172 -0.36289,3.8961 0.48812,7.96228 3.13386,14.97386 2.43542,6.4542 2.62204,6.68952 5.55285,7.00199 3.29776,0.3516 3.14476,1.50164 -0.47012,3.53331 -3.05378,1.71631 -3.27914,1.73736 -4.71267,0.44002 -1.13857,-1.03038 -2.32116,-1.25308 -4.85175,-0.91366 -2.91146,0.39051 -3.77858,0.12345 -6.67403,-2.05555 -1.83029,-1.3774 -3.33873,-2.89263 -3.3521,-3.36718 -0.0333,-1.18265 -8.40713,-9.02163 -11.93988,-11.17727 -5.4289,-3.31264 -9.8961,-8.26773 -12.88271,-14.28968 -1.60793,-3.2421 -5.4037,-9.78524 -8.43505,-14.54031 -11.78466,-18.48582 -20.99812,-38.511441 -20.99812,-45.639804 0,-3.897034 -2.00014,-8.510635 -4.74698,-10.949545 -0.97371,-0.864559 -1.63028,-1.216585 -1.45906,-0.782284 0.17123,0.434304 0.98133,2.47587 1.80023,4.536813 1.76289,4.436736 1.21565,5.525717 -1.37313,2.732391 -2.42382,-2.615354 -6.46692,-4.681771 -8.55652,-4.373212 -2.6658,0.393637 -2.37818,1.701047 0.74535,3.388033 2.63194,1.421488 6.42337,6.249786 5.57435,7.098809 -0.18923,0.18923 -1.72105,-0.357943 -3.40402,-1.215967 -4.67171,-2.381777 -6.78471,-2.030965 -3.04655,0.505812 4.13359,2.805136 4.55686,3.505563 7.32864,12.127679 1.85251,5.762525 2.93489,7.897085 4.64589,9.162075 1.52735,1.12922 2.66703,3.09721 3.61452,6.24151 0.7611,2.52575 2.48262,8.02844 3.82559,12.2282 1.34299,4.19975 2.23643,7.84127 1.98544,8.09226 -0.251,0.251 -6.24638,-3.56818 -13.3231,-8.48703 -7.07671,-4.91885 -15.91795,-10.91171 -19.64721,-13.31746 -8.27167,-5.33608 -15.15908,-11.434391 -18.56685,-16.439634 -3.00386,-4.412018 -3.02437,-4.576884 -0.98539,-7.921133 2.10891,-3.458921 1.98301,-5.20798 -0.44121,-6.129665 -2.7002,-1.026609 -5.57354,-0.965895 -8.75633,0.185011 -2.43033,0.878812 -2.77648,0.795069 -4.52982,-1.095803 -1.04412,-1.126032 -2.45739,-3.411058 -3.14061,-5.077836 -1.16154,-2.833767 -7.224029,-9.24575 -11.227259,-11.874562 -0.97264,-0.638697 -1.76844,-1.591553 -1.76844,-2.117456 0,-0.525903 -0.75899,-3.403114 -1.68668,-6.393802 -1.99133,-6.419646 -6.292,-13.304988 -9.27352,-14.846791 -1.16747,-0.603723 -2.62742,-1.708711 -3.24438,-2.455529 -1.48336,-1.795672 -7.91676,-4.598293 -13.33302,-5.808338 -8.54646,-1.909375 -20.01252,1.411549 -26.94884,7.805211 -7.21116,6.647043 -10.45985,18.563329 -8.03374,29.468216 2.87342,12.915422 12.72205,22.12237 26.65809,24.921118 5.62259,1.129184 12.66932,0.07247 19.26982,-2.889636 l 4.71013,-2.113785 2.20776,1.551259 c 1.21426,0.853195 3.79931,2.249539 5.74458,3.102986 4.92415,2.160384 11.853989,8.740672 14.017389,13.310319 2.79499,5.90373 4.18065,8.40684 5.5512,10.0278 2.23634,2.64494 7.13909,4.18183 13.04888,4.09049 l 5.50174,-0.085 5.77105,5.89809 c 3.1741,3.24395 9.24591,10.17702 13.49294,15.40681 7.26776,8.9495 12.62412,13.91871 21.44114,19.89139 2.6474,1.79335 3.90298,3.2409 4.2302,4.87695 0.25592,1.27964 1.0377,2.75605 1.73728,3.28089 0.69958,0.52483 2.26089,2.27858 3.46959,3.89721 1.20869,1.61862 4.39166,4.42257 7.07326,6.23098 6.03851,4.07227 15.12947,12.7504 20.44198,19.51372 2.20707,2.80981 6.06898,7.46261 8.58201,10.33954 2.51303,2.87694 4.94004,6.29475 5.39336,7.59514 0.7351,2.1087 0.51105,2.83601 -2.07215,6.72658 -1.593,2.39923 -4.05633,7.29298 -5.47408,10.875 l -2.57773,6.51276 -3.42118,0.56147 c -7.99493,1.31208 -18.74057,1.91888 -36.82461,2.07943 -10.59085,0.094 -20.49399,0.38134 -22.00697,0.63848 -5.75288,0.97776 -9.41565,4.07477 -11.36989,9.61372 -1.77745,5.03781 -1.50685,7.10937 1.57153,12.03082 2.90285,4.64082 2.8818,4.62807 13.3352,8.07363 2.16139,0.71242 6.51652,2.15911 9.67805,3.21486 3.16154,1.05575 8.63933,2.18194 12.17287,2.50265 l 6.42461,0.58309 0.6162,4.29045 c 0.70006,4.87439 2.19678,7.58715 4.85405,8.79788 1.31649,0.59983 1.94509,1.68392 2.2366,3.85723 1.03634,7.72654 8.03402,11.42279 17.85609,9.43178 z"
     id="path3418" />
</svg>
