<?xml version="1.0" encoding="UTF-8" standalone="no"?>
<!-- Created with Inkscape (http://www.inkscape.org/) -->

<svg
   version="1.1"
   id="svg2912"
   xml:space="preserve"
   width="1066.6667"
   height="1066.6667"
   viewBox="0 0 1066.6667 1066.6667"
   sodipodi:docname="player_five.svg"
   inkscape:version="1.2.2 (732a01da63, 2022-12-09)"
   xmlns:inkscape="http://www.inkscape.org/namespaces/inkscape"
   xmlns:sodipodi="http://sodipodi.sourceforge.net/DTD/sodipodi-0.dtd"
   xmlns="http://www.w3.org/2000/svg"
   xmlns:svg="http://www.w3.org/2000/svg"><defs
     id="defs2916"><clipPath
       clipPathUnits="userSpaceOnUse"
       id="clipPath2926"><path
         d="M 0,800 H 800 V 0 H 0 Z"
         id="path2924" /></clipPath></defs><sodipodi:namedview
     id="namedview2914"
     pagecolor="#ffffff"
     bordercolor="#666666"
     borderopacity="1.0"
     inkscape:pageshadow="2"
     inkscape:pageopacity="0.0"
     inkscape:pagecheckerboard="0"
     showgrid="false"
     inkscape:zoom="0.77906244"
     inkscape:cx="532.69158"
     inkscape:cy="533.33337"
     inkscape:window-width="1920"
     inkscape:window-height="991"
     inkscape:window-x="-9"
     inkscape:window-y="-9"
     inkscape:window-maximized="1"
     inkscape:current-layer="g2918"
     inkscape:showpageshadow="2"
     inkscape:deskcolor="#d1d1d1" /><g
     id="g2918"
     inkscape:groupmode="layer"
     inkscape:label="football-player-silhouette-6"
     transform="matrix(1.3333333,0,0,-1.3333333,0,1066.6667)"><g
       id="g44509"
       transform="matrix(0.60331357,0,0,0.60331357,36.378119,270.16117)"><g
         id="g2920"
         style="fill:#f20505;fill-opacity:1"
         transform="translate(-94.344168,12.515043)"><g
           id="g2922"
           clip-path="url(#clipPath2926)"
           style="fill:#f20505;fill-opacity:1"><path
             d="m 296.184,760.119 c -8.42,-8.42 -14.733,-24.3 -15.871,-39.922 -0.557,-7.644 1.889,-19.849 4.272,-23.07 l 13.3,64.599 c -0.571,-0.51 -1.137,-1.043 -1.701,-1.607"
             style="fill:#f20505;fill-opacity:1;fill-rule:nonzero;stroke:none"
             id="path2928" /><path
             d="m 381.361,752.742 c -4.343,-4.245 -8.103,-8.947 -10.424,-13.311 -2.493,-4.685 -5.804,-6.596 -5.804,-3.352 0,0.848 -2.064,4.391 -4.586,7.872 -2.522,3.482 -4.585,7.973 -4.585,9.981 0,2.137 -2.489,6.321 -6.002,10.088 l -6.004,6.437 h -2.896 l 29.652,-53.312 z"
             style="fill:#f20505;fill-opacity:1;fill-rule:nonzero;stroke:none"
             id="path2930" /><path
             d="m 469.414,737.758 c -3.914,8.104 -9.555,15.019 -16.572,20.406 l 20.217,-29.358 c -0.737,2.634 -1.879,5.295 -3.645,8.952"
             style="fill:#f20505;fill-opacity:1;fill-rule:nonzero;stroke:none"
             id="path2932" /><path
             d="m 473.865,705.106 c 0.35,3.101 0.494,6.498 0.479,10.326 -0.028,6.128 -0.266,9.727 -1.285,13.374 l -20.217,29.358 c -3.367,2.586 -7.051,4.821 -11.016,6.665 -7.242,3.367 -10.818,4.03 -21.668,4.02 -11.01,-0.012 -14.441,-0.677 -22.502,-4.361 -5.323,-2.432 -11.209,-6.776 -16.295,-11.746 l -10.649,-35.597 z"
             style="fill:#f20505;fill-opacity:1;fill-rule:nonzero;stroke:none"
             id="path2934" /><path
             d="m 341.06,770.457 h -12.156 c -15.575,0 -23.729,-2.223 -31.019,-8.731 l -13.3,-64.599 c 0.382,-0.515 0.761,-0.802 1.127,-0.802 0.431,0 0.819,-0.301 1.088,-0.775 l 83.912,21.595 z"
             style="fill:#f20505;fill-opacity:1;fill-rule:nonzero;stroke:none"
             id="path2936" /><path
             d="m 396.934,664.465 c 6.002,-2.829 12.638,-3.946 21.696,-3.989 2.933,-0.014 5.611,0.054 8.091,0.225 l 41.67,27.624 c 3.072,5.053 4.736,10.253 5.474,16.781 l -103.153,12.039 z"
             style="fill:#f20505;fill-opacity:1;fill-rule:nonzero;stroke:none"
             id="path2938" /><path
             d="m 598.992,618.12 c 0,3.873 -3.724,3.262 -8.539,-1.404 -0.932,-0.903 -1.728,-1.645 -2.396,-2.221 l 8.326,-1.197 c 1.531,2.217 2.609,4.168 2.609,4.822"
             style="fill:#f20505;fill-opacity:1;fill-rule:nonzero;stroke:none"
             id="path2940" /><path
             d="m 588.486,621.062 c 2.071,4.278 2.717,7.241 1.784,8.174 -0.147,0.147 -0.295,0.274 -0.446,0.385 l -8.535,-5.975 c -1.066,-1.491 -2.25,-3.255 -3.576,-5.321 -0.453,-0.703 -0.934,-1.417 -1.438,-2.136 l 9.479,-1.363 c 0.434,1.32 1.35,3.381 2.732,6.236"
             style="fill:#f20505;fill-opacity:1;fill-rule:nonzero;stroke:none"
             id="path2942" /><path
             d="m 581.289,623.646 8.535,5.975 c -1.972,1.466 -4.338,-0.108 -8.535,-5.975"
             style="fill:#f20505;fill-opacity:1;fill-rule:nonzero;stroke:none"
             id="path2944" /><path
             d="m 375.068,659.643 c -2.735,2.268 -2.978,9.047 -0.518,14.447 2.333,5.121 3.582,4.933 10.846,-1.628 3.91,-3.532 7.586,-6.135 11.538,-7.997 L 370.712,717.145 286.8,695.55 c 0.236,-0.415 0.38,-0.961 0.38,-1.561 0,-0.104 0.008,-0.221 0.024,-0.348 l 88.811,-35.107 c -0.289,0.445 -0.609,0.827 -0.947,1.109"
             style="fill:#f20505;fill-opacity:1;fill-rule:nonzero;stroke:none"
             id="path2946" /><path
             d="m 392.682,640.932 c -13.322,2.598 -15.321,4.356 -15.321,13.272 0,1.424 -0.554,3.114 -1.346,4.33 l -88.811,35.107 c 0.467,-3.905 7.983,-18.203 15.111,-28.649 3.441,-5.044 6.258,-10.031 6.261,-11.082 0.003,-1.051 1.352,-3.26 3.001,-4.908 2.735,-2.734 2.802,-3.371 0.774,-7.26 -1.224,-2.346 -2.229,-5.152 -2.233,-6.238 -0.005,-1.086 -2.245,-5.056 -4.978,-8.821 -4.134,-5.697 -7.846,-8.247 -22.125,-15.207 -0.323,-0.158 -0.64,-0.313 -0.954,-0.466 l -0.489,-19.935 z"
             style="fill:#f20505;fill-opacity:1;fill-rule:nonzero;stroke:none"
             id="path2948" /><path
             d="m 557.646,621.571 c -2.15,4.017 -4.005,3.291 -6.75,-3.311 l 7.385,-0.499 c 0.147,1.635 -0.084,2.78 -0.635,3.81"
             style="fill:#f20505;fill-opacity:1;fill-rule:nonzero;stroke:none"
             id="path2950" /><path
             d="m 458.514,676.313 c 4.283,4.283 7.5,8.104 9.877,12.012 l -41.67,-27.624 c 13.529,0.934 21.125,4.945 31.793,15.612"
             style="fill:#f20505;fill-opacity:1;fill-rule:nonzero;stroke:none"
             id="path2952" /><path
             d="m 282.061,611.01 c -8.899,-4.364 -14.035,-7.3 -17.312,-11.034 l 16.823,-8.901 z"
             style="fill:#f20505;fill-opacity:1;fill-rule:nonzero;stroke:none"
             id="path2954" /><path
             d="m 281.572,591.075 44.571,-92.642 99.646,36.293 z"
             style="fill:#f20505;fill-opacity:1;fill-rule:nonzero;stroke:none"
             id="path2956" /><path
             d="m 588.609,587.039 c 8.411,9.065 12.098,14.69 11.643,17.762 -0.492,3.324 -0.522,3.319 -5.301,-0.715 -2.644,-2.231 -5.201,-4.055 -5.685,-4.055 -1.602,0 1.004,5.274 5.396,10.919 0.611,0.786 1.192,1.582 1.721,2.348 l -8.326,1.197 c -2.334,-2.016 -3.065,-1.987 -2.303,0.331 l -9.479,1.363 c -0.81,-1.157 -1.681,-2.327 -2.595,-3.494 l 13.58,-27.156 c 0.412,0.473 0.859,0.973 1.349,1.5"
             style="fill:#f20505;fill-opacity:1;fill-rule:nonzero;stroke:none"
             id="path2958" /><path
             d="m 480.844,602.983 c -12.045,18.607 -20.215,27.173 -27.017,28.462 -2.124,0.403 -6.796,1.409 -10.38,2.237 -3.586,0.826 -9.49,1.505 -13.119,1.505 -5.032,0 -10.168,0.6 -23.051,2.968 l 18.512,-103.429 z"
             style="fill:#f20505;fill-opacity:1;fill-rule:nonzero;stroke:none"
             id="path2960" /><path
             d="m 425.789,534.726 -18.512,103.429 c -3.981,0.732 -8.701,1.632 -14.388,2.736 -0.071,0.013 -0.137,0.027 -0.207,0.041 l -111.11,-49.857 z"
             style="fill:#f20505;fill-opacity:1;fill-rule:nonzero;stroke:none"
             id="path2962" /><path
             d="m 583.674,570.99 c 1.82,0 6.359,8.449 5.172,9.635 -0.467,0.47 -1.93,0.439 -3.244,-0.065 -2.487,-0.954 -1.782,1.03 1.658,4.979 l -13.58,27.156 c -7.821,-9.991 -18.713,-19.69 -20.67,-17.734 -0.875,0.877 0.058,5.655 2.439,12.467 1.74,4.984 2.635,8.111 2.832,10.333 l -7.385,0.499 c -0.587,-1.416 -1.216,-3.095 -1.898,-5.063 -1.971,-5.686 -4.557,-11.836 -5.744,-13.663 -0.754,-1.16 -1.826,-3.64 -2.988,-6.733 l 38.213,-25.252 c 2.433,2.005 4.564,3.441 5.195,3.441"
             style="fill:#f20505;fill-opacity:1;fill-rule:nonzero;stroke:none"
             id="path2964" /><path
             d="m 562.973,529.42 c 4.699,11.779 8.605,24.516 8.052,27.442 -0.48,2.533 0.916,4.871 5.254,8.789 0.741,0.668 1.483,1.306 2.2,1.898 l -38.213,25.252 c -3.147,-8.371 -6.961,-21.232 -6.977,-24.563 -0.014,-1.932 -0.986,-5.381 -2.168,-7.662 -1.18,-2.282 -2.633,-7.424 -3.236,-11.43 -1.117,-7.446 -6.395,-17.083 -9.139,-16.681 -0.842,0.124 -1.877,3.511 -2.305,7.529 -0.759,7.12 -0.437,6.898 -26.955,49.266 L 467.813,482.833 Z"
             style="fill:#f20505;fill-opacity:1;fill-rule:nonzero;stroke:none"
             id="path2966" /><path
             d="m 264.749,599.976 c -3.508,-3.997 -4.888,-8.909 -6.471,-17.47 -2.092,-11.323 -2.133,-19.367 0.656,-34.602 l 22.638,43.171 z"
             style="fill:#f20505;fill-opacity:1;fill-rule:nonzero;stroke:none"
             id="path2968" /><path
             d="m 467.813,482.833 21.673,106.427 c -1.734,2.771 -3.584,5.725 -5.556,8.877 -1.057,1.688 -2.084,3.299 -3.086,4.846 l -55.055,-68.257 z"
             style="fill:#f20505;fill-opacity:1;fill-rule:nonzero;stroke:none"
             id="path2970" /><path
             d="m 281.572,591.075 -22.638,-43.171 c 0.778,-4.251 1.776,-9.06 3.013,-14.657 5.072,-22.966 6.288,-28.381 10.207,-41.218 l 53.989,6.404 z"
             style="fill:#f20505;fill-opacity:1;fill-rule:nonzero;stroke:none"
             id="path2972" /><path
             d="m 326.143,498.433 72.903,-48.073 26.743,84.366 z"
             style="fill:#f20505;fill-opacity:1;fill-rule:nonzero;stroke:none"
             id="path2974" /><path
             d="m 517.887,446.581 c 0.009,2.544 -0.703,5.668 -2.143,9.115 -2.174,5.2 -2.129,5.401 1.516,6.785 9,3.423 23.084,20.367 32.383,38.962 1.683,3.364 5.146,10.242 7.699,15.286 1.853,3.661 3.803,8.103 5.631,12.691 l -95.16,-46.587 z"
             style="fill:#f20505;fill-opacity:1;fill-rule:nonzero;stroke:none"
             id="path2976" /><path
             d="m 530.529,390.827 13.487,2.732 c -0.955,2.467 -1.578,5.072 -1.578,6.923 0,4.122 -1.297,6.625 -5.733,11.051 -3.152,3.147 -7.691,8.844 -10.088,12.66 -2.396,3.817 -6.142,8.835 -8.32,11.154 -3.068,3.264 -3.551,4.623 -2.137,6.037 1.151,1.15 1.719,2.948 1.727,5.197 l -50.074,36.252 z"
             style="fill:#f20505;fill-opacity:1;fill-rule:nonzero;stroke:none"
             id="path2978" /><path
             d="m 326.143,498.433 -53.989,-6.404 c 1.075,-3.519 2.353,-7.596 3.97,-12.749 2.888,-9.198 5.262,-16.065 7.613,-21.426 l 23.622,-11.951 z"
             style="fill:#f20505;fill-opacity:1;fill-rule:nonzero;stroke:none"
             id="path2980" /><path
             d="m 425.789,534.726 -26.743,-84.366 68.767,32.473 z"
             style="fill:#f20505;fill-opacity:1;fill-rule:nonzero;stroke:none"
             id="path2982" /><path
             d="m 283.737,457.854 c 2.831,-6.457 5.63,-10.729 9.248,-14.253 l 14.374,2.302 z"
             style="fill:#f20505;fill-opacity:1;fill-rule:nonzero;stroke:none"
             id="path2984" /><path
             d="m 326.143,498.433 -18.784,-52.53 15.62,0.759 c 1.62,1.25 3.136,2.485 4.391,3.594 4.03,3.56 7.758,6.043 8.285,5.515 0.582,-0.583 1.543,-3.856 2.575,-8.368 l 60.816,2.957 z"
             style="fill:#f20505;fill-opacity:1;fill-rule:nonzero;stroke:none"
             id="path2986" /><path
             d="m 399.046,450.36 32.155,-98.054 36.612,130.527 z"
             style="fill:#f20505;fill-opacity:1;fill-rule:nonzero;stroke:none"
             id="path2988" /><path
             d="m 467.813,482.833 -36.612,-130.527 99.328,38.521 z"
             style="fill:#f20505;fill-opacity:1;fill-rule:nonzero;stroke:none"
             id="path2990" /><path
             d="m 305.597,436.088 c 1.478,0.316 3.411,1.369 6.838,3.334 0.599,0.344 1.254,0.742 1.942,1.177 l -7.018,5.304 z"
             style="fill:#f20505;fill-opacity:1;fill-rule:nonzero;stroke:none"
             id="path2992" /><path
             d="m 343.102,418.89 c 0.72,-3.977 1.599,-7.63 2.304,-9.382 1.558,-3.867 1.564,-6.864 0.03,-15.284 -1.05,-5.761 -2.266,-14.258 -2.704,-18.882 -0.437,-4.623 -1.422,-9.06 -2.189,-9.859 -0.766,-0.797 -1.395,-4.526 -1.395,-8.286 0,-4.22 -0.969,-7.906 -2.535,-9.636 -1.394,-1.541 -3.046,-5.722 -3.668,-9.291 -0.397,-2.28 -1.312,-5.839 -2.361,-9.318 l 100.617,23.354 z"
             style="fill:#f20505;fill-opacity:1;fill-rule:nonzero;stroke:none"
             id="path2994" /><path
             d="m 314.377,440.599 c 2.621,1.653 5.768,3.876 8.602,6.063 l -15.62,-0.759 z"
             style="fill:#f20505;fill-opacity:1;fill-rule:nonzero;stroke:none"
             id="path2996" /><path
             d="m 399.046,450.36 -60.816,-2.957 c 1.456,-6.356 3.054,-15.171 3.934,-22.383 0.242,-1.989 0.569,-4.102 0.938,-6.13 l 88.099,-66.584 z"
             style="fill:#f20505;fill-opacity:1;fill-rule:nonzero;stroke:none"
             id="path2998" /><path
             d="m 292.985,443.601 c 2.269,-2.21 4.86,-4.127 7.986,-6.105 1.917,-1.212 2.994,-1.759 4.626,-1.408 l 1.762,9.815 z"
             style="fill:#f20505;fill-opacity:1;fill-rule:nonzero;stroke:none"
             id="path3000" /><path
             d="m 530.529,390.827 -99.328,-38.521 92.324,-9.869 z"
             style="fill:#f20505;fill-opacity:1;fill-rule:nonzero;stroke:none"
             id="path3002" /><path
             d="m 523.525,342.437 31.112,31.801 c -2.006,2.464 -3.448,4.579 -3.797,5.69 -0.662,2.101 -2.826,6.387 -4.803,9.523 -0.752,1.19 -1.447,2.624 -2.021,4.108 l -13.487,-2.732 z"
             style="fill:#f20505;fill-opacity:1;fill-rule:nonzero;stroke:none"
             id="path3004" /><path
             d="m 584.412,327.565 c -6.242,9.482 -12.17,21.206 -13.494,26.712 -0.551,2.286 -5.023,8.133 -9.936,12.994 -2.318,2.292 -4.556,4.768 -6.345,6.967 l -31.112,-31.801 z"
             style="fill:#f20505;fill-opacity:1;fill-rule:nonzero;stroke:none"
             id="path3006" /><path
             d="M 431.201,352.306 330.584,328.952 c -0.592,-1.967 -1.227,-3.908 -1.836,-5.578 -1.633,-4.481 -5.733,-16.572 -9.248,-27.263 L 400.957,244.7 Z"
             style="fill:#f20505;fill-opacity:1;fill-rule:nonzero;stroke:none"
             id="path3008" /><path
             d="m 523.525,342.437 -72.781,-58.036 c 2.785,-3.39 8.084,-9.326 13.471,-15.047 12.832,-13.625 17.336,-21.227 19.08,-32.211 0.631,-3.967 2.824,-9.747 5.562,-15.188 l 30.211,-7.817 z"
             style="fill:#f20505;fill-opacity:1;fill-rule:nonzero;stroke:none"
             id="path3010" /><path
             d="m 419.489,239.904 c 0.515,1.279 1.033,2.635 1.532,4.022 3.724,10.376 7.255,18.222 11.989,26.334 L 400.957,244.7 Z"
             style="fill:#f20505;fill-opacity:1;fill-rule:nonzero;stroke:none"
             id="path3012" /><path
             d="M 431.201,352.306 400.957,244.7 433.01,270.26 c 1.775,3.042 3.719,6.121 5.907,9.385 3.444,5.134 6.554,9.682 6.911,10.102 0.358,0.421 1.776,-0.955 3.154,-3.057 0.318,-0.484 0.929,-1.274 1.762,-2.289 l 72.781,58.036 z"
             style="fill:#f20505;fill-opacity:1;fill-rule:nonzero;stroke:none"
             id="path3014" /><path
             d="m 519.068,214.138 69.811,105.775 c -1.617,3.021 -3.08,5.555 -4.303,7.401 -0.055,0.083 -0.109,0.168 -0.164,0.251 l -60.887,14.872 z"
             style="fill:#f20505;fill-opacity:1;fill-rule:nonzero;stroke:none"
             id="path3016" /><path
             d="M 400.957,244.7 319.5,296.111 c -0.112,-0.34 -0.223,-0.677 -0.333,-1.014 -5.877,-17.921 -6.55,-21.526 -6.869,-36.76 -0.291,-13.954 -1.055,-18.869 -4.89,-30.461 l 10.776,-42.391 z"
             style="fill:#f20505;fill-opacity:1;fill-rule:nonzero;stroke:none"
             id="path3018" /><path
             d="m 633.164,205.414 -4.242,8.64 c -8.152,16.593 -10.156,22.996 -12.981,41.481 -1.226,8.029 -13.996,38.445 -23.783,58.027 l -4.642,-123.301 z"
             style="fill:#f20505;fill-opacity:1;fill-rule:nonzero;stroke:none"
             id="path3020" /><path
             d="m 527.283,211.271 c 0.516,0.152 0.905,0.288 1.135,0.404 3.002,1.512 16.133,4.704 19.348,4.704 1.222,0 5.277,-4.608 9.011,-10.242 l 4.44,-6.702 26.299,-9.174 4.642,123.301 c -1.14,2.281 -2.242,4.417 -3.279,6.351 L 519.068,214.138 Z"
             style="fill:#f20505;fill-opacity:1;fill-rule:nonzero;stroke:none"
             id="path3022" /><path
             d="m 307.408,227.876 c -0.095,-0.288 -0.191,-0.577 -0.29,-0.874 -6.192,-18.521 -7.602,-20.533 -16.467,-23.476 -2.304,-0.765 -4.597,-1.748 -6.871,-2.921 l 34.404,-15.12 z"
             style="fill:#f20505;fill-opacity:1;fill-rule:nonzero;stroke:none"
             id="path3024" /><path
             d="m 217.934,110.005 c -1.637,-2.776 -3.53,-6.032 -5.904,-10.134 -0.837,-1.446 -1.64,-2.756 -2.426,-3.95 l 8.296,0.105 z"
             style="fill:#f20505;fill-opacity:1;fill-rule:nonzero;stroke:none"
             id="path3026" /><path
             d="m 488.857,221.955 c 2.082,-4.135 4.477,-8.074 6.745,-10.875 l 3.669,-4.535 11.59,1.674 8.207,5.919 z"
             style="fill:#f20505;fill-opacity:1;fill-rule:nonzero;stroke:none"
             id="path3028" /><path
             d="m 400.885,231.551 c 1.162,-0.045 2.548,-0.186 4.289,-0.388 4.459,-0.518 8.926,-0.43 9.924,0.193 0.779,0.489 2.57,4.032 4.391,8.548 l -18.532,4.796 z"
             style="fill:#f20505;fill-opacity:1;fill-rule:nonzero;stroke:none"
             id="path3030" /><path
             d="m 318.184,185.485 17.292,-11.997 c 3.221,3.075 6.272,6.431 9.023,9.962 15.974,20.511 21.461,26.804 23.376,26.811 2.302,0.007 17.223,10.596 24.307,17.255 3.484,3.273 4.846,4.184 8.703,4.035 l 0.072,13.149 z"
             style="fill:#f20505;fill-opacity:1;fill-rule:nonzero;stroke:none"
             id="path3032" /><path
             d="m 318.184,185.485 -34.404,15.12 c -14.683,-7.58 -28.5,-23.428 -38.573,-44.558 -3.732,-7.828 -10.087,-19.188 -14.122,-25.243 -5.837,-8.763 -8.42,-12.771 -13.151,-20.799 L 217.9,96.026 Z"
             style="fill:#f20505;fill-opacity:1;fill-rule:nonzero;stroke:none"
             id="path3034" /><path
             d="m 510.861,208.219 1.707,0.246 c 2.149,0.311 4.284,0.656 6.26,1.006 l 0.24,4.667 z"
             style="fill:#f20505;fill-opacity:1;fill-rule:nonzero;stroke:none"
             id="path3036" /><path
             d="m 514.416,123.306 c -5.537,-3.662 -14.768,-12.745 -14.783,-15.031 -0.006,-0.649 -0.649,-5.07 -1.426,-9.823 -0.607,-3.706 -0.906,-6.603 -0.871,-8.814 l 15.047,-6.028 z"
             style="fill:#f20505;fill-opacity:1;fill-rule:nonzero;stroke:none"
             id="path3038" /><path
             d="m 619.992,168.034 c 3.092,3.51 6.223,7.064 7.707,8.753 1.914,2.183 4.836,7.669 6.49,12.194 l 3.004,8.223 -4.029,8.21 -45.648,-15.153 z"
             style="fill:#f20505;fill-opacity:1;fill-rule:nonzero;stroke:none"
             id="path3040" /><path
             d="m 518.828,209.471 c 3.645,0.643 6.756,1.302 8.455,1.8 l -8.215,2.867 z"
             style="fill:#f20505;fill-opacity:1;fill-rule:nonzero;stroke:none"
             id="path3042" /><path
             d="m 587.516,190.261 -26.299,9.174 2.346,-3.539 -4.243,-6.191 c -6.164,-8.989 -11.73,-20.656 -12.881,-26.982 -1.634,-9.011 -22.142,-35.476 -29.48,-38.04 -0.68,-0.239 -1.553,-0.722 -2.543,-1.377 L 512.383,83.61 Z"
             style="fill:#f20505;fill-opacity:1;fill-rule:nonzero;stroke:none"
             id="path3044" /><path
             d="m 320.61,162.105 c 5.052,2.967 10.142,6.873 14.866,11.383 l -17.292,11.997 z"
             style="fill:#f20505;fill-opacity:1;fill-rule:nonzero;stroke:none"
             id="path3046" /><path
             d="m 217.9,96.026 29.938,-0.694 c 0.326,0.336 0.641,0.646 0.943,0.916 1.785,1.602 3.244,3.773 3.244,4.826 0,2.989 15.076,15.801 23.623,20.081 12.261,6.135 16.556,10.083 25.062,23.042 6.283,9.568 9.349,12.775 14.389,15.041 1.818,0.819 3.662,1.782 5.511,2.867 l -2.426,23.38 z"
             style="fill:#f20505;fill-opacity:1;fill-rule:nonzero;stroke:none"
             id="path3048" /><path
             d="m 599.352,144.627 c 1.377,1.315 2.693,2.714 3.976,4.222 3.92,4.605 10.223,11.881 14.006,16.171 0.854,0.969 1.754,1.99 2.658,3.014 l -32.476,22.227 z"
             style="fill:#f20505;fill-opacity:1;fill-rule:nonzero;stroke:none"
             id="path3050" /><path
             d="m 512.383,83.61 55.646,2.617 c -0.83,2.31 -2.986,5.16 -6.486,8.559 -3.783,3.678 -6.877,7.17 -6.877,7.762 0,0.595 2.406,4.358 5.35,8.366 2.941,4.01 5.349,7.927 5.349,8.707 0,2.754 8.535,9.296 19.621,15.042 5.852,3.032 10.375,6.15 14.366,9.964 l -11.836,45.634 z"
             style="fill:#f20505;fill-opacity:1;fill-rule:nonzero;stroke:none"
             id="path3052" /><path
             d="m 238.486,82.303 c 3.122,5.239 6.624,10.218 9.352,13.029 L 217.9,96.026 Z"
             style="fill:#f20505;fill-opacity:1;fill-rule:nonzero;stroke:none"
             id="path3054" /><path
             d="m 217.9,96.026 -8.296,-0.105 c -3.276,-4.975 -6.258,-7.934 -10.12,-10.196 -3.627,-2.125 -7.889,-6.269 -9.472,-9.206 -1.583,-2.941 -3.959,-5.345 -5.28,-5.345 -1.321,0 -5.623,-2.924 -9.559,-6.496 -1.983,-1.801 -5.038,-4.135 -8.353,-6.438 l 21.155,-15.698 z"
             style="fill:#f20505;fill-opacity:1;fill-rule:nonzero;stroke:none"
             id="path3056" /><path
             d="m 497.336,89.638 c 0.074,-4.633 1.627,-6.242 4.959,-5.883 2.398,0.258 4.312,-0.58 5.164,-2.265 0.049,-0.096 0.1,-0.197 0.152,-0.302 l 4.772,2.422 z"
             style="fill:#f20505;fill-opacity:1;fill-rule:nonzero;stroke:none"
             id="path3058" /><path
             d="m 507.611,81.188 c 0.75,-1.481 1.858,-3.672 2.555,-5.046 0.813,-1.607 2.215,-2.296 4.928,-2.31 l -2.711,9.778 z"
             style="fill:#f20505;fill-opacity:1;fill-rule:nonzero;stroke:none"
             id="path3060" /><path
             d="m 515.094,73.832 c 0.586,-0.003 1.232,0.024 1.949,0.083 4.715,0.382 7.033,-0.762 15.842,-7.814 7.908,-6.331 11.322,-10.363 14.621,-17.26 2.289,-4.788 4.615,-9.589 5.287,-10.907 l 33.768,27.862 c -6.434,6.769 -14.706,14.548 -16.104,14.548 -1.158,0 -2.035,1.67 -2.035,3.879 0,0.615 -0.133,1.284 -0.393,2.004 L 512.383,83.61 Z"
             style="fill:#f20505;fill-opacity:1;fill-rule:nonzero;stroke:none"
             id="path3062" /><path
             d="m 166.82,58.24 c -3.262,-2.267 -6.777,-4.505 -9.768,-6.173 -13.056,-7.279 -16.618,-11.586 -17.049,-20.61 -0.128,-2.672 -0.083,-4.381 0.314,-5.603 l 47.658,16.688 z"
             style="fill:#f20505;fill-opacity:1;fill-rule:nonzero;stroke:none"
             id="path3064" /><path
             d="m 187.975,42.542 26.601,-2.621 c 0.641,1.04 1.268,2.149 1.894,3.346 2.092,4 5.782,9.362 8.202,11.917 2.419,2.553 5.413,8.055 6.653,12.228 1.144,3.848 3.951,9.505 7.161,14.891 L 217.9,96.026 Z"
             style="fill:#f20505;fill-opacity:1;fill-rule:nonzero;stroke:none"
             id="path3066" /><path
             d="m 552.855,37.812 c 1.868,-3.616 17.04,-7.832 29.282,-8.132 8.918,-0.22 13.136,0.413 17.623,2.643 9.748,4.844 9.996,6.931 1.801,15.125 -3.936,3.934 -7.155,7.861 -7.155,8.725 0,0.952 -3.506,5.058 -7.845,9.623 L 552.793,37.934 c 0.021,-0.044 0.043,-0.086 0.062,-0.122"
             style="fill:#f20505;fill-opacity:1;fill-rule:nonzero;stroke:none"
             id="path3068" /><path
             d="m 140.317,25.854 c 0.445,-1.373 1.334,-2.128 2.922,-2.94 3.718,-1.898 18.494,-1.788 32.72,-0.061 l 12.016,19.689 z"
             style="fill:#f20505;fill-opacity:1;fill-rule:nonzero;stroke:none"
             id="path3070" /><path
             d="m 175.959,22.853 c 3.387,0.411 6.743,0.913 9.911,1.501 2.537,0.471 4.834,0.952 6.939,1.46 l -4.834,16.728 z"
             style="fill:#f20505;fill-opacity:1;fill-rule:nonzero;stroke:none"
             id="path3072" /><path
             d="m 187.975,42.542 4.834,-16.728 c 11.505,2.778 17.021,6.405 21.767,14.107 z"
             style="fill:#f20505;fill-opacity:1;fill-rule:nonzero;stroke:none"
             id="path3074" /></g></g></g></g></svg>
