<?xml version="1.0" encoding="UTF-8" standalone="no"?>
<!-- Created with Inkscape (http://www.inkscape.org/) -->

<svg
   id="svg3406"
   version="1.1"
   inkscape:version="1.2.2 (732a01da63, 2022-12-09)"
   width="193.09058"
   height="300"
   viewBox="0 0 193.09057 300"
   sodipodi:docname="player_eight.svg"
   xmlns:inkscape="http://www.inkscape.org/namespaces/inkscape"
   xmlns:sodipodi="http://sodipodi.sourceforge.net/DTD/sodipodi-0.dtd"
   xmlns="http://www.w3.org/2000/svg"
   xmlns:svg="http://www.w3.org/2000/svg"
   xmlns:rdf="http://www.w3.org/1999/02/22-rdf-syntax-ns#"
   xmlns:cc="http://creativecommons.org/ns#"
   xmlns:dc="http://purl.org/dc/elements/1.1/">
  <title
     id="title3341">Silhouette Football 16</title>
  <metadata
     id="metadata3412">
    <rdf:RDF>
      <cc:Work
         rdf:about="">
        <dc:format>image/svg+xml</dc:format>
        <dc:type
           rdf:resource="http://purl.org/dc/dcmitype/StillImage" />
        <dc:title>Silhouette Football 16</dc:title>
        <cc:license
           rdf:resource="http://creativecommons.org/publicdomain/zero/1.0/" />
        <dc:date>2017-03-18</dc:date>
        <dc:creator>
          <cc:Agent>
            <dc:title>JLouis</dc:title>
          </cc:Agent>
        </dc:creator>
        <dc:rights>
          <cc:Agent>
            <dc:title>Domaine pubic</dc:title>
          </cc:Agent>
        </dc:rights>
        <dc:publisher>
          <cc:Agent>
            <dc:title>inkscape</dc:title>
          </cc:Agent>
        </dc:publisher>
        <dc:subject>
          <rdf:Bag>
            <rdf:li>silhouette</rdf:li>
            <rdf:li>soccer</rdf:li>
            <rdf:li>player</rdf:li>
            <rdf:li>sport</rdf:li>
            <rdf:li>football</rdf:li>
            <rdf:li>joueurs</rdf:li>
          </rdf:Bag>
        </dc:subject>
        <dc:description>Soccer player in silhouette - Joueur de football en silhouette</dc:description>
      </cc:Work>
      <cc:License
         rdf:about="http://creativecommons.org/publicdomain/zero/1.0/">
        <cc:permits
           rdf:resource="http://creativecommons.org/ns#Reproduction" />
        <cc:permits
           rdf:resource="http://creativecommons.org/ns#Distribution" />
        <cc:permits
           rdf:resource="http://creativecommons.org/ns#DerivativeWorks" />
      </cc:License>
    </rdf:RDF>
  </metadata>
  <defs
     id="defs3410" />
  <sodipodi:namedview
     pagecolor="#ffffff"
     bordercolor="#666666"
     borderopacity="1"
     objecttolerance="10"
     gridtolerance="10"
     guidetolerance="10"
     inkscape:pageopacity="0"
     inkscape:pageshadow="2"
     inkscape:window-width="1920"
     inkscape:window-height="991"
     id="namedview3408"
     showgrid="false"
     fit-margin-top="0"
     fit-margin-left="0"
     fit-margin-right="0"
     fit-margin-bottom="0"
     inkscape:zoom="0.8828125"
     inkscape:cx="-62.300885"
     inkscape:cy="265.62832"
     inkscape:window-x="-9"
     inkscape:window-y="-9"
     inkscape:window-maximized="1"
     inkscape:current-layer="svg3406"
     inkscape:showpageshadow="2"
     inkscape:pagecheckerboard="0"
     inkscape:deskcolor="#d1d1d1" />
  <g
     id="g3418"
     transform="matrix(0.48818013,0,0,0.48818013,-8.8168413,-12.435283)"
     style="fill:#82c0d9;fill-opacity:1">
    <path
       style="fill:#82c0d9;fill-opacity:1"
       d="m 227.72102,635.47103 c -2.49093,-2.49094 -5.66906,-5.28212 -7.0625,-6.20262 -1.39343,-0.9205 -3.8554,-4.36684 -5.47102,-7.65852 -1.61561,-3.29169 -3.4279,-6.82864 -4.0273,-7.85989 -0.59939,-1.03125 -2.46205,-4.49384 -4.13923,-7.69464 -1.67717,-3.20081 -5.63016,-9.10706 -8.78441,-13.125 -3.74371,-4.76884 -5.73526,-8.53509 -5.73577,-10.84702 -5.2e-4,-2.29116 -0.55249,-3.34877 -1.56329,-2.99533 -0.85938,0.30049 -1.40396,1.44299 -1.2102,2.53889 0.19377,1.09589 -0.7906,2.6042 -2.1875,3.3518 -1.44335,0.77245 -2.5398,2.62329 -2.5398,4.28723 0,3.61007 -2.72158,6.05026 -5.54119,4.96827 -1.34609,-0.51655 -3.32359,0.33323 -5.47094,2.35099 -6.27583,5.89709 -11.77078,8.40521 -18.42537,8.41014 -3.47188,0.003 -6.9875,-0.67033 -7.8125,-1.49533 -2.2892,-2.2892 -1.78806,-13.92664 0.89259,-20.7275 1.31592,-3.33852 3.08218,-9.68747 3.92502,-14.10877 0.84285,-4.4213 2.29744,-8.92677 3.23241,-10.01215 2.02373,-2.34927 2.25105,-8.16345 0.36477,-9.32924 -0.73438,-0.45388 -1.06034,-1.54156 -0.72435,-2.4171 0.64673,-1.68538 -5.38227,-7.92193 -13.36159,-13.82159 -6.12355,-4.52755 -17.90282,-19.02917 -23.31926,-28.70865 -2.30826,-4.125 -5.45706,-9.0334 -6.99732,-10.90756 -1.54026,-1.87415 -3.19713,-5.24915 -3.68192,-7.5 -0.4848,-2.25084 -1.70481,-5.70296 -2.71115,-7.67139 -1.00633,-1.96842 -2.63037,-6.65294 -3.60897,-10.41002 -0.97859,-3.75709 -3.236266,-10.02157 -5.01705,-13.92105 C 90.775172,440.89647 90,439.00446 90,437.50646 c 0,-0.81989 -1.616934,-6.92237 -3.593188,-13.56108 -8.87534,-29.81439 -12.500901,-47.85977 -15.208271,-75.69553 -0.971631,-9.98981 -0.944009,-15.32604 0.103525,-20 0.785808,-3.50617 1.888107,-14.71147 2.449554,-24.9007 0.821756,-14.91336 1.447865,-18.99774 3.210866,-20.94582 1.749784,-1.93349 2.153903,-4.48384 2.010223,-12.68629 -0.14296,-8.16125 0.363443,-11.38856 2.469721,-15.73955 2.224458,-4.59511 2.531522,-6.88115 1.913879,-14.24839 -0.404621,-4.82632 -1.041692,-9.08115 -1.415712,-9.45516 -0.37402,-0.37403 -2.050856,-0.0555 -3.726302,0.70793 -3.381468,1.54071 -12.030253,-0.93948 -23.442609,-6.72256 -4.664792,-2.36384 -6.619016,-2.77759 -8.461514,-1.79151 -7.242023,3.87581 -22.093427,-1.62429 -26.101091,-9.66634 -3.369206,-6.76087 -2.386636,-20.57945 1.865723,-26.23896 1.678831,-2.23438 3.802851,-4.0625 4.720043,-4.0625 3.266644,0 6.298392,-6.60051 6.363768,-13.85476 0.06035,-6.69669 0.358069,-7.31388 7.340935,-15.21834 4.002916,-4.53121 8.762449,-8.86396 10.576739,-9.62831 1.842687,-0.77632 5.229792,-4.53263 7.673707,-8.51018 5.715606,-9.30233 17.776546,-22.67886 23.634505,-26.2125 3.302447,-1.99211 7.141305,-2.9283 13.315368,-3.24724 4.771321,-0.24649 10.853201,-1.37752 13.515281,-2.51341 2.66209,-1.13589 6.17772,-2.06526 7.8125,-2.06526 1.6348,0 2.97235,-0.5625 2.97235,-1.25 0,-0.6875 1.125,-1.25 2.5,-1.25 3.08825,0 3.12534,0.475071 -0.625,-8.005104 -3.30744,-7.478716 -3.91576,-11.95414 -1.89897,-13.970925 0.80137,-0.801372 0.29439,-3.954509 -1.46371,-9.103436 -2.19825,-6.437996 -2.44318,-8.600831 -1.34041,-11.83647 0.74213,-2.177486 1.70904,-6.581118 2.1487,-9.785849 0.45828,-3.340502 1.57383,-6.123972 2.61438,-6.523269 C 122.93325,39.14188 123.75,37.717704 123.75,36.360111 123.75,33.249461 128.2823,30 132.62097,30 c 1.82309,0 5.77605,-0.87443 8.78437,-1.943179 3.20506,-1.138643 7.14441,-1.634091 9.51465,-1.196645 2.22473,0.410594 5.24532,0.104125 6.71242,-0.681043 2.19096,-1.172564 3.30151,-0.958803 6.2169,1.196645 C 165.80151,28.8191 168.86477,30 170.65656,30 c 6.59886,0 13.55303,5.974485 15.03673,12.918411 0.46496,2.176124 1.2696,4.519089 1.78806,5.206589 2.33399,3.094914 2.5988,10.988579 0.57323,17.087014 -1.64674,4.957897 -1.78404,6.865725 -0.64695,8.99039 1.12971,2.110883 1.02493,3.882982 -0.48213,8.154449 -1.05903,3.001604 -1.9255,6.792992 -1.9255,8.425306 0,1.632312 -1.15816,4.126006 -2.5737,5.541542 -1.75055,1.75055 -2.45019,3.825699 -2.1875,6.488259 0.34854,3.53282 0.96922,4.06257 6.36466,5.43224 3.28815,0.83472 6.67063,2.09213 7.51662,2.79423 0.84599,0.70211 4.34318,1.96436 7.77155,2.805 8.22645,2.01714 17.10148,6.5001 25.91177,13.08857 3.94813,2.95246 9.29188,6.05724 11.875,6.89951 2.58312,0.84226 7.89884,4.12161 11.81269,7.28744 16.99866,13.74985 31.24131,21.7916 42.31385,23.89147 5.98755,1.13552 48.0451,22.33037 54.70312,27.56757 1.6935,1.33211 3.77111,2.42201 4.61694,2.42201 0.84583,0 2.87934,1.02959 4.51893,2.28799 1.63958,1.25838 5.67556,3.02531 8.96881,3.92651 3.29325,0.90119 8.01122,3.2466 10.48437,5.21201 2.47317,1.96543 5.52523,3.57349 6.78237,3.57349 2.06983,0 8.25271,2.28929 13.91606,5.1526 1.1938,0.60357 3.19711,1.0974 4.4518,1.0974 3.12671,0 8.07979,4.84454 7.22651,7.06815 -0.38261,0.99706 0.20021,3.18011 1.29516,4.85121 1.88837,2.88201 1.82799,3.18341 -1.17332,5.85675 l -3.16415,2.81838 3.87011,3.23091 c 6.13459,5.12137 3.86783,6.6714 -8.28994,5.66871 -15.27731,-1.25996 -18.53979,-2.47851 -24.04222,-8.97995 -14.09168,-16.65005 -20.4155,-20.12091 -51.09449,-28.04347 -8.25,-2.13049 -18.375,-5.20645 -22.5,-6.83549 -4.125,-1.62904 -9.1875,-3.32195 -11.25,-3.76204 -2.0625,-0.44007 -6.28125,-2.40764 -9.375,-4.37234 C 276.55434,189.18116 265.89385,185 261.43851,185 c -1.90791,0 -5.90958,1.17919 -8.8926,2.62042 -4.45,2.15002 -6.68008,2.46499 -12.42229,1.75454 -3.84924,-0.47624 -7.7671,-1.49729 -8.70633,-2.269 -2.27162,-1.86642 -10.14297,-4.56361 -13.3869,-4.58714 -4.56129,-0.0331 -7.64991,4.92397 -9.30391,14.93223 -1.65787,10.03159 -4.7798,18.44049 -8.69363,23.4161 -2.24971,2.86005 -2.43885,5.12212 -2.36696,28.30815 0.043,13.85984 0.54849,25.77496 1.12337,26.47807 1.07718,1.31743 1.52368,10.24609 1.35923,27.1805 -0.1335,13.74614 -6.11262,39.10665 -11.061,46.91542 -1.82755,2.88393 -10.82955,13.87263 -20.68552,25.25071 -1.48882,1.71875 -3.63365,5.09375 -4.76628,7.5 -1.13263,2.40625 -3.83297,6.57771 -6.00075,9.26992 -5.00305,6.21338 -5.5762,8.65629 -4.87457,20.77674 0.37379,6.45696 0.10275,10.04954 -0.78158,10.36113 -0.86188,0.30365 -0.63509,1.33817 0.62415,2.84709 2.57746,3.08852 6.37538,11.39331 7.33357,16.03606 0.7522,3.64467 0.81075,3.66668 10.09754,3.79751 5.13752,0.0724 11.59095,0.8918 14.34095,1.82095 10.33195,3.49086 11.875,4.17205 11.875,5.24225 0,0.60409 0.79649,1.09835 1.76996,1.09835 2.9394,0 9.1507,9.03475 12.08665,17.58082 1.51994,4.4243 3.30726,8.3985 3.97184,8.83157 0.7403,0.48241 0.85517,4.77691 0.29659,11.08725 -0.74295,8.39295 -1.58438,11.2965 -4.5448,15.68301 -3.81228,5.64874 -15.48048,16.81735 -17.5696,16.81735 -2.29015,0 -0.21913,3.0139 3.45055,5.02147 2.0151,1.10239 4.21907,3.23605 4.89772,4.74144 0.67865,1.5054 1.66303,2.73709 2.1875,2.73709 0.52448,0 0.95359,1.03782 0.95359,2.30626 0,2.78778 3.77919,6.44374 6.66093,6.44374 3.02385,0 11.90012,9.33433 12.74786,13.4057 0.3973,1.90811 1.50495,6.45891 2.46145,10.11289 0.95648,3.65397 1.44537,7.40893 1.08642,8.34436 -0.68287,1.77953 4.81618,11.06009 12.58108,21.23265 6.08232,7.96829 7.90216,12.67727 8.28943,21.44969 0.46064,10.43394 -1.53513,14.30199 -9.74771,18.89221 -4.12377,2.30489 -5.13336,2.0086 -10.10843,-2.96647 z M 69.577635,192.89672 c 5.608208,-1.76783 6.672365,-2.57837 6.672365,-5.08217 0,-1.6384 0.608074,-4.1151 1.351275,-5.50379 2.438556,-4.55647 0.363741,-3.71522 -6.143261,2.49085 -3.521758,3.35888 -7.681154,6.9981 -9.243104,8.08716 -3.794446,2.64564 -1.014514,2.64864 7.362725,0.007 z"
       id="path3432"
       inkscape:connector-curvature="0" />
    <path
       style="fill:#82c0d9;fill-opacity:1"
       d="m 224.76842,632.57018 c -7.07343,-6.9215 -9.7929,-10.42893 -11.68458,-15.07018 -0.42032,-1.03125 -1.2689,-2.71875 -1.88575,-3.75 -0.61684,-1.03125 -2.19033,-4.125 -3.49664,-6.875 -1.30631,-2.75 -5.25325,-8.8632 -8.77096,-13.58489 -3.51772,-4.72169 -6.09638,-9.06943 -5.73037,-9.66166 0.99292,-1.60657 -1.88097,-6.31873 -3.31368,-5.43326 -0.68098,0.42086 -0.90697,1.80861 -0.50222,3.08387 0.48859,1.5394 -0.0904,2.76088 -1.72255,3.63442 -1.35216,0.72364 -2.83013,3.00791 -3.28438,5.07612 -0.66148,3.01166 -1.47698,3.7604 -4.09572,3.7604 -1.79837,0 -4.70681,1.34865 -6.46317,2.99701 -7.6411,7.17118 -21.94485,10.87654 -26.0684,6.75299 -2.44431,-2.44431 -1.7187,-12.43819 1.59084,-21.91084 1.69996,-4.86566 3.45387,-11.29185 3.8976,-14.28041 0.44371,-2.98856 1.58409,-6.67959 2.53416,-8.20227 2.03804,-3.26638 2.27205,-8.62233 0.42655,-9.7629 -0.71546,-0.44219 -1.05461,-1.741 -0.75366,-2.88628 0.37104,-1.41197 -3.06169,-5.2517 -10.66356,-11.92784 -6.16592,-5.41505 -13.75857,-13.29005 -16.87255,-17.5 -9.48125,-12.81815 -19.15911,-28.65018 -19.16405,-31.3505 -0.003,-1.40467 -1.11959,-4.38256 -2.48227,-6.61751 -1.36268,-2.23496 -3.13657,-6.73496 -3.94198,-10 -0.80541,-3.26505 -3.621855,-10.94601 -6.258762,-17.06882 -4.799233,-11.14365 -11.603155,-33.49802 -15.317398,-50.32548 -1.087472,-4.92682 -2.514752,-10.37166 -3.171734,-12.09965 -1.435968,-3.77689 -4.56897,-24.38915 -6.360211,-41.84435 -1.042446,-10.15837 -0.93543,-14.59392 0.540049,-22.3835 1.012065,-5.34306 2.186969,-16.4473 2.610896,-24.67607 0.587064,-11.39539 1.324571,-15.86444 3.094229,-18.75 1.871879,-3.05225 2.218616,-5.5531 1.78405,-12.86752 -0.41199,-6.93442 -0.03595,-10.03465 1.592017,-13.125 2.785922,-5.2885 4.115914,-15.56606 2.626462,-20.29606 -0.649472,-2.0625 -1.419223,-4.51647 -1.710559,-5.45327 -0.422433,-1.35837 -0.90409,-1.39258 -2.378461,-0.16895 -2.832353,2.35063 -11.017182,0.33917 -24.057462,-5.91227 -5.802068,-2.78148 -6.997061,-2.96451 -10.333146,-1.58266 -10.64826,4.41065 -28.910379,-7.83796 -26.743631,-17.93727 0.41942,-1.95494 0.756194,-5.61119 0.748385,-8.125 -0.01636,-5.26947 3.784712,-12.21623 7.293782,-13.32997 4.500168,-1.4283 7.470414,-7.32447 7.470414,-14.82935 0,-6.48822 0.387355,-7.3941 5.797006,-13.55704 3.188354,-3.63232 7.910386,-8.01047 10.493407,-9.72922 2.583019,-1.71875 7.084257,-6.90306 10.00275,-11.5207 4.126936,-6.52964 21.501376,-25.5058 23.886112,-26.08814 0.245149,-0.0599 5.226975,-0.55366 11.070725,-1.09732 9.46719,-0.88075 14.49452,-2.17369 26.57673,-6.835029 2.38493,-0.920115 3.19741,-1.911498 2.62886,-3.207747 -3.75516,-8.56149 -5.69549,-16.829859 -4.42635,-18.862081 1.04247,-1.669265 0.88108,-3.674263 -0.6598,-8.196479 -1.71155,-5.023124 -1.833,-7.656254 -0.75462,-16.360307 0.85494,-6.900579 2.05459,-11.223785 3.58321,-12.912893 1.26389,-1.396583 2.4248,-3.4033 2.5798,-4.459373 0.3339,-2.275062 4.31616,-5.537088 6.09717,-4.994449 0.6875,0.209468 4.0625,-0.431395 7.5,-1.424138 3.4375,-0.992744 10.60066,-1.992547 15.91814,-2.221783 7.77095,-0.335005 9.88281,-0.03319 10.76212,1.538074 0.61967,1.107265 2.66049,1.919876 4.70688,1.874169 8.17163,-0.18252 12.05236,3.672935 18.01047,17.893196 2.03736,4.862579 2.51447,11.611586 1.07156,15.158256 -0.80368,1.975459 -1.56331,7.247994 -1.68807,11.716744 -0.2491,8.922654 -3.26766,21.023863 -5.60451,22.468115 -0.81788,0.505476 -1.30469,2.730915 -1.08182,4.945435 0.43003,4.27283 0.85809,4.50949 19.78023,10.93573 12.3487,4.19381 21.78421,8.70695 25.48334,12.18904 4.44416,4.18342 13.7049,9.46168 16.60057,9.46168 1.07339,0 5.12175,2.732 8.99635,6.0711 15.09305,13.00707 30.25079,21.36589 45.1888,24.91962 5.36019,1.27518 44.67026,21.2474 48.81159,24.79963 2.63157,2.25725 15.33635,8.40222 23.04435,11.14595 3.4375,1.22361 7.68703,3.53851 9.4434,5.14422 1.75636,1.60572 4.35825,2.91948 5.78196,2.91948 1.42371,0 5.76834,1.40625 9.65474,3.125 3.8864,1.71875 7.81804,3.125 8.73696,3.125 3.49618,0 7.94784,4.80864 7.34946,7.93881 -0.31732,1.65999 0.0385,3.39853 0.79077,3.86344 1.53237,0.94706 1.88907,5.6871 0.43021,5.71689 -0.51563,0.01 -1.78125,0.58011 -2.8125,1.26572 -1.56131,1.03803 -1.14305,1.86871 2.5,4.96514 5.92796,5.03849 3.66731,6.58601 -8.125,5.56197 -17.02131,-1.47813 -21.46469,-3.65457 -27.82645,-13.62985 -1.73378,-2.71857 -4.33835,-5.98225 -5.78794,-7.25261 -3.25915,-2.85617 -16.47256,-9.07112 -23.58722,-11.09429 -2.91412,-0.82866 -5.83277,-1.97435 -6.48589,-2.54595 C 337.53437,210.46768 335.89631,210 334.54736,210 c -3.77486,0 -31.65777,-8.25222 -33.92236,-10.03966 -0.6875,-0.54264 -3.34316,-1.37777 -5.90148,-1.85584 -2.55831,-0.47806 -7.05831,-2.38695 -10,-4.24196 -6.00361,-3.78585 -14.52703,-7.44603 -20.75515,-8.9128 -3.20959,-0.75589 -5.74836,-0.27498 -11.14305,2.11081 -7.90351,3.49531 -13.71546,3.24265 -22.0023,-0.95649 -2.64108,-1.3383 -7.14108,-2.75005 -10,-3.13721 -7.16746,-0.97066 -10.45198,2.61665 -12.17143,13.29344 -1.66573,10.3432 -5.45864,20.96597 -8.72895,24.44705 -2.40972,2.56503 -2.59893,4.07273 -2.36597,18.85282 0.13927,8.83566 -0.16668,19.7763 -0.6799,24.31255 -0.74403,6.57644 -0.53192,8.86001 1.04683,11.26948 1.57719,2.4071 1.96685,6.57762 1.91559,20.5023 -0.0354,9.61427 -0.62214,19.73051 -1.30389,22.48051 -0.68175,2.75 -1.49811,6.6875 -1.81415,8.75 -2.02291,13.20196 -8.21343,25.29816 -18.7195,36.57767 -8.37286,8.98925 -12.08585,13.84609 -13.98861,18.29805 -0.88658,2.07437 -3.87452,6.70427 -6.63987,10.28867 l -5.0279,6.51708 0.24603,11.19323 c 0.13532,6.15626 -0.074,11.71094 -0.46503,12.34372 -0.39107,0.63278 1.22053,4.98834 3.58134,9.67904 2.36081,4.69069 4.29239,9.76755 4.29239,11.28193 0,2.60715 0.51457,2.74961 9.6875,2.68211 5.32812,-0.0392 11.375,0.57706 13.4375,1.3695 2.0625,0.79244 5.29232,1.77734 7.1774,2.18867 5.40277,1.17893 17.52097,14.05797 19.48215,20.70533 0.91275,3.09375 2.52697,7.46 3.58717,9.70279 1.62974,3.4476 1.70934,5.54547 0.51508,13.57511 -0.84921,5.70971 -2.48264,11.06261 -4.09575,13.42221 -4.14044,6.05646 -11.29985,13.31375 -15.10355,15.31002 -4.55811,2.3922 -4.34134,3.63647 1.25,7.17525 3.10699,1.96642 5.45107,4.83101 6.95211,8.49586 1.87046,4.56682 3.32839,6.01716 8.37671,8.33312 3.36167,1.54219 7.23799,4.38514 8.61407,6.31766 2.3871,3.35237 6.36642,18.891 6.36858,24.8683 9.7e-4,2.6419 4.59135,10.08343 12.52209,20.29968 6.26756,8.07377 8.72894,14.38131 8.72894,22.36882 0,4.10764 -0.54065,8.89045 -1.20145,10.62848 -1.1445,3.01025 -9.74833,9.5027 -12.59304,9.5027 -0.7393,0 -4.76099,-3.34343 -8.93709,-7.42983 z M 72.723584,192.26235 c 3.110658,-0.85996 4.383797,-1.83103 3.934766,-3.00119 -0.3651,-0.95143 -0.0413,-3.51564 0.719553,-5.69821 0.760853,-2.18259 1.154093,-4.19763 0.873867,-4.47785 -0.572281,-0.57228 -17.40544,14.36679 -18.022288,15.9944 -0.217533,0.57398 1.469967,0.46097 3.75,-0.25112 2.280035,-0.71209 6.21488,-1.8668 8.744102,-2.56603 z"
       id="path3430"
       inkscape:connector-curvature="0" />
    <path
       style="fill:#82c0d9;fill-opacity:1"
       d="m 231.875,638.5269 c -5.22706,-2.92106 -19.375,-19.10214 -19.375,-22.1593 0,-2.0895 -9.91925,-18.97331 -14.25648,-24.26633 -2.47143,-3.01606 -4.50213,-6.83207 -4.51266,-8.48001 -0.0248,-3.87957 -1.82316,-6.67529 -3.59111,-5.58264 -0.76436,0.47241 -1.38975,2.17179 -1.38975,3.77642 0,1.60462 -0.79071,3.22091 -1.75713,3.59176 -0.96642,0.37085 -2.14346,2.43322 -2.61563,4.58304 -0.68659,3.12597 -1.41817,3.83542 -3.65303,3.54256 -1.64445,-0.21549 -4.49491,1.0646 -6.92627,3.11045 -2.27248,1.91215 -6.28424,4.57476 -8.91505,5.9169 -5.38418,2.7468 -15.1572,3.2478 -17.12233,0.87775 -1.85807,-2.24093 -1.43106,-13.29954 0.71194,-18.4375 2.40391,-5.76354 5.2775,-16.89694 5.2775,-20.44708 0,-1.5538 0.82586,-3.91698 1.83525,-5.25151 2.13494,-2.82265 2.50285,-8.7904 0.6139,-9.95784 -0.71546,-0.44218 -0.98926,-1.78566 -0.60845,-2.98552 0.50721,-1.59805 -1.9031,-4.35489 -9.01165,-10.30723 -9.52695,-7.97737 -21.74232,-21.77352 -25.83283,-29.17582 -1.13974,-2.0625 -3.03952,-5.19299 -4.22173,-6.95664 -6.43789,-9.60415 -7.76557,-11.98842 -7.76982,-13.95317 -0.003,-1.18789 -1.33847,-5.12539 -2.96868,-8.75 -1.6302,-3.6246 -3.94215,-9.68394 -5.13765,-13.46519 -1.977929,-6.25597 -5.103115,-14.08713 -8.230851,-20.625 -1.346057,-2.81365 -3.215772,-9.50694 -8.729427,-31.25 -2.092053,-8.25 -4.873492,-18.9375 -6.180973,-23.75 -1.307482,-4.8125 -3.009543,-13.8125 -3.782359,-20 -3.679499,-29.45965 -3.794456,-32.02712 -1.85451,-41.419 1.033879,-5.00534 1.898184,-12.92119 1.920679,-17.5908 0.06314,-13.10803 1.976567,-25.26015 4.398796,-27.93669 1.809642,-1.99964 2.026797,-3.85565 1.341951,-11.4696 -0.68726,-7.64079 -0.431137,-9.80166 1.612194,-13.60185 3.560704,-6.62221 4.28709,-12.48262 2.523802,-20.36181 C 82.15106,228.96844 80.980661,227.40199 79.375,230 c -1.818833,2.94294 -7.983335,1.30212 -23.596803,-6.28079 -6.873342,-3.33815 -7.53919,-3.44202 -10.332126,-1.61202 -3.854512,2.52557 -11.379751,1.41295 -17.783026,-2.62927 -6.570134,-4.14753 -9.381224,-8.87441 -8.94675,-15.04402 0.19594,-2.7824 0.29655,-6.73038 0.223576,-8.77329 -0.149625,-4.1888 4.302161,-11.54806 7.638151,-12.62665 1.211663,-0.39176 3.530399,-2.6657 5.152747,-5.05319 2.36131,-3.47498 2.824736,-5.4498 2.323162,-9.89975 -0.587345,-5.21091 -0.249611,-6.00007 5.395778,-12.60807 3.312286,-3.87706 8.306753,-8.68888 11.098815,-10.69291 2.792062,-2.00403 7.045226,-6.85249 9.451476,-10.77437 3.872641,-6.3119 16.805097,-20.56829 22.801199,-25.13544 1.19691,-0.91167 6.82191,-2.09848 12.5,-2.63735 14.447131,-1.37109 30.255411,-6.777667 29.188921,-9.98288 -0.34313,-1.03125 -1.78683,-5.12432 -3.20821,-9.095713 -1.86633,-5.214623 -2.24246,-7.859474 -1.35385,-9.519875 0.85817,-1.603487 0.63158,-4.404439 -0.74885,-9.256978 -1.60078,-5.62713 -1.73068,-8.468184 -0.67922,-14.855126 1.85226,-11.251287 1.98792,-11.688788 4.36002,-14.060888 C 124.037,38.284425 125,36.371915 125,35.211398 c 0,-2.418126 4.50315,-5.66601 6.30869,-4.550127 0.66385,0.410281 4.64466,-0.474545 8.84625,-1.966278 6.13651,-2.178713 8.23908,-2.438937 10.68858,-1.322869 2.0838,0.949445 3.7923,0.991755 5.39574,0.133625 3.46902,-1.85656 5.53994,-1.549139 8.83899,1.312117 1.86085,1.613903 3.96199,2.316579 5.65583,1.891453 3.35065,-0.84096 10.52606,3.785643 12.51393,8.068812 6.88539,14.835575 7.41773,18.140173 4.33508,26.910869 -1.35468,3.854306 -1.8878,7.093166 -1.23406,7.497201 1.45776,0.90095 1.51471,8.941455 0.0696,9.834553 -0.59472,0.367562 -1.38235,2.912546 -1.75025,5.65552 -0.36791,2.742972 -1.85006,6.488793 -3.29368,8.324047 -1.44358,1.835254 -2.62472,4.354069 -2.62472,5.597369 0,2.69601 4.53931,6.15043 8.09064,6.15698 1.3939,0.003 4.22186,1.02906 6.28436,2.28108 2.0625,1.25202 6.49081,2.96287 9.8407,3.8019 7.56561,1.89491 17.899,6.98564 22.0343,10.85516 3.95015,3.69629 14.42324,9.30719 17.37241,9.30719 1.23206,0 3.31168,1.18697 4.62135,2.63771 8.87323,9.82893 38.13679,27.36229 45.66825,27.36229 3.35849,0 40.6549,18.40396 50.46299,24.90102 6.15844,4.07948 19.54094,10.4985 26.25,12.59105 2.75,0.85772 6.40625,2.78318 8.125,4.27879 1.71875,1.49562 6.5,3.79471 10.625,5.10911 4.125,1.31439 10.51484,3.6993 14.19964,5.2998 5.90371,2.56429 6.62987,3.27499 6.11236,5.98218 -0.3305,1.72889 0.15609,3.68912 1.11286,4.48316 2.42376,2.01155 2.10218,4.58263 -0.79986,6.39498 -3.37967,2.11065 -3.14413,4.01513 0.714,5.77302 2.03891,0.92899 3.05119,2.25916 2.76866,3.63814 -0.35871,1.75091 -1.65255,2.13127 -6.6515,1.95536 -17.94271,-0.63137 -25.10195,-3.40214 -29.95616,-11.59365 -1.375,-2.32031 -4.3979,-6.05941 -6.71754,-8.30912 C 364.59035,221.3169 345.95287,212.5 341.41948,212.5 c -1.38707,0 -2.86958,-0.5625 -3.29448,-1.25 -0.4249,-0.6875 -1.79975,-1.25 -3.05523,-1.25 -1.25547,0 -5.01916,-0.79003 -8.36373,-1.75563 -3.34457,-0.96558 -9.45604,-2.71516 -13.58104,-3.88795 -4.125,-1.17277 -9.85976,-3.19524 -12.74393,-4.49437 -2.88415,-1.29913 -6.2692,-2.36205 -7.52232,-2.36205 -1.25312,0 -4.37659,-1.42575 -6.94102,-3.16833 -5.71703,-3.88481 -14.64693,-7.78355 -21.20074,-9.25609 -4.05473,-0.91104 -6.11099,-0.57152 -11.81424,1.95073 -6.10072,2.69804 -7.6548,2.91118 -13.34141,1.82983 -3.53999,-0.67315 -8.66465,-2.37866 -11.38814,-3.79003 -2.72349,-1.41136 -6.94224,-2.54843 -9.375,-2.52683 -6.05921,0.0538 -8.71294,4.06946 -10.85804,16.43053 -1.64154,9.45934 -6.35184,21.15102 -9.2405,22.9363 -0.86667,0.53564 -1.2921,6.70318 -1.19166,17.27595 0.0859,9.04362 -0.23656,20.1674 -0.71663,24.71952 -0.70771,6.7109 -0.46367,8.96923 1.29008,11.9381 1.9645,3.32562 2.04451,5.54777 0.87228,24.22341 -2.27416,36.23066 -5.4367,45.95596 -20.26052,62.3039 -9.21225,10.15941 -12.55907,14.59798 -15.86592,21.04142 -1.53874,2.99825 -4.50668,7.57795 -6.59542,10.17712 -4.37492,5.44401 -5.9046,13.96895 -3.99357,22.25633 0.7231,3.13583 0.749,5.67084 0.0649,6.35493 -0.68407,0.68407 0.37793,4.01998 2.6623,8.36266 2.0902,3.97352 4.12775,9.27197 4.5279,11.77433 l 0.72753,4.54972 9.93151,-0.45101 c 5.46233,-0.24806 11.45949,0.12618 13.32703,0.83165 1.86753,0.70546 4.93785,1.6192 6.82292,2.03053 1.88508,0.41134 6.67688,3.97269 10.64845,7.9141 5.45988,5.41843 7.65554,8.69058 9.00249,13.41623 0.97979,3.4375 1.73486,6.95312 1.67794,7.8125 -0.0569,0.85937 0.33092,1.5625 0.86189,1.5625 1.87347,0 2.36001,6.97085 1.04694,15 -1.56029,9.54094 -7.86854,19.066 -16.79323,25.3567 -3.02329,2.131 -5.49688,4.60248 -5.49688,5.49215 0,0.88967 1.82813,2.39477 4.0625,3.34466 2.61999,1.11383 4.8881,3.45 6.38759,6.57928 1.2788,2.66871 2.73136,5.67221 3.22794,6.67442 0.49656,1.00223 2.66933,2.27996 4.82838,2.83943 2.15905,0.55946 5.8104,2.95799 8.11412,5.33005 3.35175,3.45118 4.60722,6.26101 6.28402,14.06414 1.1525,5.36321 2.09545,11.04333 2.09545,12.62251 0,2.88191 4.50038,10.25185 11.95123,19.57166 6.6011,8.2569 9.29877,14.7816 9.29877,22.49035 0,8.63 -2.64557,15.27662 -6.69311,16.8155 -1.68523,0.64071 -3.43313,1.76214 -3.88424,2.49205 -1.01864,1.6482 -1.8817,1.62324 -5.04765,-0.146 z M 70.687422,193.05307 c 3.76459,-1.09439 6.527704,-2.50273 6.140252,-3.12964 -0.387452,-0.62692 -0.128678,-3.22514 0.575053,-5.77385 0.703732,-2.5487 1.028624,-4.88489 0.721983,-5.19154 -0.30664,-0.30664 -4.249474,2.89611 -8.761853,7.11722 -4.512377,4.2211 -8.779441,7.67474 -9.482361,7.67474 -0.702921,0 -0.906695,0.60085 -0.452828,1.33521 0.453865,0.73438 1.632922,1.02528 2.620126,0.64645 0.987205,-0.37882 4.875037,-1.58418 8.639628,-2.67859 z"
       id="path3428"
       inkscape:connector-curvature="0" />
    <path
       style="fill:#82c0d9;fill-opacity:1"
       d="m 231.91129,638.4953 c -6.64379,-3.85266 -14.99954,-14.30293 -21.36873,-26.7252 -3.6989,-7.21422 -8.99041,-15.80311 -11.75892,-19.08639 -2.8323,-3.35893 -5.04202,-7.30106 -5.05278,-9.01416 -0.0246,-3.922 -1.81469,-6.72881 -3.59111,-5.63092 -0.76436,0.4724 -1.38975,2.23197 -1.38975,3.91015 0,1.83662 -0.72384,3.05122 -1.81836,3.05122 -1.09733,0 -2.15237,1.78041 -2.66069,4.49 -0.72881,3.88495 -1.24071,4.41385 -3.7987,3.92486 -1.62601,-0.31084 -3.59319,0.20216 -4.3715,1.13998 -0.77833,0.93782 -4.65235,3.67164 -8.60896,6.07515 -7.88303,4.78868 -15.84794,5.8353 -19.16491,2.51832 -2.37322,-2.37322 -2.29357,-12.3002 0.14562,-18.14831 2.42301,-5.80935 5.2775,-16.90676 5.2775,-20.51741 0,-1.59249 1.143,-4.34853 2.54,-6.12453 2.59147,-3.29453 2.37558,-9.60806 -0.32856,-9.60806 -0.76453,0 -0.68714,-0.69936 0.195,-1.76226 1.18862,-1.43222 -0.51948,-3.43131 -9.12001,-10.67376 -11.35219,-9.55961 -21.67473,-21.4943 -28.16516,-32.56398 -2.21704,-3.78125 -5.40129,-8.78631 -7.07612,-11.12235 -1.67484,-2.33605 -3.06304,-5.71105 -3.0849,-7.5 -0.0219,-1.78896 -0.86348,-4.34161 -1.87025,-5.67256 -1.00677,-1.33095 -3.28861,-7.20031 -5.07075,-13.04304 -1.782133,-5.84271 -4.818805,-14.035 -6.748156,-18.20509 C 91.477996,440.54895 86.506139,424.05515 80.489676,400 72.107843,366.48756 69.34936,339.73852 72.611799,323.60811 73.360787,319.9049 73.916754,313.78125 73.84728,310 c -0.216072,-11.76009 1.947236,-26.17485 4.322034,-28.79896 1.833237,-2.02572 2.04962,-3.85103 1.362332,-11.49213 -0.68726,-7.64079 -0.431137,-9.80166 1.612194,-13.60185 3.566455,-6.6329 4.286546,-12.48505 2.511973,-20.41469 -1.258533,-5.62371 -1.976794,-6.88245 -3.554057,-6.22842 -6.192198,2.56766 -8.429517,2.04342 -24.245711,-5.68108 -6.637792,-3.24183 -7.560361,-3.39806 -10.625,-1.79918 -4.672317,2.43763 -7.368044,2.20187 -14.895435,-1.30269 -9.180017,-4.27399 -11.590642,-8.6417 -11.408387,-20.67043 l 0.142207,-9.38557 6.573496,-6.25 c 8.224829,-7.82006 9.268362,-9.89103 8.506977,-16.88263 -0.607294,-5.57663 -0.545238,-5.68386 8.556683,-14.78441 5.042628,-5.04186 10.770885,-10.65762 12.729462,-12.47946 1.958575,-1.82185 4.662243,-5.47096 6.008151,-8.10916 1.345907,-2.6382 6.795314,-9.1625 12.109791,-14.49845 C 83.973196,107.15959 85.981196,106.25 98.65625,106.25 c 3.90156,0 7.62813,-0.49848 8.28125,-1.10773 0.65312,-0.60926 5.2071,-2.35661 10.11995,-3.88301 l 8.93246,-2.775271 -3.10602,-6.784425 c -2.24675,-4.90757 -2.99551,-8.415247 -2.70658,-12.679494 0.21969,-3.242289 -0.36577,-9.055395 -1.30102,-12.918015 -1.49123,-6.158801 -1.44234,-8.183155 0.39732,-16.452053 1.2287,-5.522771 2.84941,-9.717541 3.91208,-10.125324 C 124.18356,39.141759 125,37.415275 125,35.688046 c 0,-2.426159 0.78182,-3.296546 3.4375,-3.826884 1.89062,-0.377556 7.21962,-1.82221 11.84221,-3.21034 6.13476,-1.842223 9.04363,-2.18194 10.77034,-1.257831 1.62544,0.869906 3.52499,0.828433 6.07091,-0.132546 3.19794,-1.207088 4.2354,-1.006651 7.57693,1.463845 2.2608,1.671482 4.72225,2.536026 5.91606,2.077918 C 174.98447,29.12508 185,37.417028 185,42.712552 c 0,1.306474 0.90844,3.761866 2.01876,5.456427 1.11033,1.694561 1.68674,3.081021 1.28094,3.081021 -0.4058,0 -0.17702,1.475007 0.50839,3.277795 0.95736,2.518051 0.64755,4.964011 -1.33668,10.552711 -2.14984,6.055201 -2.31881,7.69776 -1.00786,9.796935 1.22241,1.957399 1.2518,3.442765 0.13125,6.634788 -0.79408,2.262024 -1.81471,6.185376 -2.26808,8.71856 -0.45336,2.533183 -1.89358,5.57349 -3.20051,6.756235 -1.30691,1.182745 -2.37621,3.437616 -2.37621,5.010836 0,3.00026 4.17512,6.75214 7.51382,6.75214 1.07667,0 3.99103,1.03671 6.47635,2.3038 2.48533,1.2671 7.24489,3.04366 10.57681,3.94793 8.48557,2.30295 17.52256,7.00713 24.15424,12.57343 3.10958,2.61003 8.03983,5.48388 10.95612,6.38635 2.96765,0.91835 10.39795,5.69814 16.875,10.8554 12.9651,10.32326 26.51535,17.66353 38.05117,20.61259 6.8062,1.73995 47.9378,22.23545 52.89649,26.35782 2.56767,2.13463 20.84029,10.71268 22.8197,10.71268 0.87998,0 3.83991,1.5264 6.57764,3.39199 2.73771,1.8656 8.35266,4.62862 12.47766,6.14007 20.41223,7.47926 19.99635,7.2545 20.05584,10.83938 0.0308,1.85087 0.73382,4.04322 1.5625,4.8719 2.20885,2.20885 1.84345,4.52515 -0.99334,6.29675 -3.34434,2.08857 -3.15024,3.93946 0.625,5.95991 5.62154,3.00855 3.4962,5.68581 -4.21556,5.3103 -18.48145,-0.89995 -23.88342,-3.25225 -30.74183,-13.38661 -7.513,-11.10159 -16.33789,-15.41164 -51.29261,-25.05113 -19.44239,-5.36163 -33.60087,-10.45867 -40.625,-14.62497 -3.09375,-1.83503 -9.46235,-4.5901 -14.15244,-6.12239 l -8.52742,-2.78597 -5.56852,2.70538 c -7.12747,3.4628 -15.2318,3.46638 -22.7577,0.01 -3.22791,-1.48243 -8.45573,-2.95207 -11.61741,-3.26587 -5.43419,-0.53933 -5.88765,-0.3407 -8.29386,3.63285 -1.39996,2.31186 -3.19113,8.01259 -3.98038,12.6683 -1.71157,10.09641 -3.02703,13.83869 -6.91077,19.66007 -2.75265,4.12598 -2.95526,5.80975 -3.55965,29.58139 -0.53335,20.97703 -0.3305,25.6495 1.20889,27.8473 1.58016,2.256 1.66661,5.68754 0.5931,23.54361 -1.41307,23.50388 -1.8282,26.36913 -5.46185,37.6975 -3.40504,10.61563 -6.2106,15.32632 -14.93713,25.0802 -3.99807,4.46875 -8.58841,9.61797 -10.20076,11.4427 -1.61236,1.82474 -3.68458,5.13565 -4.60493,7.35758 -0.92035,2.22192 -3.82082,6.89786 -6.4455,10.39097 -5.60606,7.46098 -6.62888,11.72034 -5.45243,22.70584 0.57751,5.3927 0.42722,8.10291 -0.44932,8.10291 -0.72437,0 0.38152,2.88079 2.45755,6.40175 2.07604,3.52097 4.37895,9.01992 5.11759,12.21989 l 1.34299,5.81812 8.75266,-0.49456 c 18.76285,-1.0602 34.31478,7.58343 39.74419,22.08945 1.4596,3.8997 2.72836,8.07473 2.81946,9.27785 0.0911,1.20313 0.68646,2.1875 1.32303,2.1875 0.67028,0 0.89155,4.66213 0.52576,11.07764 -0.6059,10.62651 -0.84498,11.36644 -5.87075,18.16957 -4.58932,6.21235 -12.20881,13.03479 -16.73794,14.98707 -0.93764,0.40416 -0.37622,1.46492 1.52933,2.88965 5.94443,4.44448 11.19662,10.41977 11.58928,13.18488 0.2817,1.98369 2.31319,3.73998 6.87219,5.94119 9.0669,4.37778 11.04048,7.48559 13.51364,21.28018 2.39988,13.38582 3.59814,16.06198 12.29462,27.45835 3.40527,4.46242 7.14362,10.36867 8.30745,13.125 4.50369,10.66603 2.28988,25.61657 -4.15608,28.06732 -1.68523,0.64071 -3.43313,1.76214 -3.88424,2.49205 -1.02336,1.65584 -1.90343,1.62465 -5.01136,-0.1776 z M 68.868454,193.62825 C 77.284702,191.07189 77.5,190.90296 77.5,186.85549 c 0,-2.28307 0.341431,-5.04078 0.758736,-6.12825 1.407928,-3.669 -1.411994,-2.01323 -9.405699,5.52276 -4.375543,4.125 -8.438722,7.5 -9.029286,7.5 -0.590562,0 -1.073751,0.5625 -1.073751,1.25 0,1.67068 0.184076,1.64572 10.118454,-1.37175 z"
       id="path3426"
       inkscape:connector-curvature="0" />
    <path
       style="fill:#82c0d9;fill-opacity:1"
       d="m 225.92664,632.91109 c -6.20654,-5.63954 -9.27415,-9.87805 -15.00373,-20.73055 -3.96115,-7.5029 -9.44552,-16.30221 -12.1875,-19.55403 -2.79706,-3.31715 -4.99381,-7.24881 -5.00455,-8.95696 -0.01,-1.6745 -0.51013,-3.81974 -1.11025,-4.7672 -1.3562,-2.14119 -3.87061,-0.74866 -3.87061,2.14362 0,1.18163 -1.125,3.11168 -2.5,4.28899 -1.375,1.17731 -2.5,3.6179 -2.5,5.42353 0,2.8161 -0.43854,3.19912 -3.08381,2.69345 -1.8825,-0.35986 -3.99024,0.25496 -5.41068,1.5783 -6.52225,6.0764 -12.6551,8.71976 -20.23067,8.71976 -4.13867,0 -7.5851,-0.5625 -7.65877,-1.25 -0.77603,-7.24299 0.0561,-13.52601 2.94643,-22.24765 1.89062,-5.70495 3.4375,-11.82606 3.4375,-13.60245 0,-1.7764 1.14588,-5.08387 2.54639,-7.34995 2.5751,-4.1666 2.37242,-10.54995 -0.33495,-10.54995 -0.76907,0 -0.6967,-0.68784 0.184,-1.74901 1.17446,-1.41515 -0.68968,-3.56566 -9.76583,-11.26603 -11.22289,-9.52168 -20.14837,-20.41147 -31.69211,-38.66682 -3.26562,-5.16428 -5.9375,-10.52261 -5.9375,-11.90741 0,-1.3848 -1.05579,-4.3781 -2.3462,-6.65178 -1.2904,-2.27367 -2.98032,-6.78327 -3.75537,-10.02132 -0.77505,-3.23807 -3.680908,-11.11307 -6.45746,-17.5 C 93.414416,444.60068 90.640569,437.40625 90.026864,435 83.753954,410.40484 79.56419,394.66734 78.038504,389.96959 c -1.010188,-3.11048 -2.403502,-10.64362 -3.096255,-16.7403 -0.692753,-6.09669 -1.793158,-13.3955 -2.445343,-16.21959 -1.527289,-6.61345 -1.450639,-24.60226 0.139055,-32.6347 0.680314,-3.4375 1.510371,-13.26841 1.844571,-21.84649 0.499823,-12.82915 1.068823,-16.37781 3.206848,-20 2.225956,-3.77115 2.487585,-5.66004 1.821895,-13.15351 -0.659713,-7.4262 -0.39976,-9.36584 1.718219,-12.82054 3.528995,-5.75623 4.401282,-13.09784 2.498575,-21.02922 -1.696928,-7.07359 -2.341973,-7.6608 -5.944087,-5.41125 -2.538123,1.58508 -14.761298,-2.03535 -23.831092,-7.05863 -5.098026,-2.82352 -5.648325,-2.88819 -9.153736,-1.07546 -4.508919,2.33165 -9.520884,1.51212 -16.977693,-2.77606 -8.426742,-4.84598 -9.435806,-8.46427 -7.895792,-28.31264 0.04199,-0.54109 3.470905,-4.33645 7.619827,-8.43416 l 7.543496,-7.45037 -0.824573,-6.21593 c -0.815174,-6.14508 -0.748772,-6.30345 5.824477,-13.89104 3.656978,-4.22131 8.649088,-8.94718 11.093578,-10.50194 2.444488,-1.55475 6.413276,-6.01424 8.819526,-9.90996 4.757396,-7.70225 17.316026,-21.49247 22.813874,-25.05117 2.100975,-1.35995 7.45043,-2.60907 13.75,-3.21071 5.671116,-0.54161 13.967376,-2.20948 18.436126,-3.70637 4.46875,-1.49689 8.80834,-2.93216 9.64353,-3.189481 1.07432,-0.330998 0.59003,-2.567326 -1.65551,-7.6449 -2.2407,-5.066631 -3.06188,-8.850648 -2.79265,-12.868606 0.20976,-3.130359 -0.38881,-8.874162 -1.33016,-12.764006 -1.51994,-6.280715 -1.46315,-8.127168 0.50726,-16.494242 1.22034,-5.18199 2.98576,-9.716113 3.92316,-10.075826 C 124.23304,39.122774 125,37.719005 125,36.363002 c 0,-1.356003 0.5472,-2.803647 1.216,-3.216987 2.99867,-1.853287 20.91429,-5.76531 23.75514,-5.187134 1.73462,0.353035 4.91912,0.02269 7.07667,-0.7341 3.37789,-1.184838 4.39975,-1.000831 7.35608,1.324619 1.90892,1.50156 5.22602,2.7006 7.47111,2.7006 5.03216,0 9.81361,3.648901 11.81979,9.020132 0.84325,2.257678 2.0964,5.511118 2.78478,7.229868 0.68838,1.71875 1.16004,3.125 1.04814,3.125 -0.11187,0 0.37607,1.524266 1.08438,3.387258 1.00237,2.636455 0.73549,4.991539 -1.20408,10.625 -2.05866,5.979366 -2.22642,7.734465 -0.96493,10.094718 1.16041,2.171129 1.18861,3.821548 0.1175,6.875 -0.77523,2.209914 -1.78045,6.090629 -2.23382,8.623813 -0.45336,2.533184 -1.89358,5.57349 -3.20051,6.756235 -4.44978,4.026966 -1.81069,11.762976 4.01284,11.762976 1.35327,0 4.54747,1.03658 7.09821,2.30351 2.55074,1.26693 7.4502,3.04349 10.8877,3.94792 8.58062,2.25762 16.4383,6.32971 23.54302,12.20071 3.29453,2.72243 8.3451,5.69635 11.22352,6.6087 4.73131,1.49966 10.50187,5.46966 24.63729,16.94981 6.4011,5.1987 24.06351,13.649 31.98916,15.30471 5.51099,1.15129 36.54673,16.88254 57.71401,29.25381 6.71049,3.92197 6.29161,3.73103 14.643,6.67492 3.4375,1.21172 7.92574,3.35757 9.97386,4.76855 2.04813,1.41097 6.26688,3.48548 9.375,4.61002 21.47928,7.77134 21.90114,7.99176 21.90114,11.44365 0,1.81181 0.70313,4.00059 1.5625,4.86395 2.26861,2.27913 1.91928,4.54084 -0.9375,6.06974 -3.42134,1.83105 -3.13846,4.76269 0.625,6.47744 1.71875,0.78312 3.125,2.26034 3.125,3.2827 0,1.5764 -1.85199,1.72919 -12.1875,1.00551 -14.04587,-0.98347 -19.71842,-3.2922 -23.4375,-9.53904 -5.90151,-9.91263 -15.45678,-16.6327 -30.06161,-21.14181 -2.71611,-0.83859 -5.78214,-1.84636 -6.81339,-2.23952 -1.03125,-0.39317 -8.625,-2.55359 -16.875,-4.80094 -20.11981,-5.48078 -34.83915,-10.74319 -39.32404,-14.059 -3.84506,-2.84278 -14.17087,-6.97809 -20.73225,-8.3029 -2.56358,-0.51762 -5.79267,0.11012 -9.89042,1.92277 -4.86249,2.1509 -7.43865,2.5321 -12.8301,1.89844 -3.7103,-0.43608 -8.07541,-1.66394 -9.70026,-2.72857 -1.62487,-1.06465 -5.99659,-2.24972 -9.71497,-2.63349 -6.2041,-0.64031 -6.97183,-0.42931 -9.32563,2.56305 -1.50647,1.91516 -2.93484,6.23402 -3.46129,10.46559 -1.14761,9.2246 -3.82881,17.29803 -7.58181,22.82977 -2.8256,4.16481 -2.99408,5.57605 -3.50674,29.375 -0.4351,20.19819 -0.19003,25.67579 1.27591,28.51839 1.51956,2.94655 1.61895,6.80651 0.61151,23.75 -1.98293,33.34977 -5.89488,45.70885 -18.86695,59.60661 -2.88768,3.09375 -6.92607,8.01562 -8.9742,10.9375 -2.04812,2.92187 -4.25933,5.3125 -4.91381,5.3125 -0.65447,0 -1.18995,0.63465 -1.18995,1.41034 0,1.60133 -6.08434,12.0425 -10.83269,18.58966 -2.94346,4.05853 -3.12847,5.12179 -2.55776,14.69879 0.33836,5.67807 0.1362,10.61982 -0.44925,10.98165 -0.58545,0.36182 0.82179,4.15362 3.12719,8.42621 2.30541,4.2726 4.53277,9.7371 4.94971,12.14335 l 0.75808,4.375 10.93986,0.0587 c 6.01692,0.0324 13.132,0.69488 15.81129,1.47234 10.79193,3.13156 20.64392,13.49551 23.49785,24.71888 0.8741,3.4375 2.1078,6.61842 2.74155,7.0687 1.89465,1.34618 -0.0684,22.06739 -2.30214,24.30119 -1.06353,1.06353 -1.94251,2.31538 -1.9533,2.7819 -0.0435,1.88015 -10.87054,12.57574 -14.66789,14.48975 -2.23437,1.12621 -4.0625,2.58866 -4.0625,3.24989 0,0.66121 2.18266,2.58006 4.85035,4.2641 3.05469,1.92835 5.89343,5.21659 7.66784,8.88205 2.16679,4.47599 4.00565,6.33586 7.96215,8.05314 7.88334,3.42166 10.57647,7.1996 13.31962,18.68471 1.34752,5.64188 2.45004,11.37432 2.45004,12.7388 0,2.76105 7.14023,14.50864 12.66955,20.84481 10.68054,12.23905 11.24039,33.55758 0.99275,37.80229 -2.01426,0.83434 -3.6623,2.01124 -3.6623,2.61532 0,2.43762 -2.8996,0.75499 -10.32336,-5.99056 z M 67.831372,194.16346 c 4.286496,-1.1476 8.142587,-2.41322 8.569093,-2.8125 1.296569,-1.2138 2.38026,-12.60096 1.199205,-12.60096 -0.606376,0 -3.54874,2.44894 -6.538586,5.44207 -2.989847,2.99314 -6.982959,6.43284 -8.873584,7.64377 -1.890625,1.21092 -3.4375,2.6995 -3.4375,3.30792 0,1.44884 0.01351,1.44738 9.081372,-0.9803 z"
       id="path3424"
       inkscape:connector-curvature="0" />
    <path
       style="fill:#82c0d9;fill-opacity:1"
       d="m 227.32859,633.81962 c -3.68263,-3.47579 -7.1118,-6.31962 -7.62037,-6.31962 -0.50857,0 -1.76466,-1.82813 -2.79132,-4.0625 -1.02665,-2.23438 -2.39986,-4.90625 -3.05157,-5.9375 -0.65173,-1.03125 -1.50824,-2.71875 -1.90337,-3.75 -1.25897,-3.2858 -8.68556,-15.45951 -13.21196,-21.65712 -2.40625,-3.29468 -4.65625,-7.78527 -5,-9.97909 -0.72666,-4.6376 -4.16293,-5.48215 -4.7748,-1.17355 -0.21989,1.54838 -1.44813,3.3763 -2.72943,4.06202 -1.28129,0.68573 -2.50763,2.79386 -2.7252,4.68476 -0.32693,2.84149 -1.01708,3.4484 -3.97778,3.49809 -1.97023,0.0331 -4.22023,0.92521 -5,1.98258 -0.77979,1.05735 -3.8402,3.44805 -6.80093,5.31266 -4.51395,2.8428 -6.53226,3.33 -12.5,3.01743 l -7.11686,-0.37278 -0.38058,-6.64167 c -0.25657,-4.47773 0.61349,-9.7722 2.67043,-16.25 1.67805,-5.28458 3.4371,-11.79994 3.909,-14.47858 0.4719,-2.67864 1.72284,-6.19016 2.77987,-7.80339 1.34355,-2.05053 1.61837,-3.97027 0.91327,-6.37975 -0.55473,-1.89563 -1.04572,-4.11198 -1.09109,-4.92521 -0.11738,-2.10495 -5.31193,-7.39614 -12.32733,-12.55675 -6.15576,-4.52826 -18.98438,-19.73456 -24.59857,-29.15769 -1.71875,-2.88484 -4.95312,-8.10885 -7.1875,-11.60891 -2.23437,-3.50006 -4.0625,-7.39503 -4.0625,-8.65548 0,-1.26045 -0.88258,-3.99845 -1.96129,-6.08445 -1.07872,-2.086 -3.34999,-8.04687 -5.04729,-13.24638 -1.69729,-5.19953 -4.518825,-12.58618 -6.270074,-16.4148 C 92.161154,441.68511 85.670171,419.95238 81.979711,403.75 80.805259,398.59375 79.106996,392.40625 78.205798,390 c -0.901201,-2.40625 -2.03993,-8.3125 -2.530513,-13.125 -0.490583,-4.8125 -1.686964,-12.58365 -2.658626,-17.26923 -2.052947,-9.89976 -2.2253,-26.52324 -0.358797,-34.60577 0.714442,-3.09375 1.505923,-10.6875 1.758847,-16.875 0.671378,-16.42456 1.749694,-23.46078 3.971696,-25.91606 1.581505,-1.74754 1.836971,-4.13269 1.292875,-12.07088 -0.57206,-8.34617 -0.301326,-10.51252 1.731536,-13.8553 3.289203,-5.40866 4.19712,-13.52967 2.365968,-21.16277 -1.459995,-6.08595 -3.795775,-8.12631 -5.726534,-5.00228 -0.464911,0.75224 -2.044983,1.08865 -3.511271,0.74759 -4.917194,-1.14377 -19.250053,-6.86705 -22.45313,-8.96579 -2.43316,-1.59426 -3.751815,-1.76592 -5.67185,-0.73835 -4.474939,2.39492 -12.473248,1.55719 -18.422984,-1.9296 -7.580666,-4.44256 -9.081397,-7.80721 -8.515869,-19.09267 0.502323,-10.02415 2.454612,-14.36404 7.494667,-16.66044 5.156613,-2.34951 8.148015,-8.50529 7.264731,-14.94954 -0.734998,-5.3624 -0.51996,-5.8328 6.218995,-13.60418 3.839174,-4.42735 8.541624,-8.91932 10.449889,-9.98214 1.908265,-1.06283 5.719572,-5.32122 8.469572,-9.46309 5.846605,-8.80579 18.564979,-22.99574 23.29996,-25.99589 2.027051,-1.28437 7.029245,-2.32992 12.967976,-2.71055 5.317414,-0.34081 11.197644,-1.41066 13.067174,-2.37743 1.86954,-0.96678 4.87206,-1.95503 6.67226,-2.1961 1.80021,-0.24108 3.66937,-0.8346 4.1537,-1.31893 0.48433,-0.48433 1.87865,-0.8806 3.09849,-0.8806 3.45935,0 3.60455,-1.473253 0.74091,-7.51717 -1.79771,-3.794185 -2.69425,-8.23556 -2.77213,-13.73283 -0.0633,-4.46875 -0.8578,-10.453236 -1.76554,-13.298857 -1.42386,-4.463571 -1.35122,-6.518795 0.52912,-14.970598 1.19877,-5.388206 2.90916,-10.37247 3.80088,-11.076142 0.89171,-0.703672 1.81484,-2.392779 2.0514,-3.753572 0.23655,-1.360792 1.83087,-2.875614 3.54295,-3.366267 1.71206,-0.490654 6.36764,-1.826675 10.3457,-2.968936 4.3933,-1.261492 8.91037,-1.762134 11.5058,-1.275229 2.61036,0.489706 5.24902,0.192035 6.78154,-0.765035 2.12845,-1.329238 3.07648,-1.146785 6.25608,1.203996 2.06113,1.523853 5.31715,2.772743 7.23562,2.775313 5.93088,0.008 11.29212,4.229753 13.01387,10.248048 0.84533,2.954753 1.97629,5.962688 2.51326,6.684297 2.33917,3.143452 2.57064,11.711382 0.48598,17.987725 -1.64686,4.958245 -1.79836,6.816561 -0.66686,8.179933 2.04165,2.460047 -1.91135,19.244325 -5.21969,22.162554 -1.68131,1.483061 -2.30704,3.391461 -2.03353,6.2021 0.36603,3.76128 0.99262,4.27723 8.52008,7.01549 4.46875,1.6256 11.5,3.98342 15.625,5.23962 8.76597,2.66951 18.69575,7.77383 23.125,11.88721 3.7781,3.50866 11.91842,8.13835 14.30957,8.13835 0.95345,0 5.41517,2.95312 9.91494,6.5625 18.25335,14.64147 31.39964,22.07755 42.65049,24.12485 6.51185,1.18496 32.02451,14.02261 59.375,29.87675 4.46875,2.59038 10.92874,5.55285 14.35552,6.58329 3.42679,1.03042 7.82952,3.21896 9.78384,4.86342 1.95433,1.64445 5.05684,3.3159 6.89448,3.71431 1.83763,0.39842 6.61261,2.08575 10.61105,3.74964 3.99845,1.66388 7.98938,3.02524 8.86877,3.02524 2.26544,0 6.13916,4.58695 5.18184,6.13592 -0.43968,0.7114 0.18832,2.80092 1.39554,4.64337 2.1347,3.25796 2.11897,3.40033 -0.57305,5.18776 -3.60789,2.39555 -3.50043,4.51551 0.35701,7.043 5.93659,3.8898 3.8795,4.91786 -8.13406,4.06511 -13.51772,-0.95951 -18.19967,-2.73152 -23.13547,-8.75625 -2.05176,-2.50441 -5.33373,-6.52684 -7.2933,-8.93872 -3.6939,-4.54658 -18.70218,-12.55773 -26.17702,-13.9728 -2.20559,-0.41754 -4.57265,-1.16804 -5.26015,-1.66778 -0.6875,-0.49972 -7.43474,-2.4408 -14.99388,-4.3135 -7.55912,-1.8727 -17.07797,-4.75967 -21.153,-6.41551 -4.07503,-1.65582 -8.32703,-3.0106 -9.44891,-3.0106 -1.12186,0 -4.76695,-1.72954 -8.10019,-3.8434 -6.92822,-4.39376 -15.50037,-7.94118 -22.07752,-9.13635 -3.25688,-0.59184 -6.23199,-0.0874 -10.625,1.80172 -4.88298,2.09974 -7.45683,2.45582 -12.88796,1.78295 -3.73255,-0.46242 -8.04835,-1.66761 -9.59068,-2.67817 -1.54232,-1.01056 -5.84652,-2.15139 -9.5649,-2.53516 -6.19834,-0.63973 -6.97317,-0.42763 -9.31535,2.54998 -1.58601,2.01628 -3.08032,6.78188 -3.94095,12.56832 -1.4623,9.83185 -4.17177,17.11197 -8.01081,21.52436 -2.06059,2.36834 -2.35938,5.51354 -2.73126,28.75 -0.2818,17.60734 0.0266,26.63663 0.94852,27.76959 1.73675,2.13433 1.37899,39.93647 -0.42281,44.67556 -0.70296,1.84896 -1.59334,5.39436 -1.9786,7.87867 -0.98809,6.37152 -4.51277,16.34778 -7.33712,20.76693 -2.17963,3.41036 -13.26223,17.05399 -21.21765,26.12072 -1.74732,1.9914 -3.17693,4.32629 -3.17693,5.18864 0,0.86236 -2.67187,5.12318 -5.9375,9.46846 l -5.9375,7.90054 -0.097,11.3689 c -0.0534,6.2529 -0.48449,11.99596 -0.95816,12.76238 -0.47366,0.76641 0.58731,3.52797 2.35771,6.13681 1.77041,2.60884 4.09965,7.91116 5.1761,11.78292 l 1.95717,7.03958 8.28207,-0.55374 c 20.4327,-1.36615 36.33958,8.56429 41.12772,25.67544 1.09415,3.91014 2.53568,7.47776 3.2034,7.92805 1.7131,1.15526 0.0832,21.78669 -1.92478,24.36534 -3.32798,4.2736 -16.71262,17.36491 -19.11565,18.69675 -2.21412,1.22712 -2.28939,1.62416 -0.67638,3.56771 0.99825,1.20283 3.02005,2.6451 4.4929,3.20507 1.47285,0.55998 4.07596,3.73575 5.78469,7.05729 2.33674,4.5423 4.47001,6.70598 8.60692,8.72955 6.14464,3.00565 12.40823,9.7295 12.40823,13.31999 0,1.29516 0.8924,5.42457 1.98311,9.17649 1.09071,3.75192 1.65146,7.68593 1.2461,8.74227 -0.68262,1.7789 2.62561,7.22976 14.88145,24.51963 4.67983,6.60203 7.56376,17.5359 6.44451,24.43303 -0.6953,4.28465 -5.05062,10.24318 -7.48713,10.24318 -0.6854,0 -2.21314,0.87507 -3.39498,1.94462 -1.97514,1.78748 -2.68985,1.43394 -8.84447,-4.375 z M 69.375,193.97294 c 7.296013,-2.1821 7.518191,-2.37713 8.16882,-7.17053 0.367851,-2.71007 1.080151,-5.59167 1.58289,-6.40354 0.502739,-0.81187 0.43563,-1.77182 -0.14913,-2.13322 -0.58476,-0.3614 -4.10956,2.20706 -7.83289,5.70769 -3.72333,3.50062 -8.035315,7.19715 -9.58219,8.21448 -3.07871,2.02478 -3.711301,4.07194 -1.25,4.0452 0.859375,-0.009 4.9375,-1.02638 9.0625,-2.26008 z"
       id="path3422"
       inkscape:connector-curvature="0" />
    <path
       style="fill:#82c0d9;fill-opacity:1"
       d="m 225.96705,632.24428 c -4.44709,-4.32811 -9.0951,-9.83803 -10.32891,-12.24428 -1.23382,-2.40625 -2.71005,-5.21875 -3.28052,-6.25 -0.57047,-1.03125 -2.46111,-4.59666 -4.20142,-7.92315 -1.7403,-3.32648 -5.6517,-9.23273 -8.69201,-13.125 -3.04032,-3.89226 -5.71039,-8.75954 -5.93352,-10.81616 -0.52971,-4.8826 -4.78067,-6.1242 -4.78067,-1.39633 0,1.85701 -1.00228,3.70908 -2.41693,4.46618 -1.32931,0.71142 -2.59493,2.84058 -2.8125,4.73148 -0.32354,2.81198 -0.94756,3.37669 -3.42706,3.10142 -1.80873,-0.20082 -4.32966,0.85335 -6.25,2.61355 -6.83994,6.26955 -12.10706,8.50402 -19.0999,8.10278 l -6.61861,-0.37977 -0.37088,-6.36227 c -0.24867,-4.2658 0.64522,-9.41449 2.71273,-15.625 1.696,-5.09451 3.47091,-11.91648 3.94427,-15.15995 0.47337,-3.24348 1.64325,-6.54673 2.59977,-7.34055 1.82443,-1.51415 2.3823,-7.57737 0.83916,-9.12052 -0.49498,-0.49497 -0.91685,-1.9402 -0.9375,-3.2116 -0.0216,-1.33151 -4.18301,-5.76132 -9.81454,-10.44763 -10.66364,-8.87384 -21.25556,-21.33894 -27.28254,-32.10748 -2.11631,-3.78125 -4.90063,-8.02703 -6.18738,-9.43505 -2.28659,-2.5021 -3.54342,-5.68685 -11.32221,-28.68995 -2.09238,-6.1875 -4.531529,-12.65625 -5.420325,-14.375 -3.873085,-7.48975 -8.82839,-22.88874 -12.494646,-38.82806 -1.176132,-5.11332 -3.466419,-14.07819 -5.089528,-19.92194 -1.623107,-5.84375 -3.319364,-14.28125 -3.769456,-18.75 -0.450094,-4.46875 -1.589341,-11.5 -2.531661,-15.625 -2.017752,-8.83269 -2.219655,-24.18279 -0.41104,-31.25 0.70377,-2.75 1.764149,-13.33662 2.356396,-23.52585 0.860049,-14.79651 1.514435,-19.00941 3.250743,-20.928 1.944852,-2.14904 2.591667,-10.85965 1.534028,-20.65864 -0.08087,-0.74936 1.14864,-4.03904 2.73227,-7.31037 2.477485,-5.1178 2.776124,-7.17893 2.139839,-14.76852 -0.858252,-10.23722 -1.962881,-11.96806 -6.359577,-9.9648 -3.513083,1.60068 -13.019819,-1.1929 -23.642713,-6.94746 -4.994353,-2.7055 -6.434541,-3.00781 -8.420539,-1.76754 -6.367966,3.97687 -19.154075,-0.34337 -24.501744,-8.27877 -2.447048,-3.63119 -2.683487,-5.16336 -2.02244,-13.10598 0.748508,-8.99346 3.914085,-15.86907 7.306225,-15.86907 0.820362,0 2.93535,-1.8929 4.699977,-4.20645 2.646522,-3.46976 3.165058,-5.40099 2.960861,-11.02738 -0.236959,-6.52911 0.01175,-7.11122 5.814541,-13.60605 3.334151,-3.73182 7.996329,-7.97207 10.360394,-9.42278 2.364066,-1.45072 6.595365,-6.23196 9.402887,-10.625 5.714561,-8.94179 18.665791,-22.87113 23.770398,-25.5656 1.840175,-0.97134 7.625128,-2.04977 12.855451,-2.39652 5.230319,-0.34674 11.149919,-1.47864 13.154649,-2.51533 2.00474,-1.03669 5.04597,-1.88489 6.75828,-1.88489 1.71232,0 3.46095,-0.5625 3.88585,-1.25 0.4249,-0.6875 1.86435,-1.25 3.19877,-1.25 3.11833,0 3.06153,-0.752406 -0.69877,-9.255104 -3.31705,-7.500446 -3.91557,-11.954324 -1.87999,-13.989909 0.82669,-0.826683 0.37367,-3.724151 -1.34825,-8.623318 -1.55637,-4.428147 -2.2792,-8.653474 -1.80779,-10.567487 0.43201,-1.754049 1.29735,-5.932396 1.92298,-9.285212 0.62563,-3.352816 1.94581,-7.009066 2.93374,-8.125 0.98792,-1.115934 2.00038,-3.142346 2.24991,-4.503139 0.24952,-1.360792 1.85447,-2.85756 3.56655,-3.32615 11.18702,-3.061861 16.35112,-4.057777 21.86285,-4.216327 3.4375,-0.09889 7.19974,-0.604354 8.36052,-1.123267 1.42528,-0.637153 2.83448,-0.09795 4.3403,1.660717 1.43424,1.675072 3.72089,2.604196 6.40916,2.604196 7.281,0 13.13828,4.724331 14.72276,11.875 0.45702,2.0625 1.36522,4.414404 2.01825,5.226452 1.86884,2.32397 1.74311,12.938914 -0.2313,19.528413 -1.50746,5.031083 -1.52493,6.174395 -0.10775,7.050286 1.40676,0.869428 1.34821,2.052972 -0.34774,7.030309 -1.12159,3.291688 -2.03925,7.29644 -2.03925,8.899448 0,1.603008 -1.125,3.877816 -2.5,5.055127 -2.82682,2.420399 -3.40556,9.342535 -0.9375,11.213055 0.85937,0.65131 4.09375,1.90328 7.1875,2.78215 3.09375,0.87887 6.1875,2.04736 6.875,2.59664 0.6875,0.54928 3.78125,1.65994 6.875,2.46813 7.80906,2.04 20.90055,8.31897 24.25946,11.63539 3.0709,3.03206 10.96114,7.60044 15.51473,8.9829 1.59455,0.48411 7.7303,4.75636 13.635,9.4939 12.34786,9.90711 29.85412,19.4111 38.9231,21.131 6.02371,1.14236 45.78555,21.13659 52.43451,26.36666 1.68869,1.32833 3.75974,2.41514 4.60234,2.41514 0.8426,0 3.43861,1.29381 5.76892,2.87514 2.33032,1.58133 6.93143,3.62951 10.22468,4.55152 3.29325,0.922 8.01122,3.28444 10.48437,5.24985 2.47316,1.96543 5.40368,3.57188 6.51226,3.5699 1.98399,-0.004 15.27995,4.9732 21.39063,8.00661 2.20258,1.09338 3.02704,2.41187 2.7931,4.46678 -0.18254,1.60351 0.55679,3.89746 1.64295,5.09766 1.8172,2.00798 1.71021,2.42755 -1.34016,5.25603 l -3.315,3.07383 4.13394,3.23529 c 2.27366,1.77942 3.71243,3.6568 3.19726,4.17196 -0.51516,0.51518 -6.63803,0.30394 -13.60634,-0.46939 -14.43354,-1.60184 -16.8412,-2.87772 -23.50575,-12.45618 -2.40625,-3.45832 -6.34375,-7.69009 -8.75,-9.40394 -6.20627,-4.42038 -21.72901,-10.22396 -40.625,-15.1887 -8.9375,-2.34823 -18.78125,-5.36963 -21.875,-6.71423 -3.09375,-1.34459 -7.66796,-2.82392 -10.16492,-3.28738 -2.49697,-0.46346 -6.71572,-2.40065 -9.375,-4.30485 -5.57943,-3.99517 -13.87732,-7.3035 -21.15414,-8.43402 -3.82226,-0.59384 -6.50424,-0.113 -10.90399,1.9552 -4.78901,2.2511 -7.01726,2.58471 -12.43094,1.86111 -3.62781,-0.48489 -7.43976,-1.59443 -8.47101,-2.46565 -1.03125,-0.87123 -4.82721,-2.32297 -8.43549,-3.22609 -6.45873,-1.61658 -6.61655,-1.58832 -10.17586,1.82171 -2.947,2.82342 -3.8652,5.1435 -4.96677,12.54997 -1.40518,9.44771 -5.16352,19.74472 -8.58805,23.52931 -1.66092,1.83555 -2.03448,6.45676 -2.27352,28.125 -0.15731,14.26071 0.18769,26.82537 0.76668,27.92149 2.2879,4.33133 1.78783,33.63881 -0.7715,45.21595 -4.7128,21.31827 -7.72083,27.98446 -17.72741,39.28638 -9.74012,11.00095 -14.35657,17.01867 -18.17325,23.68953 -1.90859,3.33586 -4.90254,8.03396 -6.65323,10.44021 -2.90392,3.99135 -3.15374,5.31002 -2.84874,15.03774 0.18387,5.86451 -0.0769,11.32796 -0.57931,12.141 -0.50249,0.81305 0.40681,3.60856 2.02069,6.21226 3.11502,5.02559 5.26835,10.21848 6.38325,15.3937 0.65806,3.05465 1.00426,3.15854 10.4141,3.125 5.35337,-0.0191 11.42091,0.6227 13.48341,1.4262 2.0625,0.80349 5.15625,1.76935 6.875,2.14635 1.71875,0.377 5.99129,3.20288 9.49453,6.27972 5.26012,4.61991 6.86497,7.0764 9.21402,14.10366 1.56446,4.68016 3.42008,9.22743 4.12358,10.10507 0.78517,0.97951 0.97177,5.23133 0.48325,11.0106 -0.63968,7.56741 -1.51287,10.45704 -4.44985,14.72579 -3.7329,5.42558 -10.81719,12.32557 -16.35958,15.93397 -2.76605,1.80085 -2.90378,2.24844 -1.29015,4.19273 0.99355,1.19716 3.06754,2.65611 4.60885,3.24211 1.70574,0.64852 4.0482,3.7891 5.98595,8.02545 2.6619,5.81951 3.82964,7.0892 7.12636,7.74854 5.22004,1.04401 13.55865,9.63552 13.57657,13.98833 0.008,1.80773 0.82836,5.97217 1.82425,9.2543 0.9959,3.28214 1.49761,6.78349 1.11491,7.78078 -0.79459,2.07065 1.79809,6.5637 10.88473,18.86302 8.16683,11.05429 9.78099,15.05112 10.05164,24.88892 0.23217,8.43879 -1.91195,13.75844 -6.1494,15.25693 -1.16306,0.41131 -3.03093,1.53163 -4.15082,2.4896 -1.79908,1.53898 -2.97765,0.82549 -10.12179,-6.12749 z M 70.052392,194.0625 c 6.810902,-2.00142 7.444291,-2.4869 7.445875,-5.70718 9.53e-4,-1.93582 0.616343,-4.66808 1.367534,-6.0717 0.824549,-1.54068 0.913183,-3.00463 0.223656,-3.69416 -1.091886,-1.09189 -19.205375,13.68965 -20.131123,16.42803 -0.608552,1.80011 2.682418,1.51681 11.094058,-0.95499 z"
       id="path3420"
       inkscape:connector-curvature="0" />
  </g>
  <path
     style="fill:#000000"
     d=""
     id="path3416"
     inkscape:connector-curvature="0" />
</svg>
