<?xml version="1.0" encoding="UTF-8" standalone="no"?>
<!-- Created with Inkscape (http://www.inkscape.org/) -->

<svg
   id="svg3406"
   version="1.1"
   inkscape:version="1.2.2 (732a01da63, 2022-12-09)"
   width="284.55701"
   height="511.99988"
   viewBox="0 0 284.55701 511.99988"
   sodipodi:docname="player_two.svg"
   xmlns:inkscape="http://www.inkscape.org/namespaces/inkscape"
   xmlns:sodipodi="http://sodipodi.sourceforge.net/DTD/sodipodi-0.dtd"
   xmlns:xlink="http://www.w3.org/1999/xlink"
   xmlns="http://www.w3.org/2000/svg"
   xmlns:svg="http://www.w3.org/2000/svg"
   xmlns:rdf="http://www.w3.org/1999/02/22-rdf-syntax-ns#"
   xmlns:cc="http://creativecommons.org/ns#"
   xmlns:dc="http://purl.org/dc/elements/1.1/">
  <title
     id="title3340">Silhouette Football 27</title>
  <metadata
     id="metadata3412">
    <rdf:RDF>
      <cc:Work
         rdf:about="">
        <dc:format>image/svg+xml</dc:format>
        <dc:type
           rdf:resource="http://purl.org/dc/dcmitype/StillImage" />
        <dc:title>Silhouette Football 27</dc:title>
        <cc:license
           rdf:resource="http://creativecommons.org/publicdomain/zero/1.0/" />
        <dc:date>2017-03-21</dc:date>
        <dc:creator>
          <cc:Agent>
            <dc:title>JLouis</dc:title>
          </cc:Agent>
        </dc:creator>
        <dc:rights>
          <cc:Agent>
            <dc:title>Domaine pubic</dc:title>
          </cc:Agent>
        </dc:rights>
        <dc:publisher>
          <cc:Agent>
            <dc:title>inkscape</dc:title>
          </cc:Agent>
        </dc:publisher>
        <dc:subject>
          <rdf:Bag>
            <rdf:li>silhouette</rdf:li>
            <rdf:li>soccer</rdf:li>
            <rdf:li>player</rdf:li>
            <rdf:li>sport</rdf:li>
            <rdf:li>football</rdf:li>
            <rdf:li>joueurs</rdf:li>
          </rdf:Bag>
        </dc:subject>
        <dc:description>Soccer player in silhouette - Joueur de football en silhouette</dc:description>
      </cc:Work>
      <cc:License
         rdf:about="http://creativecommons.org/publicdomain/zero/1.0/">
        <cc:permits
           rdf:resource="http://creativecommons.org/ns#Reproduction" />
        <cc:permits
           rdf:resource="http://creativecommons.org/ns#Distribution" />
        <cc:permits
           rdf:resource="http://creativecommons.org/ns#DerivativeWorks" />
      </cc:License>
    </rdf:RDF>
  </metadata>
  <defs
     id="defs3410">
    <linearGradient
       inkscape:collect="always"
       id="linearGradient23718">
      <stop
         style="stop-color:#000000;stop-opacity:1;"
         offset="0.21717171"
         id="stop23714" />
      <stop
         style="stop-color:#666666;stop-opacity:0;"
         offset="1"
         id="stop23716" />
    </linearGradient>
    <linearGradient
       inkscape:collect="always"
       xlink:href="#linearGradient23718"
       id="linearGradient23720"
       x1="0.76436879"
       y1="474.52483"
       x2="72.977193"
       y2="474.52483"
       gradientUnits="userSpaceOnUse" />
  </defs>
  <sodipodi:namedview
     pagecolor="#ffffff"
     bordercolor="#666666"
     borderopacity="1"
     objecttolerance="10"
     gridtolerance="10"
     guidetolerance="10"
     inkscape:pageopacity="0"
     inkscape:pageshadow="2"
     inkscape:window-width="1920"
     inkscape:window-height="991"
     id="namedview3408"
     showgrid="false"
     fit-margin-top="0"
     fit-margin-left="0"
     fit-margin-right="0"
     fit-margin-bottom="0"
     inkscape:zoom="0.8828125"
     inkscape:cx="-66.831858"
     inkscape:cy="274.69027"
     inkscape:window-x="-9"
     inkscape:window-y="-9"
     inkscape:window-maximized="1"
     inkscape:current-layer="svg3406"
     inkscape:showpageshadow="2"
     inkscape:pagecheckerboard="0"
     inkscape:deskcolor="#d1d1d1" />
  <path
     style="fill:#ff0000;stroke-width:0.819169"
     d="m 172.56636,491.78237 c 0.74052,-0.48385 1.14002,-4.77149 1.11958,-12.01586 -0.0233,-8.24867 0.54113,-13.42602 2.10859,-19.34241 l 2.14038,-8.07883 -2.10756,-5.74464 c -1.64153,-4.4744 -3.77745,-7.3618 -9.6597,-13.0583 -4.15368,-4.02252 -7.55215,-8.11145 -7.55215,-9.08653 0,-0.97508 -1.84959,-4.54265 -4.11019,-7.92795 -3.98958,-5.97441 -4.09117,-6.34092 -3.46151,-12.48684 0.81684,-7.97272 -0.13878,-9.91937 -10.30539,-20.99281 l -7.72193,-8.41072 v -5.92851 c 0,-3.26068 -0.70236,-7.91919 -1.5608,-10.35227 -2.83276,-8.02891 -2.01958,-32.19613 1.04378,-31.0206 0.75953,0.29145 2.33852,0.0174 3.50889,-0.60892 1.73324,-0.92761 2.13084,-2.12928 2.14361,-6.4786 0.009,-2.93687 0.46235,-6.03095 1.00828,-6.87571 0.65869,-1.01925 0.99788,-1.10636 1.00829,-0.25894 0.008,0.70234 1.56571,3.00626 3.46021,5.1198 2.4712,2.75694 3.65294,5.26144 4.18207,8.86323 0.41471,2.82292 2.93776,9.25166 5.76417,14.68707 2.76466,5.31667 8.04331,16.06409 11.73038,23.88317 6.25957,13.27461 6.76301,14.87955 7.59849,24.22345 0.76177,8.51939 1.61237,11.68123 5.7223,21.27048 6.07163,14.16636 10.70818,27.75751 10.70818,31.38904 0,1.53604 0.46078,3.07757 1.02396,3.42563 0.56318,0.34807 1.02396,1.69547 1.02396,2.99423 0,3.1635 3.71097,7.70679 7.59564,9.29927 3.62917,1.48772 9.26367,0.89848 12.66955,-1.32495 6.03961,-3.94279 10.59945,-18.69302 8.35521,-27.02752 -0.63805,-2.36951 -3.13238,-7.78929 -5.54297,-12.04393 -2.41059,-4.25466 -6.7953,-12.57395 -9.74381,-18.48732 -2.9485,-5.91337 -6.42282,-12.16492 -7.72071,-13.89235 -1.98779,-2.64563 -2.53676,-5.21153 -3.48238,-16.27685 -0.61742,-7.22488 -2.27312,-22.07677 -3.67934,-33.0042 -2.8502,-22.14838 -3.94786,-25.318 -11.32125,-32.69138 -3.17782,-3.17782 -4.52978,-5.37291 -4.51224,-7.32623 0.0433,-4.81783 2.0721,-11.92155 4.01347,-14.05251 5.4188,-5.94802 8.87225,-17.61136 11.36959,-38.39853 2.82604,-23.52329 2.91937,-22.69188 -3.802,-33.87025 -3.19068,-5.30645 -7.33773,-11.37736 -9.21565,-13.49089 -3.06582,-3.45049 -3.41441,-4.47181 -3.41441,-10.00397 0,-4.1404 -0.80582,-8.14431 -2.45689,-12.20762 -1.3513,-3.32555 -2.78091,-8.03941 -3.17693,-10.47525 -0.39601,-2.43584 -2.74628,-11.17228 -5.22282,-19.41433 -2.47652,-8.24204 -4.50277,-16.22581 -4.50277,-17.74172 0,-5.25281 7.05196,-19.5298 12.76457,-25.84245 l 5.41959,-5.988852 12.15511,-1.193365 c 6.68531,-0.656351 14.39523,-1.973296 17.13315,-2.926562 4.54713,-1.583159 5.26806,-1.594897 8.3284,-0.135524 1.84269,0.878714 4.95616,3.007595 6.91882,4.730839 1.96266,1.723228 9.50007,6.415484 16.74979,10.427214 9.57887,5.3006 15.07654,9.13991 20.11594,14.04802 9.60253,9.35236 11.77478,10.61216 16.19427,9.39188 1.95066,-0.5386 5.15156,-2.31886 7.1131,-3.95614 3.55374,-2.96628 3.56643,-3.0075 3.56643,-11.58558 v -8.60872 l -6.02997,-5.889616 c -5.36765,-5.242729 -6.36541,-5.815951 -9.08393,-5.218859 -1.76729,0.388164 -3.26763,1.487807 -3.5611,2.610028 -0.27892,1.066598 -0.8676,1.939267 -1.30817,1.939267 -0.44057,0 -5.80102,-5.000206 -11.91211,-11.111573 -10.13349,-10.133944 -12.23721,-11.702284 -23.91059,-17.825538 -10.94295,-5.740112 -14.19953,-6.950356 -22.45159,-8.343685 -5.30864,-0.896345 -13.31794,-1.629718 -17.79845,-1.629718 -6.55749,0 -8.84358,-0.430897 -11.721,-2.209237 -3.23495,-1.999312 -4.02604,-2.093541 -8.32535,-0.99166 -3.11529,0.798422 -11.88217,1.118333 -25.46628,0.929287 -22.59311,-0.314421 -22.65015,-0.332982 -18.45635,-6.005407 1.69488,-2.292432 2.3753,-4.886032 2.67547,-10.198146 0.37129,-6.571149 0.24394,-7.123859 -1.64152,-7.123859 -2.26213,0 -3.2673,-2.496224 -3.29859,-8.191687 C 121.70376,15.179956 115.01397,6.5783645 103.6438,2.3447466 97.179633,-0.06215042 86.281126,-0.78602442 83.031074,0.97565933 80.242337,2.4872869 72.117789,10.539163 70.071547,13.819273 c -3.09835,4.96661 -3.744822,20.596285 -1.27244,30.76386 1.095557,4.505428 2.346354,8.65247 2.779563,9.215648 0.433201,0.563179 1.096162,2.468299 1.47325,4.2336 0.679861,3.182734 0.60145,3.255159 -9.353407,8.63971 -5.521452,2.986539 -12.652471,6.743962 -15.846704,8.349828 -7.256115,3.64793 -17.567934,14.453265 -21.215815,22.231182 -2.618751,5.583649 -2.672546,6.140129 -2.732435,28.261359 -0.03359,12.41106 -0.447299,23.19046 -0.919329,23.95421 -1.27316,2.06001 -1.592316,42.88558 -0.372787,47.68464 1.383248,5.4433 7.41831,12.79951 10.50076,12.79951 3.170207,0 19.629887,-14.67005 24.669331,-21.98711 2.143953,-3.11291 4.167087,-5.65628 4.49586,-5.65196 0.328773,0.004 1.670244,1.88563 2.981053,4.18065 l 2.38329,4.17274 -1.712341,9.51014 c -1.677216,9.31505 -1.64911,22.8141 0.07397,35.52429 0.359598,2.65253 0.07135,7.40967 -0.651485,10.75159 -1.383879,6.39825 -1.320566,10.4075 0.193545,12.25592 1.295769,1.58187 5.010208,21.50895 6.085768,32.64863 0.489379,5.0686 2.279173,18.17864 3.977293,29.1334 2.814148,18.15418 3.368094,20.30847 6.256352,24.33029 7.514849,10.46424 15.201379,32.21672 15.300851,43.30061 0.03973,4.4289 3.38273,11.74281 9.88625,21.62953 5.59069,8.49904 9.70257,12.79252 24.78407,25.8787 5.77428,5.01033 11.1081,10.30933 11.85291,11.77555 2.41226,4.74875 2.78589,13.35909 1.04874,24.16903 -0.90502,5.63179 -1.89087,12.35801 -2.19078,14.94715 l -0.54528,4.70753 5.49106,0.65936 c 7.43339,0.89259 23.65006,0.82372 25.0737,-0.10649 z"
     id="path22923" />
  <path
     style="fill:#ff0000;stroke-width:0.819169"
     d="m 46.491784,510.58553 c 10.637593,-3.37305 18.520642,-10.05137 23.687483,-20.06743 2.586894,-5.01479 2.906837,-6.69752 2.920337,-15.35941 0.01302,-8.33937 -0.362056,-10.53171 -2.627983,-15.36183 C 62.853638,443.5582 44.077333,434.9083 26.98306,439.76245 0.26331637,447.34987 -8.8223787,479.17523 9.8354174,499.82717 c 8.9780486,9.93763 24.6962086,14.5508 36.6563666,10.75836 z"
     id="path3430" />
  <path
     style="fill:#ffff00;stroke-width:0.819169"
     d="m 172.61019,491.28607 c 0.44223,-0.70398 0.87358,-6.57895 0.95856,-13.0555 0.10768,-8.20697 0.76878,-13.97268 2.18149,-19.02564 1.86529,-6.67173 1.90309,-7.57023 0.47385,-11.26357 -1.64985,-4.26337 -8.06716,-13.74111 -9.30401,-13.74111 -1.89312,0 -8.30458,-7.14684 -8.30458,-9.2571 0,-1.27883 -1.08365,-3.75098 -2.40814,-5.49368 -4.86802,-6.40516 -5.95818,-9.60598 -5.23716,-15.37686 0.87873,-7.03312 -1.18911,-11.16119 -10.76328,-21.48694 -7.08477,-7.64093 -7.19044,-7.83729 -7.19044,-13.36103 0,-3.08337 -0.76854,-7.81094 -1.70785,-10.50572 -1.17202,-3.36234 -1.69426,-8.12519 -1.66451,-15.18026 0.0582,-13.82735 0.72277,-16.59831 3.98026,-16.59831 3.44324,0 3.5887,-0.24119 4.42539,-7.33721 0.40149,-3.40511 1.046,-6.50711 1.43221,-6.89333 0.38622,-0.38623 0.70222,-0.18068 0.70222,0.45676 0,0.63746 1.47779,2.84209 3.28395,4.8992 2.23484,2.54535 3.86656,6.03439 5.10767,10.92156 1.00305,3.94973 3.90271,10.78567 6.44369,15.19099 2.54098,4.4053 4.61995,8.28548 4.61995,8.62264 0,0.33713 1.89654,4.39045 4.21454,9.00735 6.47139,12.88949 8.7592,19.90601 9.41737,28.88216 0.33071,4.51014 1.24743,9.80914 2.03718,11.77555 0.78974,1.96642 1.80972,4.49687 2.26661,5.62323 0.45688,1.12636 0.9103,2.27831 1.00758,2.5599 0.97396,2.81928 2.00061,5.31973 3.78379,9.21565 3.28708,7.18167 6.9678,18.51505 6.9678,21.45469 0,1.46558 0.6749,3.62825 1.49979,4.80594 0.82489,1.17769 1.26842,2.37263 0.98562,2.65542 -0.28279,0.2828 0.043,1.73699 0.72395,3.23154 1.76592,3.87579 6.97011,6.76292 12.19045,6.76292 3.85306,0 4.93453,-0.55109 8.61081,-4.38787 7.89479,-8.23946 9.18669,-20.07118 3.42341,-31.35287 -1.89756,-3.7145 -6.37604,-12.51341 -9.95218,-19.55315 -3.57614,-7.03973 -7.78131,-14.64264 -9.34482,-16.89535 -2.63121,-3.79106 -3.00158,-5.61983 -4.97711,-24.57506 -4.87199,-46.74681 -5.63299,-49.88841 -14.05138,-58.00748 l -4.61835,-4.45414 0.55864,-6.50677 c 0.44697,-5.20603 1.29477,-7.6158 4.24102,-12.05451 6.41417,-9.66335 9.28211,-21.19722 11.8328,-47.58756 1.24198,-12.84998 1.237,-12.91996 -1.21773,-17.07408 -1.35565,-2.29418 -4.17433,-7.09722 -6.26374,-10.67342 -2.08939,-3.57621 -5.19967,-7.84423 -6.91173,-9.48448 -2.76153,-2.64571 -3.11283,-3.64713 -3.11283,-8.87344 0,-3.66997 -0.94537,-8.52017 -2.50734,-12.86393 -1.37904,-3.83502 -3.17444,-9.96785 -3.98975,-13.62851 -0.81533,-3.66066 -3.129,-11.95474 -5.1415,-18.43129 -2.01251,-6.47655 -3.67298,-13.35672 -3.68996,-15.28925 -0.0567,-6.45812 6.05349,-19.33636 12.4119,-26.16003 l 5.78702,-6.210457 11.3785,-1.209323 c 6.25817,-0.665124 13.84603,-1.987123 16.8619,-2.937801 6.8111,-2.147008 8.9864,-1.605046 15.68171,3.907017 2.92714,2.409831 10.75044,7.345834 17.38512,10.968894 8.94225,4.88318 14.25668,8.65366 20.54223,14.57427 10.7555,10.13103 13.55957,10.9215 21.45328,6.0478 3.51529,-2.1704 5.42272,-6.90628 5.43292,-13.48919 0.007,-4.4273 -1.83904,-10.13641 -3.27737,-10.13641 -0.56915,0 -2.96761,-2.10508 -5.32992,-4.67795 -3.76656,-4.102306 -4.65138,-4.588532 -7.19036,-3.951293 -1.5924,0.399665 -3.11925,1.583175 -3.39301,2.630032 -0.27375,1.046856 -0.92655,1.903371 -1.45065,1.903371 -0.5241,0 -5.88455,-4.955627 -11.91211,-11.012487 -9.78383,-9.831384 -12.27484,-11.715906 -23.22608,-17.571136 -14.09077,-7.533815 -20.8945,-9.304767 -37.39523,-9.733646 -8.70146,-0.226165 -11.59471,-0.710624 -15.17317,-2.540662 -3.76133,-1.923561 -4.93056,-2.093231 -7.83019,-1.136266 -2.17102,0.716503 -11.24809,1.01581 -25.00034,0.824363 -21.80402,-0.303538 -24.75387,-0.863342 -20.99364,-3.984057 2.51161,-2.084448 4.4878,-7.999551 4.4878,-13.432793 0,-4.238691 -0.34459,-5.180731 -2.05912,-5.629089 -2.16037,-0.564948 -2.55644,-1.67621 -3.57181,-10.021391 -0.34261,-2.815893 -1.09223,-6.609935 -1.66581,-8.431206 C 117.15686,7.9915076 102.25564,0.04083465 90.278571,0.04083465 c -6.086071,0 -6.563687,0.19295027 -11.753834,4.74839175 -8.488521,7.4504676 -10.454231,11.4537166 -10.599486,21.5863166 -0.06693,4.675478 -0.348712,8.727726 -0.625976,9.004993 -0.558419,0.55842 3.184666,15.081929 5.53396,21.472258 l 1.499201,4.077974 -8.800517,4.969899 c -4.840296,2.733445 -11.622776,6.318663 -15.072205,7.96715 -4.522065,2.161106 -8.521222,5.350097 -14.335452,11.431343 -11.650865,12.185905 -12.150918,13.896673 -12.192639,41.71282 -0.0181,12.10834 -0.41907,22.63663 -0.890886,23.39622 -1.205694,1.94102 -1.602049,40.68154 -0.471334,46.06787 1.0106,4.81413 6.156078,12.03834 9.280707,13.03006 1.084358,0.34418 3.164211,-0.17342 4.708188,-1.1717 4.70818,-3.04408 18.697575,-17.06496 22.253865,-22.30394 l 3.379841,-4.97904 2.806939,4.44649 2.806947,4.44648 -1.834561,11.29092 c -1.804031,11.10301 -1.788131,16.1883 0.112005,35.82733 0.342961,3.54473 0.05325,8.36434 -0.688651,11.45698 -1.138685,4.74657 -1.046701,6.11141 0.829818,12.31264 2.567422,8.48437 5.348942,23.33249 5.369192,28.6614 0.0082,2.15157 1.616802,14.04915 3.57473,26.43908 1.957928,12.38993 3.563982,23.08516 3.568995,23.7672 0.0049,0.68204 0.888061,2.06438 1.962302,3.07188 3.053927,2.86419 11.945528,21.58677 13.7915,29.04005 0.916633,3.70096 2.124661,10.34178 2.684498,14.75738 1.138448,8.97915 3.614962,14.15634 13.178052,27.54892 3.85369,5.39689 8.31555,10.02748 13.44706,13.95556 4.22384,3.23328 10.74334,9.06681 14.48778,12.96339 6.62289,6.89198 6.82747,7.26567 7.52066,13.73877 0.48731,4.55029 0.14604,10.20025 -1.07938,17.87025 -0.98559,6.16891 -1.8356,12.82577 -1.88888,14.79304 -0.0941,3.47269 0.0373,3.59719 4.51092,4.27592 8.24599,1.25106 24.37493,0.97708 25.25826,-0.42906 z"
     id="path22927" />
  <path
     style="fill:#ffff00;stroke-width:0.819169"
     d="m 48.626586,509.59815 c 10.579065,-3.93304 17.052062,-9.88183 21.824744,-20.05729 2.267672,-4.83474 2.656629,-7.04784 2.617645,-14.89415 -0.05587,-11.24838 -2.133369,-16.49791 -9.691626,-24.48966 -7.553587,-7.9868 -15.320978,-11.28352 -26.613194,-11.29544 -10.361493,-0.011 -17.446327,2.74045 -25.010457,9.71283 -20.7057593,19.0859 -12.43935581,53.20023 14.88124,61.4129 8.650323,2.60033 14.215427,2.50185 21.991648,-0.38919 z"
     id="path3428" />
  <path
     style="fill:#008000;stroke-width:0.819169"
     d="m 171.6247,491.60282 c 2.13796,-0.93229 2.22756,-1.43481 1.69077,-9.48227 -0.3999,-5.99505 -0.0652,-10.75962 1.13612,-16.17751 3.03464,-13.68511 3.05,-14.69712 0.31317,-20.63426 -1.38854,-3.0122 -4.50668,-7.31987 -6.92922,-9.57259 -2.42254,-2.25271 -5.48809,-5.11166 -6.81233,-6.35322 -1.32424,-1.24154 -2.40771,-3.14816 -2.40771,-4.23692 0,-1.08876 -1.72793,-4.45038 -3.83985,-7.47027 -3.60149,-5.14984 -3.84091,-5.96741 -3.85679,-13.17039 -0.0206,-9.3701 -1.07473,-11.52597 -10.723,-21.93165 -6.82951,-7.36563 -7.17938,-7.98391 -7.17938,-12.68705 0,-2.71924 -0.78056,-7.44681 -1.73459,-10.50572 -1.8714,-6.00035 -2.45156,-22.17705 -1.03491,-28.85676 0.7085,-3.34064 1.19108,-3.83985 3.71186,-3.83985 2.42602,0 3.00162,-0.52067 3.53747,-3.19988 0.35199,-1.75993 0.66049,-5.33099 0.68558,-7.9357 0.0454,-4.71275 0.0541,-4.72424 1.79194,-2.35915 0.96047,1.30717 2.94742,3.84147 4.41544,5.63178 1.46801,1.79032 3.25966,5.74826 3.98144,8.79542 0.72178,3.04716 5.58835,14.10594 10.8146,24.57506 12.26719,24.57341 13.34302,27.48819 14.14539,38.32482 0.45232,6.10889 1.44482,10.76816 3.05368,14.33545 6.45922,14.32184 12.94995,32.46846 12.94995,36.20519 0,1.37125 0.54769,3.49965 1.21709,4.72977 0.6694,1.23013 1.28913,3.11848 1.37717,4.19632 0.0881,1.07784 1.89605,3.55059 4.01778,5.49501 3.54484,3.24861 4.26626,3.49604 8.89584,3.0512 5.74578,-0.55209 9.04439,-3.0578 12.48242,-9.48197 1.74716,-3.26467 2.19177,-5.86207 2.19098,-12.79951 l -9.8e-4,-8.70366 -7.26451,-13.3115 c -3.99549,-7.32132 -8.23021,-15.51008 -9.41049,-18.19722 -1.18028,-2.68716 -3.52079,-6.8342 -5.20114,-9.21565 -2.73733,-3.87947 -3.17587,-5.60819 -4.21552,-16.61744 -0.6382,-6.75815 -2.01825,-18.73849 -3.06679,-26.62299 -1.04853,-7.8845 -2.21473,-17.09212 -2.59154,-20.46139 -0.86374,-7.72317 -4.22202,-14.40779 -9.74524,-19.39768 l -4.3063,-3.89048 0.51207,-6.37932 c 0.41222,-5.13543 1.34048,-7.75284 4.76052,-13.42333 2.33664,-3.87421 4.72097,-8.89999 5.29852,-11.1684 0.57754,-2.26842 1.48204,-5.27634 2.00999,-6.68429 1.52911,-4.07786 5.23072,-37.95582 4.52449,-41.40921 -0.3524,-1.7232 -2.14282,-5.43956 -3.9787,-8.25858 -1.83587,-2.81902 -4.12527,-6.648 -5.08755,-8.50884 -0.96229,-1.86085 -3.41725,-5.22923 -5.45547,-7.4853 -3.2942,-3.64629 -3.68081,-4.65084 -3.48038,-9.04335 0.14889,-3.26316 -0.70235,-7.50044 -2.5064,-12.47625 -1.50253,-4.14417 -3.06774,-9.60837 -3.47825,-12.14267 -0.41049,-2.53431 -2.45836,-10.13722 -4.55081,-16.89536 -6.05395,-19.5529 -6.06947,-19.79438 -1.89803,-29.52606 3.85209,-8.98667 8.04249,-15.11174 13.45346,-19.664766 3.04374,-2.561139 4.50917,-2.943404 14.17587,-3.69785 5.92966,-0.462782 13.20029,-1.603974 16.15695,-2.535983 6.65688,-2.098399 9.39118,-1.461553 15.15934,3.530748 2.47901,2.145567 10.45269,7.185731 17.71929,11.200351 9.09097,5.02255 15.09911,9.15381 19.2621,13.24485 11.39083,11.19395 13.86191,12.21111 20.86966,8.59059 4.7012,-2.42886 5.91266,-4.3812 6.82221,-10.99442 0.77567,-5.63979 -0.81798,-13.6658 -2.71349,-13.6658 -0.63104,0 -3.03238,-2.03857 -5.33633,-4.530172 -3.57687,-3.868196 -4.62,-4.44553 -7.13864,-3.950908 -1.69067,0.332034 -3.16206,1.391514 -3.4473,2.482262 -0.2737,1.046635 -0.96246,1.902978 -1.53057,1.902978 -0.56811,0 -5.75861,-4.765924 -11.53443,-10.590942 -9.21501,-9.29351 -12.0296,-11.426527 -22.97545,-17.411792 -14.48406,-7.91998 -22.22329,-9.976888 -38.96748,-10.356661 -9.03465,-0.204914 -11.36101,-0.609353 -14.56782,-2.532615 -3.33689,-2.001279 -4.26323,-2.141237 -7.37496,-1.114274 -5.18145,1.71003 -46.4065,1.144232 -47.09361,-0.646341 -0.27693,-0.72166 -0.0562,-1.588519 0.49036,-1.926356 2.63357,-1.627629 5.15403,-8.947714 4.8559,-14.1028 -0.26069,-4.507566 -0.63554,-5.362618 -2.46549,-5.62387 -1.90515,-0.271988 -2.2338,-1.204128 -2.80437,-7.953908 C 120.59792,16.613059 118.02136,11.330085 112.28787,7.4015406 105.53178,2.7723118 95.255349,-0.30807552 88.450539,0.25623179 83.260024,0.68666972 82.274629,1.1871286 77.611593,5.7610693 c -8.51362,8.3509537 -9.47607,10.5564047 -9.765875,22.3782397 -0.250019,10.199002 1.167594,18.893132 4.183863,25.659472 0.75316,1.689536 1.642392,3.993448 1.976089,5.119805 0.655024,2.210928 0.502232,2.311514 -19.83418,13.058507 -15.360052,8.117176 -26.523577,20.116384 -29.291122,31.483787 -0.479885,1.97113 -0.936809,11.64756 -1.015368,21.50318 -0.07856,9.85563 -0.490698,29.60782 -0.915871,43.89373 -0.878411,29.51526 -0.592259,31.4418 5.563089,37.45234 3.572289,3.48824 4.393579,3.85919 6.429664,2.90407 3.788557,-1.77719 18.226381,-15.67364 22.956547,-22.09576 l 4.374353,-5.93903 2.605096,4.12675 c 3.066124,4.85703 3.121639,5.8728 0.950997,17.39914 -1.247462,6.62418 -1.46464,11.17485 -0.88344,18.51109 1.021896,12.89908 1.029711,25.10916 0.0195,30.45304 -0.553881,2.9299 -0.431071,4.81168 0.377637,5.7861 1.383207,1.66663 6.236298,25.94741 6.236298,31.20104 0,3.67193 5.308451,39.64977 7.235054,49.03537 0.60693,2.95668 1.48725,5.37579 1.95629,5.37579 1.117895,0 6.085309,8.87737 10.113981,18.07492 3.381618,7.72027 6.037044,18.55246 6.828729,27.85615 0.528372,6.20937 2.485826,10.06141 12.302666,24.21025 4.54913,6.55658 8.27289,10.59156 12.90557,13.98419 3.58132,2.62269 10.0398,8.4008 14.35218,12.84027 6.99667,7.20286 7.92266,8.61844 8.60229,13.15055 0.77997,5.20125 -0.79192,22.43272 -2.86604,31.41834 -0.71917,3.11561 -0.78127,5.29747 -0.16825,5.9105 1.36457,1.36456 26.01321,2.29792 28.7834,1.08992 z"
     id="path22931" />
  <path
     style="fill:#008000;stroke-width:0.819169"
     d="m 47.246279,509.98109 c 11.799519,-4.489 17.859393,-9.80754 22.921872,-20.11771 2.544404,-5.18189 2.946616,-7.18907 2.946616,-14.70469 0,-10.2745 -2.756577,-17.40574 -9.59657,-24.82626 -17.267282,-18.73279 -48.270417,-14.05309 -59.6189594,8.99907 -2.8474304,5.78396 -3.26260147,7.68259 -3.29368893,15.06253 -0.0462011,10.96943 2.70600913,18.328 9.44118133,25.24276 10.427526,10.70554 25.345768,14.85395 37.199549,10.3443 z"
     id="path3426" />
  <path
     style="fill:#0000ff;stroke-width:0.819169"
     d="m 171.03033,491.50566 c 2.38545,-0.56934 2.4254,-0.77149 2.06106,-10.42912 -0.2906,-7.7029 0.13844,-11.96394 1.96931,-19.55852 2.30062,-9.5431 2.30914,-9.79534 0.49517,-14.67403 -1.31369,-3.53319 -4.02115,-7.08845 -9.39304,-12.33429 -4.15102,-4.05363 -7.54843,-8.20067 -7.54976,-9.21565 -8.2e-4,-1.01496 -1.89085,-4.61008 -4.1989,-7.98915 -4.03414,-5.90612 -4.17481,-6.38142 -3.63674,-12.28753 0.72593,-7.96816 -1.21601,-12.09711 -10.45778,-22.23542 -6.97858,-7.65557 -6.97988,-7.6581 -7.5895,-14.9297 -0.33535,-4.00006 -1.20228,-8.33307 -1.92651,-9.62891 -1.47184,-2.63353 -1.90582,-23.99485 -0.58355,-28.72309 0.62447,-2.23295 1.39447,-2.81589 3.71955,-2.81589 2.90219,0 2.93942,-0.0782 3.65172,-7.67971 0.71442,-7.62391 1.83787,-9.62361 3.12617,-5.5645 0.36924,1.16335 1.99406,3.62168 3.61069,5.46293 1.61665,1.84126 3.4075,5.43669 3.97967,7.98983 1.44638,6.45399 2.7004,9.53235 7.00627,17.19878 3.77547,6.72206 10.65754,21.22353 15.1563,31.93635 1.53786,3.6621 2.77833,9.36585 3.34038,15.35942 0.51526,5.49436 1.76181,11.48646 2.94198,14.14189 5.87284,13.21418 9.59202,22.90552 11.60543,30.24107 1.23145,4.4866 2.64602,8.95757 3.14348,9.9355 0.49746,0.97792 0.90448,2.88851 0.90448,4.24576 0,1.55903 1.38075,3.68003 3.74972,5.76001 3.37667,2.96476 4.2459,3.24463 8.73708,2.81308 8.6468,-0.83084 13.85286,-8.23955 14.83894,-21.11714 l 0.52415,-6.8451 -10.48102,-20.45229 c -5.76456,-11.24876 -11.57349,-21.92365 -12.90872,-23.72198 -2.14977,-2.89537 -2.66174,-5.61251 -4.47209,-23.73432 -1.12443,-11.25555 -2.25992,-21.07335 -2.52333,-21.81735 -0.2634,-0.744 -0.95746,-6.19094 -1.54235,-12.10431 -1.25218,-12.65993 -4.01944,-19.32921 -10.41924,-25.11104 l -4.19626,-3.79108 0.51207,-6.37932 c 0.41283,-5.14292 1.33944,-7.75009 4.78097,-13.45188 2.34788,-3.88991 4.51298,-8.2245 4.81132,-9.63245 0.29834,-1.40795 1.1988,-4.71356 2.00101,-7.3458 0.80222,-2.63224 1.93203,-9.54398 2.51071,-15.35941 0.57867,-5.81544 1.51635,-13.46736 2.08373,-17.00426 1.18306,-7.37494 0.22249,-12.35014 -3.42661,-17.74787 -1.28962,-1.90758 -3.79181,-6.00264 -5.56042,-9.10012 -1.76861,-3.09748 -4.62938,-6.98514 -6.35727,-8.63925 -2.90193,-2.77803 -3.14161,-3.53745 -3.14161,-9.95443 0,-5.18387 -0.64968,-8.416 -2.5599,-12.73534 -1.40795,-3.18362 -2.5599,-7.07583 -2.5599,-8.64936 0,-1.57354 -1.64168,-8.08235 -3.64817,-14.46403 -2.00648,-6.38168 -4.32506,-14.50277 -5.15237,-18.04685 l -1.50423,-6.4438 4.05975,-9.1462 c 4.51928,-10.18147 8.77264,-16.061092 14.31491,-19.788178 3.05961,-2.057539 5.40159,-2.589597 13.43329,-3.051846 5.53313,-0.318444 12.34768,-1.438993 15.80391,-2.598706 5.94664,-1.995372 6.1557,-1.998354 9.79878,-0.139791 2.04737,1.044489 5.61599,3.481041 7.93027,5.414566 2.31427,1.933516 9.51179,6.394705 15.99448,9.913755 8.78496,4.7688 14.15092,8.58616 21.07004,14.98929 5.28552,4.89135 10.17686,8.59103 11.35821,8.59103 3.24989,0 8.42816,-2.55126 11.13376,-5.48547 2.12709,-2.3068 2.4781,-3.72338 2.53526,-10.23174 l 0.0664,-7.55425 -6.48168,-6.381828 c -4.69938,-4.626985 -6.79025,-6.073243 -7.60387,-5.259629 -0.61721,0.617219 -1.91956,1.122204 -2.89411,1.122204 -1.05343,0 -1.91078,0.934197 -2.11438,2.303912 -0.29574,1.989548 -1.90688,0.755331 -11.8078,-9.045384 -10.22326,-10.119789 -12.83153,-12.085114 -24.07653,-18.141572 -14.70482,-7.919894 -22.36089,-9.950536 -38.81004,-10.293705 -7.55122,-0.157537 -11.42718,-0.667465 -12.62414,-1.66085 -1.3985,-1.16066 -6.97426,-1.399732 -29.29361,-1.256027 -26.87643,0.173045 -27.56633,0.126605 -27.56633,-1.855642 0,-1.11822 0.48669,-2.033128 1.08154,-2.033128 2.07578,0 5.18762,-9.022796 4.86165,-14.096409 -0.27872,-4.338195 -0.55319,-4.821269 -2.61532,-4.60295 -1.95855,0.207355 -2.30971,-0.253123 -2.34258,-3.071883 C 121.64798,25.839143 120.70576,20.18156 119.0786,15.691034 115.85114,6.7842487 99.001104,-1.1122928 87.031853,0.67278317 81.723566,1.4644516 73.774779,8.2149997 70.293083,14.888268 c -3.875332,7.427721 -2.880541,29.463098 1.7335,38.398533 0.727037,1.407946 1.614696,3.791346 1.972591,5.296445 0.619013,2.603217 0.114454,3.025051 -10.356455,8.658344 -6.053944,3.256994 -13.158995,7.001791 -15.78901,8.321775 -7.125916,3.576458 -18.520913,16.066192 -21.369924,23.42299 -2.093321,5.405405 -2.348442,7.968975 -2.534443,25.465725 -0.11375,10.70039 -0.543617,31.27917 -0.955257,45.7306 -0.83905,29.45611 -0.634831,30.6561 6.24535,36.69698 3.292927,2.89122 3.684064,2.99259 6.286047,1.62912 4.609217,-2.4153 18.023276,-15.42122 22.280635,-21.60273 l 3.994906,-5.80042 2.350842,2.90403 c 3.417662,4.22192 3.808741,6.95238 2.238092,15.62613 -1.581061,8.7312 -1.760558,21.82563 -0.482343,35.18496 0.626811,6.55109 0.491468,10.53609 -0.497924,14.66035 -1.183403,4.93297 -1.152914,6.01827 0.236347,8.41079 1.618595,2.78747 4.85799,20.37518 7.0126,38.07364 0.651329,5.3502 2.44494,17.61114 3.985797,27.24654 2.332951,14.58862 3.23819,18.0997 5.412034,20.99119 7.507911,9.98658 16.14534,34.46198 16.14534,45.75017 0,7.01724 12.980252,27.27765 22.239092,34.71219 10.3523,8.31256 23.79092,22.15725 24.96731,25.72174 1.42264,4.31066 0.44752,22.20193 -1.72199,31.59453 -1.99523,8.63813 -1.48252,9.53084 5.5672,9.69344 16.72251,0.38567 19.54223,0.3637 21.77691,-0.16967 z"
     id="path22935" />
  <path
     style="fill:#0000ff;stroke-width:0.819169"
     d="m 47.803019,509.5256 c 11.828059,-4.39383 17.210693,-9.33493 22.426251,-20.58664 2.332402,-5.03181 2.832865,-7.53944 2.856654,-14.31379 0.02548,-7.24801 -0.36666,-9.01661 -3.336663,-15.04952 C 58.556427,436.83977 28.92906,431.76171 11.12134,449.52697 c -15.8894971,15.85161 -13.6715732,42.2779 4.600132,54.80986 6.149254,4.21757 15.862563,7.64508 21.554664,7.60592 2.252714,-0.0155 6.989811,-1.10321 10.526883,-2.41715 z"
     id="path3424" />
  <path
     style="fill:#ffc0cb;stroke-width:0.819169"
     d="m 173.0724,490.26211 c 0.0668,-0.70398 0.0245,-5.69939 -0.0941,-11.10092 -0.16284,-7.4178 0.33274,-11.85312 2.02525,-18.12567 2.18657,-8.10353 2.19737,-8.43611 0.44584,-13.73013 -1.40611,-4.24995 -3.42419,-7.03113 -9.31443,-12.8365 -4.13568,-4.07609 -7.51942,-8.1401 -7.51942,-9.03116 0,-0.89105 -1.31755,-3.54623 -2.92788,-5.90042 -5.53441,-8.09085 -6.24598,-10.1532 -5.16428,-14.96753 0.54323,-2.41769 0.68635,-5.37955 0.31805,-6.58193 -0.99046,-3.23364 -8.82943,-13.8836 -13.63274,-18.52133 -3.54182,-3.41974 -4.19405,-4.69054 -4.20426,-8.19169 -0.007,-2.27921 -0.92282,-7.83028 -2.03587,-12.3357 -2.03983,-8.25682 -2.4397,-17.19821 -1.19025,-26.61521 0.62106,-4.68084 0.93737,-5.15651 3.75015,-5.63939 2.97993,-0.51157 3.09778,-0.74934 3.93691,-7.94347 0.47575,-4.07886 1.28213,-7.41612 1.79193,-7.41612 0.50979,0 0.9269,0.42549 0.9269,0.94553 0,0.52005 1.67294,3.13719 3.71763,5.81588 2.40144,3.14606 4.22516,7.07093 5.1512,11.08602 0.78846,3.4186 3.4556,9.71182 5.92696,13.98491 2.47136,4.27309 5.73082,10.72404 7.24324,14.33545 1.51241,3.61141 3.15875,7.06964 3.65851,7.68497 3.02496,3.7244 7.08687,16.64498 7.64813,24.32797 0.71577,9.79821 0.81419,10.11457 9.44491,30.35913 2.28091,5.35019 4.93727,12.9531 5.90302,16.89535 0.96574,3.94225 2.09317,8.08929 2.50539,9.21565 0.41222,1.12636 1.1627,3.41602 1.66775,5.08813 1.05275,3.48554 6.69233,7.71138 10.29117,7.71138 4.38501,0 9.35685,-2.83354 11.98613,-6.83113 2.89066,-4.39499 5.21616,-16.24815 4.14478,-21.12611 -0.80449,-3.66284 -19.19161,-39.78644 -22.60498,-44.41005 -1.85546,-2.51337 -2.65222,-5.53036 -3.5154,-13.3115 -0.61388,-5.53385 -1.7972,-15.82133 -2.6296,-22.86106 -0.8324,-7.03973 -1.9996,-17.17695 -2.59378,-22.52714 -1.30662,-11.76522 -3.68251,-17.23507 -10.42365,-23.99772 l -5.03839,-5.05444 1.20502,-6.5399 c 0.80253,-4.35551 2.42929,-8.38378 4.87038,-12.06033 4.82919,-7.27328 7.33526,-16.21462 9.60362,-34.26448 3.05375,-24.29945 2.93902,-25.54765 -3.29161,-35.80823 -2.91701,-4.80374 -7.06404,-10.87154 -9.21565,-13.484 -3.70181,-4.49473 -3.91199,-5.13197 -3.91199,-11.86088 0,-3.91102 -0.32837,-7.43932 -0.72971,-7.84066 -1.21406,-1.21406 -4.38836,-10.21902 -4.38926,-12.45155 -4.6e-4,-1.1486 -1.87011,-8.29072 -4.1548,-15.87139 -7.00168,-23.23186 -6.92316,-21.86951 -1.91818,-33.28165 3.29214,-7.50661 5.68588,-11.26348 10.05994,-15.788606 l 5.73984,-5.938097 10.92584,-0.661569 c 6.52413,-0.395044 13.26409,-1.466041 16.72979,-2.658415 5.14929,-1.771616 6.18524,-1.837535 9.1843,-0.584444 1.8592,0.776817 5.15918,2.991325 7.33329,4.921131 2.17412,1.929798 9.94311,6.87068 17.26443,10.97973 7.32132,4.10905 13.54188,7.78561 13.82347,8.17014 2.47208,3.3758 16.94952,15.42695 18.53291,15.42695 3.16206,0 9.92869,-3.84845 11.80699,-6.71511 1.14089,-1.74121 1.71994,-4.88552 1.76286,-9.5725 l 0.0639,-6.97957 -6.53278,-6.313448 c -4.46998,-4.319903 -6.86485,-5.981365 -7.58446,-5.261766 -0.57842,0.578423 -1.93483,1.051681 -3.01423,1.051681 -1.45843,0 -1.82499,0.526046 -1.42702,2.047922 0.99943,3.821801 -1.57755,2.06886 -11.95535,-8.132404 -12.76429,-12.547166 -12.96639,-12.698753 -26.47834,-19.859802 -12.8414,-6.805676 -21.44409,-8.86994 -36.96606,-8.870211 -8.68096,-1.5e-4 -10.51195,-0.306654 -13.17968,-2.20625 -2.94445,-2.096636 -3.49885,-2.144735 -11.17544,-0.969583 -4.44251,0.680071 -8.46868,0.994606 -8.94703,0.698967 -0.95124,-0.587895 -31.50524,-0.967519 -33.87545,-0.420894 -2.39745,0.55291 -2.45235,-3.24879 -0.0834,-5.770506 2.69038,-2.863764 4.94248,-15.7955 2.96381,-17.018382 -0.66479,-0.41087 -1.78408,-0.526252 -2.48729,-0.256404 -0.91985,0.352976 -1.48543,-1.75646 -2.01586,-7.518454 -0.40553,-4.404997 -1.63146,-9.926623 -2.72431,-12.270281 C 114.83082,6.8976585 102.83411,1.0661914 90.38281,1.0653116 L 83.075858,1.0647955 77.369087,6.4405902 C 70.219153,13.175863 68.470826,17.3356 68.068925,28.568215 c -0.334368,9.345363 1.144067,17.723847 4.57595,25.932369 1.103216,2.638707 2.005833,5.230805 2.005833,5.76022 0,0.859432 -13.483451,8.641549 -26.972719,15.567586 -6.213157,3.190138 -17.616682,15.114622 -20.185677,21.10784 -3.093812,7.21758 -4.177727,16.19259 -3.199435,26.49189 0.583543,6.14341 0.456645,13.14129 -0.380635,20.9912 -1.749802,16.4052 -1.784354,50.54672 -0.05538,54.67229 2.137875,5.1012 6.66216,9.83725 9.397381,9.83725 3.236765,0 19.297648,-14.39397 24.517391,-21.97281 2.14936,-3.12078 4.176925,-5.67332 4.505699,-5.6723 0.328773,8.2e-4 1.825214,1.95933 3.325431,4.35183 l 2.727668,4.35 -1.518853,8.19169 c -1.173295,6.32798 -1.376851,12.67624 -0.89468,27.9031 0.431981,13.64216 0.259939,20.92714 -0.558779,23.65977 -0.966718,3.22661 -0.894549,4.58365 0.394798,7.42356 2.014254,4.43661 6.476741,28.62805 7.25206,39.31381 0.326889,4.50543 1.97862,16.45158 3.670515,26.547 2.301601,13.73342 3.574467,18.89011 5.055065,20.47922 2.915462,3.12914 11.155669,20.20404 12.753662,26.42744 1.308458,5.09577 3.026214,14.17857 4.234283,22.38911 0.749564,5.09432 11.106437,21.52256 17.940977,28.45829 3.11202,3.15808 10.31702,9.77421 16.01113,14.7025 5.6941,4.92829 11.06904,10.46967 11.94432,12.31419 2.50362,5.27598 1.79621,26.34348 -1.21818,36.27861 -0.54791,1.80588 -0.74998,4.22498 -0.44904,5.3758 0.51911,1.98487 1.30404,2.09239 15.27524,2.09239 11.03499,0 14.75846,-0.32094 14.84945,-1.27995 z"
     id="path22939" />
  <path
     style="fill:#ffc0cb;stroke-width:0.819169"
     d="m 47.55223,509.58328 c 23.485952,-8.50966 32.765938,-33.87795 19.790019,-54.09917 -3.736106,-5.82221 -7.524679,-9.1657 -14.596686,-12.88188 -4.655704,-2.44647 -6.353882,-2.74936 -15.469427,-2.75918 -8.949713,-0.009 -10.968137,0.33055 -16.022899,2.70039 -17.9072167,8.39553 -25.9036304,31.02356 -17.0772596,48.32469 4.5494746,8.91772 17.4924226,19.10523 24.2726566,19.10523 1.127988,0 2.335672,0.46078 2.683736,1.02396 1.060136,1.71534 9.879134,0.95588 16.41986,-1.41404 z"
     id="path3422" />
  <path
     style="fill:#f20505;stroke-width:0.819169;fill-opacity:1"
     d="m 173.25395,490.1815 c 0.28716,-0.74832 0.0968,-3.62821 -0.42308,-6.39976 -1.09128,-5.81819 -0.59766,-10.74884 2.31586,-23.13233 l 2.08865,-8.87751 -2.79288,-6.22334 c -1.80721,-4.02702 -4.46043,-7.68966 -7.518,-10.37821 -7.9906,-7.02623 -8.2844,-7.3734 -9.27443,-10.959 -0.52891,-1.91558 -2.0745,-4.94434 -3.43464,-6.7306 -3.42327,-4.49573 -4.2372,-7.44315 -3.904,-14.13714 0.36293,-7.29089 -1.08628,-10.14971 -10.04084,-19.80721 -6.86919,-7.40842 -6.94521,-7.55387 -7.58125,-14.50443 -0.35338,-3.86153 -1.32567,-8.86409 -2.16065,-11.11681 -1.59393,-4.30025 -2.04941,-16.65705 -0.95103,-25.80029 0.6063,-5.04694 0.80367,-5.33708 3.83095,-5.63178 3.14889,-0.30654 3.20225,-0.40598 3.97555,-7.40895 0.78438,-7.10337 1.63808,-9.43609 2.53327,-6.92216 0.26224,0.73645 2.20283,3.33327 4.3124,5.77069 2.72402,3.14735 4.01708,5.75561 4.46175,8.99992 0.37921,2.76668 4.44468,12.20154 10.3089,23.92417 12.56779,25.12314 13.75866,28.3051 14.81719,39.59101 0.52436,5.5906 1.74169,11.34446 2.97625,14.06762 5.53558,12.2102 13.51187,34.38201 13.54256,37.64445 0.012,1.27479 0.42839,3.11792 0.92532,4.09584 0.49694,0.97793 1.30939,3.14614 1.80545,4.81824 0.49717,1.67586 2.49158,4.11147 4.44415,5.42731 2.85987,1.92726 4.33663,2.2596 7.66619,1.7252 6.06156,-0.97286 8.62349,-3.05291 11.50065,-9.33745 1.93102,-4.2179 2.60322,-7.46554 2.6843,-12.96876 0.10627,-7.21351 -0.0166,-7.57427 -7.0344,-20.65325 -3.92841,-7.32132 -7.97959,-15.15462 -9.00263,-17.40733 -1.02303,-2.25271 -3.61679,-6.86054 -5.76391,-10.23961 -3.80839,-5.9935 -3.93253,-6.49435 -5.07654,-20.47922 -0.64498,-7.8845 -1.81961,-18.94327 -2.61029,-24.57506 -0.79067,-5.63178 -1.73705,-13.23469 -2.10306,-16.89535 -0.8796,-8.79756 -4.37781,-16.29093 -10.28579,-22.03284 l -4.82179,-4.68623 1.09756,-6.62357 c 0.79904,-4.82193 2.23065,-8.35771 5.26325,-12.99897 2.29113,-3.50646 4.43715,-7.99194 4.76894,-9.96776 0.33179,-1.97579 1.24183,-5.43547 2.02231,-7.68819 1.48404,-4.28343 4.5421,-30.08062 4.5421,-38.31634 0,-3.93255 -0.88845,-6.21001 -5.04155,-12.9236 -2.77285,-4.48238 -6.91989,-10.43045 -9.21564,-13.21793 -3.87455,-4.7044 -4.17411,-5.51719 -4.17411,-11.32539 0,-4.2499 -0.82123,-8.35281 -2.5599,-12.78936 -1.40795,-3.59263 -2.5599,-7.55113 -2.5599,-8.79664 0,-1.24551 -1.80739,-8.05786 -4.01643,-15.13855 -7.16735,-22.97372 -7.12697,-22.4454 -2.55866,-33.46682 3.17884,-7.66918 5.13277,-10.73176 10.12103,-15.86364 l 6.18169,-6.359641 10.23961,-0.635585 c 5.63178,-0.349572 13.18669,-1.534458 16.78869,-2.633078 7.66326,-2.33731 10.02226,-1.739407 17.33124,4.392734 2.43379,2.041918 9.75187,6.60135 16.26239,10.13209 8.27295,4.48651 14.14687,8.5778 19.50738,13.58723 4.21854,3.94225 9.01309,8.03016 10.65457,9.08426 2.85069,1.83059 3.18893,1.83847 7.54334,0.17551 5.77229,-2.20447 8.23205,-5.33694 9.05354,-11.52956 0.95177,-7.17487 -0.50836,-10.69822 -7.03079,-16.96549 -5.77866,-5.552596 -5.85149,-5.5861 -8.86972,-4.080402 -1.95532,0.975433 -2.83827,2.052271 -2.46989,3.01223 1.41728,3.693382 -4.27949,-0.525922 -14.5497,-10.776229 -9.70443,-9.685614 -12.33981,-11.675334 -22.76257,-17.185824 -13.7651,-7.277588 -22.9648,-9.588288 -38.17426,-9.588288 -8.15479,0 -10.44492,-0.367 -13.48574,-2.161122 -3.01445,-1.778567 -4.52018,-2.02655 -8.50621,-1.400902 -2.66385,0.41812 -14.28941,0.705476 -25.83457,0.638568 -18.36424,-0.106425 -21.03483,-0.326973 -21.33986,-1.762327 -0.19176,-0.902374 0.64127,-2.694412 1.85118,-3.982308 2.69036,-2.863764 4.94248,-15.7955 2.9638,-17.018382 -0.6648,-0.41087 -1.76986,-0.53171 -2.45568,-0.268534 -0.86627,0.332421 -1.46417,-1.650306 -1.95841,-6.494492 C 120.18215,17.115971 118.80126,13.632207 113.87847,9.298986 108.05305,4.1712545 101.57793,1.871553 91.501058,1.3514317 L 83.264374,0.92629213 77.015124,7.0602291 c -7.232736,7.0992859 -8.644581,10.4926759 -8.941333,21.4906229 -0.207676,7.696437 2.384985,22.625178 4.354848,25.07565 0.528896,0.657932 1.268295,2.632112 1.643113,4.387066 0.672702,3.149765 0.552341,3.263478 -9.353399,8.836583 -5.519182,3.105168 -12.711729,6.941262 -15.98344,8.524649 -7.080296,3.426608 -17.5173,13.986823 -21.235613,21.486329 -2.411084,4.862901 -2.518313,5.949101 -2.70279,27.376871 -0.105648,12.27218 -0.645095,24.71331 -1.198772,27.64694 -1.544583,8.18393 -1.347868,43.37224 0.263961,47.21815 2.078952,4.96053 6.666502,9.82577 9.264946,9.82577 3.248061,0 18.498255,-13.61177 23.937084,-21.36536 2.423462,-3.45487 4.793857,-6.28159 5.26755,-6.28159 0.473701,0 2.044924,2.01976 3.491617,4.48836 l 2.63035,4.48835 -1.507688,8.56715 c -1.80684,10.26695 -1.971239,27.80628 -0.318558,33.98547 0.919803,3.43906 0.901569,5.95559 -0.07987,11.02228 -1.617547,8.35058 -1.681926,11.74192 -0.276322,14.55525 1.54066,3.08365 6.331977,28.24218 6.331977,33.24837 0,8.19439 7.052453,49.83783 8.63634,50.996 2.247332,1.6433 11.429493,20.54167 13.14647,27.05758 2.98533,11.32925 3.816212,15.46406 3.816212,18.99086 0,1.98112 0.664322,5.19201 1.476274,7.13528 2.862319,6.85048 15.019639,24.0391 19.707599,27.86358 10.67421,8.7081 24.08318,21.27257 25.38122,23.78271 1.8407,3.55952 2.15784,17.24051 0.60641,26.1596 -0.68573,3.94224 -1.49969,9.58682 -1.80881,12.54352 l -0.562,5.37579 h 14.86467 c 11.41688,0 14.98578,-0.31558 15.38678,-1.36056 z"
     id="path22943" />
  <path
     style="fill:url(#linearGradient23720);fill-opacity:1;stroke-width:0.819169"
     d="m 42.447138,510.05548 c 0.535024,-0.45819 3.718952,-1.66417 7.075406,-2.67995 8.269844,-2.50279 17.570358,-11.59698 21.016289,-20.55007 9.024258,-23.4466 -8.113194,-48.63814 -33.087838,-48.63814 -20.810407,0 -36.55008686,15.34918 -36.68589684,35.77573 -0.0813434,12.22595 6.64759504,24.22428 16.98189984,30.28058 8.620252,5.0518 21.930572,8.18367 24.70014,5.81185 z"
     id="path3420" />
</svg>
