<?xml version="1.0" encoding="UTF-8" standalone="no"?>
<svg
   version="1.1"
   x="0"
   y="0"
   width="592"
   height="510"
   viewBox="0, 0, 592, 510"
   id="svg39429"
   sodipodi:docname="player_four.svg"
   inkscape:version="1.2.2 (732a01da63, 2022-12-09)"
   xmlns:inkscape="http://www.inkscape.org/namespaces/inkscape"
   xmlns:sodipodi="http://sodipodi.sourceforge.net/DTD/sodipodi-0.dtd"
   xmlns:xlink="http://www.w3.org/1999/xlink"
   xmlns="http://www.w3.org/2000/svg"
   xmlns:svg="http://www.w3.org/2000/svg">
  <defs
     id="defs39433">
    <linearGradient
       inkscape:collect="always"
       id="linearGradient40605">
      <stop
         style="stop-color:#315858;stop-opacity:1;"
         offset="0"
         id="stop40601" />
      <stop
         style="stop-color:#315858;stop-opacity:0;"
         offset="1"
         id="stop40603" />
    </linearGradient>
    <linearGradient
       inkscape:collect="always"
       xlink:href="#linearGradient40605"
       id="linearGradient40607"
       x1="36.538351"
       y1="193.44273"
       x2="82.709742"
       y2="193.44273"
       gradientUnits="userSpaceOnUse" />
  </defs>
  <sodipodi:namedview
     id="namedview39431"
     pagecolor="#ffffff"
     bordercolor="#000000"
     borderopacity="0.25"
     inkscape:showpageshadow="2"
     inkscape:pageopacity="0.0"
     inkscape:pagecheckerboard="0"
     inkscape:deskcolor="#d1d1d1"
     showgrid="false"
     inkscape:zoom="1.5196078"
     inkscape:cx="296.12903"
     inkscape:cy="216.17419"
     inkscape:window-width="1920"
     inkscape:window-height="991"
     inkscape:window-x="-9"
     inkscape:window-y="-9"
     inkscape:window-maximized="1"
     inkscape:current-layer="svg39429" />
  <path
     style="fill:#82c0d9;fill-opacity:1;stroke-width:0.679298"
     d="m 329.63155,200.17277 c 0.01,0.0299 -0.034,0.0808 -0.1019,0.14402 l 0.1019,-0.14402"
     id="path40599" />
  <path
     style="fill:#82c0d9;fill-opacity:1;stroke-width:0.679298"
     d="m 140.98652,243.17724 c -3.88286,-4.88551 0.91841,-11.26276 4.39913,-15.202 -0.0598,-0.005 -0.12091,-0.004 -0.18273,-0.009 -6.12387,-0.47144 -32.50439,-7.77253 -36.9796,-12.24774 -4.47454,-4.47521 -6.12387,1.88437 -4.2395,4.2395 1.88437,2.3558 -0.35799,2.3558 -0.76828,3.53302 -0.40962,1.17791 1.23971,1.88438 1.23971,1.88438 l 2.11941,-0.47076 1.88437,4.47522 -1.17722,2.16763 1.17722,2.30758 h 4.00446 l 3.29731,4.23949 -1.1779,1.88438 1.64934,1.41294 h 2.59084 l 9.89193,10.129 -1.17722,2.35445 1.64865,1.41362 h 2.82656 l 2.59084,2.35512 -0.23504,3.06227 1.64798,1.64866 2.59152,-1.1779 3.0616,1.1779 c 0,0 6.83033,-4.47521 7.5368,-5.4174 0.46532,-0.61816 1.05495,-5.2041 5.06417,-9.14402 -0.45649,-0.0537 -0.91841,-0.10462 -1.38441,-0.15692 -4.28909,-0.47075 -9.15082,-1.00332 -11.89994,-4.45959"
     id="path40597" />
  <path
     style="fill:#82c0d9;fill-opacity:1;stroke-width:0.679298"
     d="m 290.28867,168.46741 c -3.9277,2.22062 -7.6224,4.79652 -11.37484,7.24674 -3.711,2.51544 -7.48111,4.92559 -11.44345,6.98658 -3.71711,1.94007 -7.64685,3.49567 -11.76068,4.44804 -0.26153,0.0598 -0.52102,0.12567 -0.78459,0.18137 l 0.80905,-0.14061 2.51544,-0.43951 c 1.09095,-0.27036 2.17443,-0.58283 3.26674,-0.87697 1.06921,-0.35391 2.11805,-0.77304 3.18047,-1.15684 1.04612,-0.42524 2.06371,-0.91298 3.09896,-1.36675 4.07714,-1.95162 7.88121,-4.39438 11.63908,-6.85208 3.72051,-2.52291 7.40502,-5.07435 11.2186,-7.40842 0.94151,-0.60457 1.93057,-1.12084 2.89517,-1.68669 0.968,-0.55838 1.98898,-1.01283 2.98008,-1.5291 1.00196,-0.49521 2.04468,-0.89599 3.06974,-1.35044 1.04884,-0.38313 2.11941,-0.71598 3.18047,-1.09367 -1.08483,0.27783 -2.1853,0.53189 -3.26266,0.86135 -1.05427,0.38923 -2.13436,0.72888 -3.17436,1.16227 -1.02166,0.47483 -2.0705,0.90143 -3.06907,1.42381 -0.99313,0.53325 -2.01411,1.01963 -2.98415,1.59092"
     id="path40595" />
  <path
     style="fill:#82c0d9;fill-opacity:1;stroke-width:0.679298"
     d="m 378.3073,66.072812 c -4.04114,0.560421 -7.89887,1.991701 -11.71653,3.369996 -3.81493,1.412939 -7.54495,3.034422 -11.27769,4.644358 -3.70218,1.680582 -7.39212,3.382902 -11.03044,5.194589 -0.47551,0.24115 -0.9517,0.481622 -1.4272,0.722093 -3.1533,1.590915 -6.30457,3.190661 -9.30095,5.068919 1.80626,-0.930638 3.65191,-1.772287 5.50231,-2.606465 l 4.05609,-1.855162 1.48019,-0.677939 c 3.6981,-1.669034 7.37649,-3.382223 11.10176,-4.986044 3.69538,-1.673111 7.41725,-3.282367 11.16358,-4.830486 1.87146,-0.774399 3.74565,-1.549478 5.65311,-2.226738 1.88709,-0.747906 3.8163,-1.34365 5.79577,-1.817121 m 58.02153,36.116208 c 0,0 0.47143,3.06159 0,4.23949 -0.47076,1.17791 -1.41294,1.88437 -1.41294,3.61251 0,1.72541 -2.12009,3.42773 -2.12009,3.42773 l -2.12009,1.91087 c 0,0 -4.23949,-1.17858 -6.12386,-1.91087 -1.88438,-0.73228 -5.65312,-0.44494 -7.06606,-3.42773 -1.41294,-2.98484 -1.72813,-8.24464 -4.31829,-10.835472 -2.59152,-2.590835 -16.1734,-9.264255 -18.99996,-10.205761 -2.82656,-0.942865 -8.71471,-7.301771 -10.8348,-7.223651 -2.1194,0.07744 -8.00824,-2.433924 -10.36336,-1.885051 -1.43468,0.334893 -11.42307,1.804894 -19.01965,2.903318 -0.32131,2.9597 -1.06039,6.494764 -2.01141,10.060398 -0.84029,0.660956 -1.70367,1.298817 -2.58404,1.91426 -3.40736,2.376867 -7.04024,4.459587 -10.74921,6.385389 -3.7144,1.92037 -7.53069,3.65598 -11.42171,5.20613 -3.89645,1.52163 -7.86491,2.93661 -12.00047,3.68044 4.16341,-0.58692 8.1998,-1.85924 12.16622,-3.23957 3.96302,-1.40887 7.86015,-3.00793 11.67169,-4.80196 3.8095,-1.80013 7.55175,-3.761942 11.1201,-6.057282 0.38517,-0.247264 0.76625,-0.501321 1.14666,-0.758096 -2.16696,7.446448 -5.07028,14.496878 -6.81947,16.111568 -3.02899,2.79735 1.69077,7.43899 -0.0625,13.31355 -3.20968,-0.20243 -6.43838,-0.0992 -9.64534,0.15488 -4.08598,0.33762 -8.14139,1.01895 -12.13701,1.93804 -1.99986,0.45921 -3.98476,0.97275 -5.95744,1.53385 -1.95095,0.55635 -3.96914,1.21799 -5.81547,1.77433 l -5.24554,1.79742 c 2.02906,-0.69424 9.60119,-1.36063 11.54602,-1.99645 1.9231,-0.62632 3.86113,-1.20983 5.81343,-1.73901 3.90461,-1.0563 7.87714,-1.88369 11.89518,-2.3721 3.10915,-0.36682 6.24886,-0.59235 9.38518,-0.52374 -1.67922,5.51997 0.75878,4.45619 0.11208,9.70309 -0.66163,5.36645 -3.42094,1.85448 -4.04929,5.62322 -0.2167,1.29678 0.019,2.78037 0.45309,4.24493 -0.37497,-0.37157 -0.77779,-0.71598 -1.16431,-1.07668 -0.82943,-0.82807 -1.83139,-1.44487 -2.76678,-2.15202 -1.99782,-1.20915 -4.12674,-2.26953 -6.39016,-2.87818 -4.49898,-1.34365 -9.18206,-1.7261 -13.81012,-1.93057 -4.64164,-0.2099 -14.99413,0.76421 -19.62083,0.86815 l 5.81615,1.04 c 4.59069,-0.25949 9.1875,-0.54616 13.77208,-0.49725 4.57439,0.0462 9.18274,0.27104 13.58391,1.42449 2.21859,0.51559 4.29452,1.46864 6.27399,2.5725 0.92385,0.65416 1.92242,1.21866 2.75795,2.00053 0.42932,0.3743 0.88309,0.72345 1.29474,1.11949 l 0.61817,0.62902 c 0.86067,2.37687 2.10242,4.55809 2.63703,5.62866 0.94151,1.88438 0.62767,11.93323 0,14.44459 -0.62835,2.51408 -13.30812,-16.64211 -30.26679,-18.52581 -1.33685,-0.1474 -2.62888,-0.23775 -3.88354,-0.28734 8.08296,1.72678 17.47221,6.55251 29.67512,17.24397 0.17933,0.7221 0.33217,1.50736 0.45105,2.34426 -12.20426,-9.04621 -32.26732,-12.64445 -49.4617,-12.00115 l -0.49181,0.19699 c 16.83028,-0.63446 38.00127,4.81419 50.03231,14.11173 1.14394,12.58467 -5.31415,33.80457 -40.33602,38.45164 -0.83553,0.11073 -4.00921,0.65145 -7.74535,1.30222 -0.20107,0.0944 -0.40282,0.19224 -0.6005,0.28598 -0.34168,0 -0.68201,0 -1.02506,-0.003 -1.19964,0.20854 -2.42917,0.42524 -3.63628,0.6365 l 1.08552,1.01215 c 1.12424,-0.50336 2.31708,-1.05087 3.57582,-1.64594 20.48151,-0.0272 37.04074,-7.5042 38.39458,-8.74595 -3.77485,5.39294 -12.41756,13.97383 -16.54089,24.35689 -6.22509,-1.86603 -13.72181,-5.80528 -22.42633,-11.81434 l -0.27104,0.39059 -0.26425,0.38245 c 0.83553,0.5774 1.65816,1.13239 2.47264,1.67175 7.69644,5.1022 14.43168,8.5279 20.14933,10.25536 -0.68066,1.84972 -1.2173,3.75379 -1.54812,5.70406 -1.55491,0.36206 -3.3109,0.35731 -5.17829,0.0801 -4.35226,4.58662 -10.91427,16.49675 -13.15392,19.70507 -1.22952,1.76414 -5.34063,4.97178 -9.46329,7.88597 4.53227,-1.99782 9.42865,-4.57439 12.09218,-6.9431 0,0 8.02861,5.88611 13.95617,9.50948 -0.92521,0.42796 -1.84498,0.86882 -2.75388,1.32871 -4.9317,2.52563 -9.65757,5.41264 -14.22789,8.56662 l 0.55635,0.76149 c 4.42766,-3.24636 9.06251,-6.26516 13.89028,-8.9117 0.96392,-0.52238 1.94007,-1.02438 2.92437,-1.50804 0.35663,0.21398 0.70647,0.42184 1.04408,0.6168 5.96627,3.45491 12.56158,15.70264 15.0743,17.90085 1.38984,1.21594 6.43566,7.43559 11.19822,12.95964 -1.12628,1.36947 -2.34969,2.65538 -3.60232,3.90732 -1.26145,1.2567 -2.56842,2.46721 -3.93109,3.60571 -0.67998,0.56858 -1.37286,1.12152 -2.08612,1.63575 -0.69289,0.48502 -1.49446,1.0502 -2.14319,1.22002 l 0.18545,0.92317 c 1.07737,-0.35052 1.70232,-0.93811 2.45294,-1.48427 0.71327,-0.56314 1.39188,-1.15616 2.05624,-1.76414 1.32938,-1.21118 2.59084,-2.48962 3.80542,-3.8095 1.19353,-1.30357 2.35649,-2.63907 3.41891,-4.05201 2.79123,3.23346 5.46427,6.19724 7.23248,7.75826 -0.47483,6.8e-4 -0.95034,0.0109 -1.42856,0.0387 -0.47823,0.0374 -0.95781,0.10054 -1.43672,0.20379 -0.24047,0.0543 -0.47754,0.13926 -0.71734,0.21058 -0.22756,0.12703 -0.47754,0.19021 -0.68677,0.37565 -0.47211,0.27308 -0.75605,0.89124 -0.76692,1.4374 0.0122,0.27443 0.0217,0.55702 0.11887,0.79478 0.074,0.24998 0.15149,0.49996 0.26085,0.71801 0.84981,1.77365 2.03178,3.25044 2.9794,4.86106 0.48434,0.79613 0.932,1.60925 1.26486,2.44955 0.33013,0.83281 0.55362,1.7193 0.42184,2.52087 -0.0618,0.39807 -0.20379,0.77168 -0.43203,1.10182 -0.24523,0.32063 -0.54684,0.61001 -0.91094,0.84165 -0.72074,0.47211 -1.58752,0.78866 -2.48555,0.97683 -1.77772,0.46124 -3.639,0.5183 -5.46563,0.29006 -1.83003,-0.23979 -3.62134,-0.81923 -5.28969,-1.65273 -0.25474,-0.12975 -0.50404,-0.27308 -0.75606,-0.41166 -1.18198,-2.50253 -2.72602,-9.75471 -5.45544,-10.84634 -3.14039,-1.25602 -4.22931,-1.88437 -4.22931,-1.88437 0,0 -25.60544,-17.58634 -26.66447,-18.21469 -1.05766,-0.62835 -3.33806,-9.10734 -5.53559,-11.62006 -1.41498,-1.61673 -8.40563,-5.70203 -13.21302,-8.41039 -0.30908,0.1576 -0.52034,0.24523 -0.60593,0.24523 -0.94219,0 -5.96628,-4.08258 -8.479,-7.53749 -2.51272,-3.45491 -1.57121,-16.01648 -1.57121,-16.01648 0,0 5.98189,-21.53237 9.87495,-33.58515 -3.59077,-3.92974 -9.67524,-10.65411 -15.2414,-17.11083 l 8.53062,14.10969 c -3.29731,5.65244 -30.4862,7.37989 -34.33646,8.47899 -3.09081,0.88173 -10.67041,-11.88295 -13.78838,-17.77178 0.75266,6.06884 5.67213,15.90847 12.77147,20.20503 0.47279,0.71054 -0.83078,2.6119 -3.49159,4.93034 -6.04031,-5.57228 -11.53651,-14.4079 -14.32978,-20.89587 l -0.86543,0.37089 c 2.27497,5.28562 7.8751,14.97036 14.47719,21.13227 -4.40864,3.6356 -11.89993,8.09112 -21.04328,10.63712 -9.5747,-7.9634 -13.66475,-21.41825 -13.70958,-21.56838 l -0.25474,0.15285 c 0.0442,0.15352 1.51347,13.60225 10.95232,21.80749 -1.90679,0.49113 -1.9754,0.80225 -4.00379,1.0991 -19.31446,2.82656 -22.19469,6.12455 -35.09523,9.18614 -0.89395,0.21262 -1.72473,0.46057 -2.50729,0.735 -2.92098,-2.53378 -3.79116,-6.43566 -4.48132,-9.56587 -0.36614,-1.66563 -0.68202,-3.10303 -1.24312,-4.04929 l -0.80972,0.47891 c 0.48298,0.81787 0.78323,2.18598 1.13307,3.77349 0.66096,3.00046 1.55219,6.9825 4.41679,9.73298 -2.09971,0.84709 -3.77825,1.90611 -5.13073,3.05276 -0.71734,-0.0971 -1.45234,-0.18069 -2.19957,-0.2622 -4.10635,-0.45106 -8.76158,-0.96053 -11.26479,-4.11111 -3.62813,-4.56488 1.43332,-10.75329 4.89502,-14.58181 5.62119,-0.0387 10.90476,-2.7233 11.77426,-3.81018 0.94219,-1.1779 32.4256,-18.68612 32.89703,-19.7859 0.47075,-1.0991 3.61115,0.31384 5.96695,0 2.05216,-0.27376 12.81359,-7.82211 19.80628,-11.62754 0.70443,-2.12824 19.78047,-15.61229 28.54748,-18.91096 1.58616,-5.12666 29.84087,-19.84908 39.87681,-24.45744 1.37694,-1.16227 4.1607,-2.44071 3.94265,-3.41686 -0.31384,-1.41362 -0.31384,-3.76875 1.41293,-4.86785 0.63651,-0.40486 0.65281,-1.55559 0.42253,-2.84694 0.48026,-0.46939 0.95373,-0.94694 1.43943,-1.4109 3.9637,-3.76398 8.16108,-7.29158 12.56972,-10.53522 4.41408,-3.23074 9.03602,-6.2081 13.96161,-8.6067 2.46245,-1.19353 5.00167,-2.24508 7.63055,-3.01541 2.62548,-0.76896 5.35015,-1.26892 8.10062,-1.2336 -2.74776,-0.11412 -5.50163,0.30908 -8.16448,1.00536 -2.66692,0.70103 -5.25301,1.68602 -7.76641,2.81773 -5.02816,2.27225 -9.76966,5.13752 -14.30804,8.26637 -4.53635,3.14039 -8.86891,6.57424 -12.98206,10.26147 -0.29346,0.26628 -0.57876,0.5414 -0.87154,0.80904 -0.48638,-1.69485 -1.13103,-3.20628 -1.13103,-3.20628 0,0 -0.91705,-5.09066 -1.95502,-11.08138 4.47046,-5.38819 8.87163,-10.79404 13.83254,-15.6911 3.08061,-3.03171 6.39627,-5.85826 10.03798,-8.182812 -0.89395,0.34101 -1.78044,0.67726 -2.65062,1.00672 -2.85237,1.937352 -5.52133,4.150502 -8.03881,6.495432 -4.83727,4.52005 -9.17867,9.4959 -13.51394,14.44391 -0.13654,-0.79614 -0.27308,-1.59567 -0.40894,-2.39792 0,0 -0.13246,-1.40615 -0.36682,-2.16968 -0.49657,-2.95766 -1.92989,-41.337964 -1.91834,-41.601531 l -0.94218,-0.0394 c -0.0448,1.077367 -0.80225,19.871494 0.44901,32.979211 -0.16575,0.0428 -0.33353,0.0876 -0.502,0.13246 -4.23678,1.12356 -9.53326,2.635 -13.92492,3.8883 -2.77493,-3.33807 -12.52285,-14.682326 -12.52285,-14.682326 0,0 10.12832,-7.536807 9.20856,-8.243956 -0.91706,-0.70647 12.93246,-17.665135 14.42352,-17.665135 l 7.99126,-4.948004 c -2.85781,0.213979 -7.35679,2.319122 -7.35679,2.319122 -0.7812,-0.22281 -1.67311,-3.235495 -1.89728,-4.240176 -0.22281,-1.004002 -1.00332,-1.115406 -1.56103,-1.784515 -0.5577,-0.669108 -1.78587,0.446299 -2.23149,0 -0.4463,-0.446298 -1.11541,-3.012005 -1.11541,-3.012005 0,0 -2.12009,0.222809 -2.45498,0 -0.33421,-0.224168 -1.11541,-3.681793 -1.78451,-4.350902 -0.66979,-0.670466 -3.34758,0.892597 -4.6858,0 -1.33889,-0.892597 1.56171,-9.595079 0.55838,-11.045379 -1.004,-1.4503 -2.00936,-1.785874 -2.34425,-3.12409 -0.33354,-1.338895 0.78187,-10.598401 0.67046,-13.499002 0,0 -1.89659,-3.012006 -1.89659,-3.347579 0,-0.333535 8.7018,-14.9493036 17.40428,-15.9533056 8.7018,-1.0046816 20.97399,0.446299 26.21681,5.9126076 5.2435,5.467666 5.02137,15.39696 4.35158,17.738499 -0.58012,2.029741 0.51559,10.245167 1.83343,13.424279 2.70768,-2.346973 4.95004,-3.89713 6.09873,-3.727306 2.13979,1.402071 5.85623,7.339811 6.32698,7.496729 0.47075,0.156238 -20.56981,9.578097 -20.56981,9.578097 0,0 24.49547,-10.04885 27.00819,-10.834798 2.51205,-0.784588 15.38881,-1.256021 18.05709,-0.627671 2.34901,0.552269 10.64935,11.063042 19.02577,14.228569 -2.54872,0.679976 -5.08115,1.414297 -7.60677,2.176469 -2.84762,0.883087 -5.6898,1.787232 -8.4953,2.808896 -1.40207,0.511511 -2.80074,1.033212 -4.18719,1.592273 -0.68881,0.29074 -1.37354,0.59031 -2.0508,0.910259 -0.33693,0.162352 -0.67386,0.326063 -1.00196,0.508794 -0.30705,0.199034 -0.68677,0.363424 -0.86475,0.700356 0.2133,-0.304325 0.60118,-0.41573 0.9286,-0.571969 0.34033,-0.146728 0.68677,-0.279191 1.03457,-0.406899 0.699,-0.252699 1.40547,-0.484339 2.11397,-0.707828 1.41091,-0.468036 2.83064,-0.910938 4.2558,-1.338896 l 8.54149,-2.595596 8.52858,-2.656733 0.0387,-0.01223 c 0.735,0.211261 1.46729,0.366821 2.19481,0.438826 9.42186,0.942865 18.13657,3.533706 23.55397,6.124547 5.41808,2.590842 24.73187,24.966906 28.02986,26.380524 0,0 8.00824,1.647976 9.18546,3.414832 1.1779,1.76549 3.53303,4.592722 3.53303,4.592722"
     id="path40593" />
  <path
     style="fill:#82c0d9;fill-opacity:1;stroke-width:0.679298"
     d="m 254.49308,98.420968 c -2.82588,0.70647 -8.96945,3.768062 -8.96945,3.768062 0,0 -6.81199,1.88437 -11.28721,2.35512 -4.47521,0.47143 -12.35166,-1.41362 -12.35166,-1.41362 0,0 -4.13557,-4.003092 -6.96213,-0.23503 -2.82655,3.76874 -4.00446,6.8283 -6.12386,9.1841 -2.12009,2.35716 -0.94287,8.76294 -1.41362,12.7443 -0.47076,3.98069 2.3558,2.34901 3.76874,3.04801 1.41362,0.69764 3.06227,-4.50578 4.94597,-4.84883 1.88505,-0.34168 0.49996,-2.9332 5.7849,-2.69749 5.28561,0.23572 9.29007,-1.1779 9.29007,-1.1779 0,0 9.89261,5.8671 16.95867,3.87539 7.06605,-1.99102 9.89261,-8.63726 13.66135,-9.55432 1.14733,-0.27919 4.2001,-1.15141 7.92469,-2.21519 -2.98755,-3.15601 -12.71917,-13.460272 -15.22646,-12.832602"
     id="path40591" />
  <path
     style="fill:#82c0d9;fill-opacity:1;stroke-width:0.679298"
     d="m 270.50956,112.07964 c 0.20719,0.20786 -0.0747,-0.14741 -0.66707,-0.86067 l -0.12295,0.0346 c 0.3804,0.40079 0.65688,0.69357 0.79002,0.82603"
     id="path40589" />
  <path
     style="fill:#82c0d9;fill-opacity:1;stroke-width:0.679298"
     d="m 340.54039,302.45479 c -0.35459,0.233 -0.46328,0.59982 -0.47143,0.97343 0.0238,0.197 0.0245,0.39128 0.12227,0.59303 0.07,0.19835 0.13654,0.39807 0.25066,0.59846 0.87969,1.59431 2.0508,3.10643 3.0582,4.72791 0.50879,0.80905 0.98974,1.64866 1.36946,2.56163 0.3675,0.90347 0.67047,1.91494 0.51831,2.99774 -0.0829,0.53461 -0.29482,1.06039 -0.61477,1.50193 -0.33149,0.42728 -0.73228,0.78527 -1.16907,1.05699 -0.87154,0.54819 -1.82527,0.86542 -2.77357,1.05359 -1.88913,0.44358 -3.87539,0.52985 -5.77878,0.17458 -1.88574,-0.33897 -3.69403,-1.01216 -5.34744,-1.93872 1.31037,1.29203 4.63078,12.21309 4.3217,14.0635 -0.31316,1.88369 -0.94219,10.04885 -1.88438,11.61939 -0.9415,1.57053 -4.71025,5.02476 -5.65311,6.5953 -0.94219,1.57053 6.95329,2.51272 13.52617,0 6.57425,-2.51272 6.25973,-5.96695 6.25973,-5.96695 0,0 2.5168,-5.1287 4.71093,-5.02477 0.82399,0.0387 1.36675,-2.15813 1.2173,-2.70904 -0.19224,-0.70579 -1.2173,-1.0597 -1.2173,-1.0597 0,0 0.62767,-5.02544 3.14107,-7.22297 2.51137,-2.19889 4.48676,-2.0345 4.48676,-2.0345 l 1.16568,-2.24508 -1.2567,-2.31572 0.43271,-1.39392 2.03178,0.0279 0.99042,-2.08884 -1.57054,-2.19753 0.72685,-4.89502 -1.98287,-3.43724 c 0,0 -10.05021,-2.97397 -13.18992,-4.23067 -0.28735,-0.11412 -0.66979,-0.37497 -1.12696,-0.75402 -0.59303,0.0374 -1.18266,0.0842 -1.76617,0.16575 -0.89939,0.13586 -1.88234,0.28463 -2.52699,0.80361"
     id="path40587" />
  <path
     style="fill:url(#linearGradient40607);fill-opacity:1;stroke-width:0.679298"
     d="m 36.759169,190.27626 c -1.747833,12.62814 7.070809,24.28353 19.699631,26.03136 12.627464,1.74783 24.282173,-7.07149 26.030006,-19.69895 1.748512,-12.62814 -7.072167,-24.28217 -19.699631,-26.03069 -12.628143,-1.74851 -24.282173,7.07217 -26.030006,19.69828"
     id="path39426" />
</svg>
