<?xml version="1.0" encoding="UTF-8" standalone="no"?>
<!-- Created with Inkscape (http://www.inkscape.org/) -->

<svg
   xmlns:dc="http://purl.org/dc/elements/1.1/"
   xmlns:cc="http://creativecommons.org/ns#"
   xmlns:rdf="http://www.w3.org/1999/02/22-rdf-syntax-ns#"
   xmlns:svg="http://www.w3.org/2000/svg"
   xmlns="http://www.w3.org/2000/svg"
   xmlns:sodipodi="http://sodipodi.sourceforge.net/DTD/sodipodi-0.dtd"
   xmlns:inkscape="http://www.inkscape.org/namespaces/inkscape"
   id="svg3406"
   version="1.1"
   inkscape:version="0.91 r13725"
   width="284.55701"
   height="511.99988"
   viewBox="0 0 284.55701 511.99988"
   sodipodi:docname="silhouette-football-27.svg">
  <title
     id="title3340">Silhouette Football 27</title>
  <metadata
     id="metadata3412">
    <rdf:RDF>
      <cc:Work
         rdf:about="">
        <dc:format>image/svg+xml</dc:format>
        <dc:type
           rdf:resource="http://purl.org/dc/dcmitype/StillImage" />
        <dc:title>Silhouette Football 27</dc:title>
        <cc:license
           rdf:resource="http://creativecommons.org/publicdomain/zero/1.0/" />
        <dc:date>2017-03-21</dc:date>
        <dc:creator>
          <cc:Agent>
            <dc:title>JLouis</dc:title>
          </cc:Agent>
        </dc:creator>
        <dc:rights>
          <cc:Agent>
            <dc:title>Domaine pubic</dc:title>
          </cc:Agent>
        </dc:rights>
        <dc:publisher>
          <cc:Agent>
            <dc:title>inkscape</dc:title>
          </cc:Agent>
        </dc:publisher>
        <dc:subject>
          <rdf:Bag>
            <rdf:li>silhouette</rdf:li>
            <rdf:li>soccer</rdf:li>
            <rdf:li>player</rdf:li>
            <rdf:li>sport</rdf:li>
            <rdf:li>football</rdf:li>
            <rdf:li>joueurs</rdf:li>
          </rdf:Bag>
        </dc:subject>
        <dc:description>Soccer player in silhouette - Joueur de football en silhouette</dc:description>
      </cc:Work>
      <cc:License
         rdf:about="http://creativecommons.org/publicdomain/zero/1.0/">
        <cc:permits
           rdf:resource="http://creativecommons.org/ns#Reproduction" />
        <cc:permits
           rdf:resource="http://creativecommons.org/ns#Distribution" />
        <cc:permits
           rdf:resource="http://creativecommons.org/ns#DerivativeWorks" />
      </cc:License>
    </rdf:RDF>
  </metadata>
  <defs
     id="defs3410" />
  <sodipodi:namedview
     pagecolor="#ffffff"
     bordercolor="#666666"
     borderopacity="1"
     objecttolerance="10"
     gridtolerance="10"
     guidetolerance="10"
     inkscape:pageopacity="0"
     inkscape:pageshadow="2"
     inkscape:window-width="1235"
     inkscape:window-height="756"
     id="namedview3408"
     showgrid="false"
     fit-margin-top="0"
     fit-margin-left="0"
     fit-margin-right="0"
     fit-margin-bottom="0"
     inkscape:zoom="0.8828125"
     inkscape:cx="-66.656041"
     inkscape:cy="273.65665"
     inkscape:window-x="0"
     inkscape:window-y="0"
     inkscape:window-maximized="1"
     inkscape:current-layer="svg3406" />
  <g
     id="g3416"
     transform="matrix(0.81916871,0,0,0.81916871,-0.00569151,-12.246698)">
    <path
       style="fill:red"
       d="M 290.625,638.24731 C 277.63916,634.12966 268.01593,625.9771 261.70851,613.75 c -3.15795,-6.1218 -3.54852,-8.17599 -3.565,-18.75 -0.0159,-10.18028 0.44198,-12.85658 3.20811,-18.75294 9.29965,-19.82334 32.22082,-30.38271 53.08865,-24.45701 32.61812,9.26235 43.70948,48.11315 20.93298,73.324 -10.95995,12.13136 -30.14789,17.76288 -44.74825,13.13326 z M 136.71949,615.29336 c -0.90399,-0.59066 -1.39168,-5.8248 -1.36673,-14.66836 0.0284,-10.06956 -0.66058,-16.38981 -2.57406,-23.61224 l -2.61286,-9.86223 2.5728,-7.01277 c 2.0039,-5.46212 4.61132,-8.98692 11.79207,-15.94092 5.07061,-4.91049 9.21929,-9.90205 9.21929,-11.09238 0,-1.19032 2.25789,-5.54543 5.01752,-9.67804 4.87027,-7.29326 4.99429,-7.74068 4.22563,-15.24331 -0.99715,-9.73269 0.16942,-12.10906 12.5803,-25.62696 L 185,472.28876 l 0,-7.23722 c 0,-3.98048 0.8574,-9.66735 1.90534,-12.63753 3.4581,-9.8013 2.46541,-39.30342 -1.27419,-37.8684 -0.92719,0.35579 -2.85475,0.0213 -4.28348,-0.74334 -2.11585,-1.13237 -2.60122,-2.59931 -2.61681,-7.90875 -0.0105,-3.58518 -0.56441,-7.36227 -1.23086,-8.39352 -0.80409,-1.24424 -1.21816,-1.35058 -1.23086,-0.3161 -0.01,0.85739 -1.91135,3.66989 -4.22405,6.25 -3.01672,3.36553 -4.45933,6.4229 -5.10527,10.81979 -0.50625,3.44607 -3.58627,11.29396 -7.03661,17.92923 -3.37495,6.49032 -9.81887,19.61023 -14.31985,29.15538 -7.64137,16.20497 -8.25595,18.1642 -9.27586,29.57076 -0.92993,10.40005 -1.9683,14.25986 -6.98549,25.96594 -7.41195,17.29358 -13.07201,33.88497 -13.07201,38.31816 0,1.87512 -0.5625,3.75694 -1.25,4.18184 -0.6875,0.4249 -1.25,2.06974 -1.25,3.6552 0,3.86184 -4.53017,9.40807 -9.27238,11.35209 -4.4303,1.81613 -11.308615,1.09682 -15.46635,-1.61744 -7.372845,-4.81316 -12.939274,-22.8195 -10.199614,-32.99383 0.778894,-2.89258 3.823855,-9.50878 6.76658,-14.70263 2.942725,-5.19387 8.29536,-15.34964 11.894746,-22.56839 3.599388,-7.21875 7.840658,-14.85033 9.425058,-16.95908 2.4266,-3.22965 3.09675,-6.36198 4.25112,-19.86997 0.75371,-8.81976 2.77491,-26.9502 4.49155,-40.28986 3.47938,-27.03763 4.81935,-30.90694 13.82041,-39.908 3.87932,-3.87932 5.52973,-6.55897 5.50832,-8.94349 -0.0528,-5.88136 -2.52952,-14.55323 -4.89944,-17.1546 -6.615,-7.26104 -10.8308,-21.49906 -13.87943,-46.875 -3.44989,-28.71605 -3.56382,-27.7011 4.64129,-41.3471 3.89502,-6.47784 8.95753,-13.8889 11.25,-16.469 3.7426,-4.21218 4.16814,-5.45896 4.16814,-12.21234 0,-5.05439 0.98371,-9.94216 2.99925,-14.90245 1.6496,-4.05966 3.3948,-9.81411 3.87824,-12.78766 0.48343,-2.97355 3.35252,-13.63856 6.37575,-23.70003 C 152.52645,181.01995 155,171.27376 155,169.42321 c 0,-6.41236 -8.60868,-23.841 -15.58234,-31.54716 l -6.61597,-7.31089 -14.83835,-1.4568 c -8.16109,-0.80124 -17.57297,-2.4089 -20.915287,-3.5726 -5.550908,-1.93264 -6.430987,-1.94697 -10.166885,-0.16544 -2.249467,1.07269 -6.050235,3.67152 -8.446155,5.77517 -2.39592,2.10363 -11.597205,7.8317 -20.447302,12.72902 -11.693405,6.4707 -18.40468,11.15754 -24.556523,17.14911 -11.722285,11.4169 -14.374062,12.9548 -19.769152,11.46514 C 11.28076,171.83126 7.3732686,169.65801 4.9787218,167.6593 0.64049132,164.03822 0.625,163.9879 0.625,153.51621 l 0,-10.50909 7.3610838,-7.18975 c 6.5525602,-6.40006 7.7705722,-7.09982 11.0892112,-6.37092 2.157414,0.47385 3.988952,1.81624 4.347205,3.18619 0.340492,1.30205 1.059118,2.36736 1.596944,2.36736 0.537825,0 7.081595,-6.104 14.54171,-13.56445 C 51.931615,109.06454 54.499731,107.14999 68.75,99.675029 82.108608,92.667789 86.08408,91.190384 96.15777,89.489478 102.63829,88.395265 112.41565,87.5 117.88523,87.5 c 8.00505,0 10.79579,-0.526018 14.30841,-2.696926 3.94906,-2.440659 4.91478,-2.555689 10.16317,-1.210568 3.80298,0.974673 14.50515,1.365204 31.08795,1.134427 27.58053,-0.38383 27.65016,-0.406488 22.53058,-7.331099 -2.06902,-2.798486 -2.89964,-5.964623 -3.26607,-12.449385 -0.45326,-8.021728 -0.2978,-8.696449 2.00388,-8.696449 2.76149,0 3.98855,-3.047265 4.02675,-10 0.0701,-12.768921 8.23666,-23.269312 22.11679,-28.4375 7.89113,-2.938219 21.19548,-3.821888 25.16298,-1.671313 3.40435,1.845319 13.32239,11.674645 15.82034,15.678838 3.78231,6.062988 4.57149,25.14291 1.55333,37.554975 -1.3374,5.5 -2.86431,10.5625 -3.39315,11.25 -0.52883,0.6875 -1.33814,3.013175 -1.79847,5.168166 -0.82994,3.885322 -0.73422,3.973735 11.41817,10.546924 6.74031,3.645816 15.4455,8.23269 19.34486,10.19305 8.8579,4.45321 21.44605,17.64382 25.8992,27.13871 3.19684,6.81624 3.26251,7.49556 3.33562,34.50005 0.041,15.1508 0.54604,28.30974 1.12227,29.24209 1.55421,2.51476 1.94382,52.35256 0.45508,58.21101 -1.6886,6.64491 -9.0559,15.625 -12.8188,15.625 -3.87003,0 -23.96318,-17.90846 -30.11508,-26.84075 -2.61723,-3.80009 -5.08697,-6.90491 -5.48832,-6.89963 -0.40135,0.005 -2.03895,2.30188 -3.63912,5.10352 l -2.9094,5.09388 2.09034,11.6095 c 2.04746,11.37134 2.01315,27.8503 -0.0903,43.36627 -0.43898,3.23807 -0.0871,9.04535 0.7953,13.125 1.68937,7.81066 1.61208,12.70495 -0.23627,14.96141 -1.58181,1.93107 -6.11621,26.25704 -7.4292,39.8558 -0.59741,6.1875 -2.7823,22.19157 -4.85528,35.5646 -3.43537,22.1617 -4.1116,24.79156 -7.63744,29.70119 -9.17375,12.77422 -18.55708,39.32855 -18.67851,52.85921 -0.0485,5.40658 -4.12947,14.33503 -12.06863,26.40424 -6.82484,10.3752 -11.84442,15.61647 -30.25515,31.59142 -7.04896,6.11636 -13.56021,12.58511 -14.46944,14.375 -2.94477,5.79703 -3.40087,16.30811 -1.28025,29.50434 1.1048,6.875 2.30828,15.08603 2.67439,18.24672 l 0.66565,5.74672 -6.70321,0.80492 c -9.0743,1.08963 -28.8708,1.00555 -30.60871,-0.13 z"
       id="path3430"
       inkscape:connector-curvature="0" />
    <path
       style="fill:yellow"
       d="m 288.01894,637.04197 c -12.91439,-4.80126 -20.8163,-12.06325 -26.64255,-24.48493 -2.76826,-5.90201 -3.24308,-8.60366 -3.19549,-18.18204 0.0682,-13.73145 2.60431,-20.13982 11.83105,-29.89574 9.22104,-9.74989 18.70308,-13.77435 32.48805,-13.78891 12.64879,-0.0134 21.2976,3.34541 30.53151,11.85694 25.27655,23.2991 15.18534,64.94416 -18.16627,74.96978 -10.55988,3.17435 -17.35348,3.05413 -26.8463,-0.4751 z M 136.66599,614.6875 c -0.53985,-0.85938 -1.06643,-8.03125 -1.17017,-15.9375 -0.13145,-10.01866 -0.93848,-17.05715 -2.66305,-23.22554 -2.27705,-8.14452 -2.3232,-9.24136 -0.57845,-13.75 C 134.26837,556.56995 142.1023,545 143.61219,545 c 2.31102,0 10.13781,-8.7245 10.13781,-11.3006 0,-1.56114 1.32287,-4.57901 2.93974,-6.70641 5.94263,-7.8191 7.27345,-11.7265 6.39326,-18.7713 -1.07271,-8.58568 1.45161,-13.62502 13.13927,-26.23018 C 184.871,472.66385 185,472.42414 185,465.68104 c 0,-3.76402 0.93819,-9.5352 2.08486,-12.82485 1.43074,-4.10458 2.06826,-9.91883 2.03195,-18.5313 -0.0711,-16.87974 -0.88232,-20.26239 -4.8589,-20.26239 -4.20334,0 -4.38091,-0.29443 -5.4023,-8.95689 -0.49012,-4.15679 -1.2769,-7.94356 -1.74837,-8.41504 -0.47148,-0.47148 -0.85724,-0.22056 -0.85724,0.5576 0,0.77817 -1.804,3.46948 -4.00888,5.98069 -2.72818,3.10724 -4.7201,7.36648 -6.23518,13.33249 -1.22448,4.82164 -4.76423,13.16661 -7.86613,18.5444 -3.1019,5.37777 -5.63981,10.1145 -5.63981,10.52608 0,0.41156 -2.3152,5.35965 -5.1449,10.99573 -7.89994,15.73484 -10.69279,24.30025 -11.49625,35.25789 -0.40371,5.50575 -1.5228,11.9745 -2.48689,14.375 -0.96407,2.4005 -2.20921,5.48955 -2.76696,6.86455 -0.55774,1.375 -1.11125,2.78125 -1.23,3.125 -1.18896,3.44164 -2.44225,6.49406 -4.61906,11.25 -4.0127,8.76702 -8.50594,22.60224 -8.50594,26.19081 0,1.7891 -0.82389,4.42919 -1.83087,5.86685 -1.00698,1.43766 -1.54842,2.89639 -1.2032,3.2416 0.34522,0.34523 -0.0525,2.12043 -0.88376,3.9449 C 110.17642,571.47553 103.82341,575 97.450686,575 c -4.703627,0 -6.023832,-0.67275 -10.511651,-5.35649 -9.637563,-10.05832 -11.214649,-24.50189 -4.179125,-38.27401 2.316445,-4.53448 7.783551,-15.27575 12.149122,-23.8695 4.365573,-8.59375 9.499038,-17.875 11.407688,-20.625 3.21205,-4.62793 3.66418,-6.8604 6.07581,-30 5.94748,-57.06616 6.87647,-60.90126 17.15322,-70.81261 l 5.63784,-5.43739 -0.68196,-7.94314 c -0.54564,-6.35526 -1.58059,-9.29699 -5.17722,-14.71554 -7.8301,-11.79653 -11.33113,-25.87651 -14.44489,-58.0925 -1.51615,-15.68662 -1.51006,-15.77204 1.48654,-20.84318 1.65492,-2.80062 5.09582,-8.66393 7.64646,-13.02958 2.55063,-4.36566 6.3475,-9.57584 8.4375,-11.57817 3.37113,-3.22975 3.79998,-4.45224 3.79998,-10.83225 0,-4.48012 1.15406,-10.401 3.06084,-15.70364 1.68346,-4.6816 3.87519,-12.16825 4.87049,-16.637 0.99531,-4.46875 3.81972,-14.59375 6.27648,-22.5 2.45677,-7.90625 4.48379,-16.30521 4.50452,-18.66435 0.0692,-7.88375 -7.3898,-23.60485 -15.15183,-31.93484 l -7.0645,-7.58142 -13.8903,-1.47628 c -7.63966,-0.81195 -16.90254,-2.42578 -20.584159,-3.58632 -8.314651,-2.62096 -10.97015,-1.95936 -19.14345,4.76949 -3.573298,2.9418 -13.123593,8.96742 -21.222876,13.39028 C 46.988971,149.6277 40.501374,154.23051 32.828289,161.45809 19.698518,173.82554 16.275455,174.79051 6.6392085,168.84094 2.3479128,166.19142 0.01941755,160.4101 0.00697116,152.37402 -0.00139962,146.96939 2.2519831,140 4.0078154,140 c 0.6947888,0 3.6227132,-2.56978 6.5064986,-5.71061 4.598029,-5.00789 5.678177,-5.60145 8.777636,-4.82354 1.943915,0.48789 3.80782,1.93266 4.14201,3.21061 0.33419,1.27795 1.131087,2.32354 1.770881,2.32354 0.639795,0 7.183565,-6.04958 14.541711,-13.44349 11.9436,-12.00166 14.984503,-14.30219 28.353232,-21.44996 C 85.30108,90.909647 93.606739,88.747757 113.75,88.224203 c 10.6223,-0.27609 14.15424,-0.867493 18.52264,-3.101512 4.59165,-2.348186 6.01898,-2.555311 9.55871,-1.387096 2.65027,0.87467 13.7311,1.24005 30.51916,1.00634 26.61725,-0.370543 30.21828,-1.053924 25.62797,-4.863536 C 194.91244,77.33381 192.5,70.112949 192.5,63.48032 c 0,-5.174381 0.42066,-6.324376 2.51367,-6.871709 2.63727,-0.68966 3.12078,-2.046233 4.36029,-12.233611 0.41824,-3.4375 1.33334,-8.069076 2.03354,-10.292392 C 204.36062,24.705782 222.55129,15 237.17229,15 c 7.42957,0 8.01262,0.235544 14.34849,5.796598 10.36236,9.095157 12.762,13.982122 12.93932,26.351491 0.0817,5.707588 0.42569,10.654369 0.76416,10.992843 0.68169,0.681691 -3.88768,18.411261 -6.75558,26.212253 l -1.83015,4.978186 10.74323,6.067003 c 5.90879,3.336852 14.1885,7.713506 18.39939,9.725896 5.52031,2.63817 10.40228,6.53113 17.5,13.95481 14.22279,14.87594 14.83323,16.96436 14.88416,50.92092 0.0221,14.78125 0.51158,27.63366 1.08755,28.56092 1.47185,2.3695 1.9557,49.66199 0.57538,56.23735 -1.23369,5.87684 -7.51503,14.6958 -11.32942,15.90644 -1.32373,0.42015 -3.86271,-0.21171 -5.74752,-1.43035 -5.74751,-3.71607 -22.82506,-20.83205 -27.1664,-27.22754 l -4.12594,-6.07816 -3.42657,5.42805 -3.42658,5.42805 2.23954,13.78338 c 2.20227,13.554 2.18286,19.76186 -0.13673,43.73621 -0.41867,4.32723 -0.065,10.21076 0.84067,13.9861 1.39005,5.79438 1.27776,7.46051 -1.013,15.03065 -3.13418,10.3573 -6.52972,28.48314 -6.55444,34.9884 -0.01,2.62653 -1.97371,17.1505 -4.36385,32.2755 -2.39014,15.125 -4.35073,28.18121 -4.35685,29.0138 -0.006,0.8326 -1.0841,2.5201 -2.39548,3.75 -3.72808,3.49646 -14.5825,26.35205 -16.83597,35.45064 -1.11898,4.51794 -2.59368,12.62472 -3.2771,18.01506 -1.38976,10.9613 -4.41296,17.28135 -16.0871,33.63034 -4.70439,6.58825 -10.15121,12.24105 -16.4155,17.03625 -5.15625,3.94702 -13.11493,11.0683 -17.68595,15.82505 -8.0849,8.41339 -8.33463,8.86957 -9.18085,16.7716 -0.59488,5.55477 -0.17828,12.45196 1.31766,21.81511 1.20316,7.53069 2.2408,15.65705 2.30585,18.05859 0.11488,4.23929 -0.0455,4.39127 -5.50671,5.21984 -10.06629,1.52723 -29.75569,1.19277 -30.83401,-0.52378 z"
       id="path3428"
       inkscape:connector-curvature="0" />
    <path
       style="fill:green"
       d="M 289.70395,637.50944 C 275.29969,632.02949 267.9021,625.53689 261.72208,612.95075 258.616,606.62496 258.125,604.17469 258.125,595 c 0,-12.54259 3.36509,-21.24805 11.71501,-30.30665 21.07903,-22.86805 58.9261,-17.1553 72.77983,10.98561 3.476,7.06077 3.98282,9.37852 4.02077,18.38759 0.0564,13.39093 -3.30336,22.3739 -11.52532,30.81509 -12.7294,13.06878 -30.94084,18.13295 -45.41134,12.6278 z M 137.86902,615.07417 c -2.60991,-1.13809 -2.71929,-1.75154 -2.064,-11.57548 0.48817,-7.31845 0.0796,-13.1348 -1.38692,-19.74869 -3.70454,-16.70609 -3.72329,-17.9415 -0.3823,-25.18926 1.69505,-3.67715 5.50152,-8.93574 8.45884,-11.68574 2.95732,-2.75 6.69958,-6.24006 8.31615,-7.75569 1.61656,-1.51562 2.93921,-3.84312 2.93921,-5.17222 0,-1.32911 2.10937,-5.4328 4.6875,-9.11933 4.39651,-6.28667 4.68879,-7.28472 4.70817,-16.07776 0.0252,-11.43854 1.31198,-14.07032 13.0901,-26.77305 8.33712,-8.99159 8.76423,-9.74636 8.76423,-15.48771 0,-3.31951 0.95287,-9.0907 2.1175,-12.82486 2.28451,-7.32492 2.99274,-27.07263 1.26336,-35.22688 -0.8649,-4.07809 -1.454,-4.6875 -4.53125,-4.6875 -2.96156,0 -3.66423,-0.63561 -4.31836,-3.90625 -0.42969,-2.14844 -0.8063,-6.50781 -0.83693,-9.6875 -0.0554,-5.75309 -0.066,-5.76712 -2.1875,-2.87994 -1.1725,1.59573 -3.59807,4.68948 -5.39015,6.875 -1.79208,2.18553 -3.97923,7.01718 -4.86035,10.737 -0.88111,3.71983 -6.82197,17.21983 -13.20191,30 -14.97517,29.99799 -16.28849,33.5562 -17.26799,46.78502 -0.55216,7.45743 -1.76376,13.14523 -3.72778,17.5 -7.88509,17.48338 -15.80864,39.63586 -15.80864,44.19747 0,1.67395 -0.66859,4.2722 -1.48576,5.77387 -0.81718,1.50168 -1.57371,3.80688 -1.68119,5.12266 -0.10749,1.31577 -2.3146,4.33438 -4.9047,6.70803 -4.32736,3.96573 -5.20803,4.26779 -10.859597,3.72475 -7.014158,-0.67397 -11.040936,-3.73281 -15.237902,-11.57511 -2.132845,-3.98535 -2.67561,-7.15612 -2.674647,-15.625 l 0.0012,-10.625 8.868154,-16.25 c 4.877485,-8.9375 10.047015,-18.93393 11.487846,-22.21426 1.440826,-3.28035 4.298006,-8.34285 6.349286,-11.25 3.3416,-4.73586 3.87695,-6.8462 5.1461,-20.28574 0.77908,-8.25 2.46378,-22.875 3.74378,-32.5 1.28,-9.625 2.70363,-20.86521 3.16362,-24.97824 1.05441,-9.42806 5.15404,-17.5883 11.8965,-23.67971 l 5.25692,-4.7493 -0.62511,-7.78756 c -0.50322,-6.26907 -1.63639,-9.46427 -5.8114,-16.38653 -2.85245,-4.72944 -5.76313,-10.86466 -6.46817,-13.63382 -0.70503,-2.76917 -1.8092,-6.44109 -2.45369,-8.15984 -1.86667,-4.97805 -6.3854,-46.33456 -5.52327,-50.55029 0.43019,-2.10359 2.61584,-6.64034 4.85699,-10.08166 2.24114,-3.44131 5.03593,-8.11554 6.21063,-10.38716 1.17471,-2.27163 4.1716,-6.38358 6.65976,-9.13768 4.0214,-4.45121 4.49335,-5.67751 4.24868,-11.03966 -0.18176,-3.9835 0.85739,-9.15616 3.05968,-15.23038 1.83422,-5.059 3.74494,-11.72942 4.24607,-14.82317 0.50111,-3.09375 3.00105,-12.375 5.55541,-20.625 7.39035,-23.8692 7.4093,-24.16398 2.31701,-36.04393 -4.70244,-10.97048 -9.81787,-18.44766 -16.42331,-24.00576 -3.71564,-3.12651 -5.50456,-3.59316 -17.30518,-4.51415 -7.23863,-0.56494 -16.11425,-1.95805 -19.723592,-3.0958 -8.126393,-2.56162 -11.464288,-1.78419 -18.505764,4.31016 -3.026255,2.6192 -12.760125,8.77198 -21.630821,13.67283 C 46.905735,149.57962 39.571298,154.62286 34.48933,159.61699 20.583974,173.282 17.567412,174.5237 9.0127024,170.10395 3.2737128,167.13892 1.7948195,164.7556 0.68448703,156.68252 -0.26241175,149.79775 1.6830339,140 3.9969774,140 c 0.7703395,0 3.7017835,-2.48859 6.5143196,-5.53021 4.366463,-4.7221 5.639869,-5.42688 8.714498,-4.82307 2.063882,0.40533 3.860089,1.69869 4.208289,3.03022 0.334122,1.27768 1.174923,2.32306 1.868447,2.32306 0.693524,0 7.029815,-5.818 14.080645,-12.92889 C 50.632401,110.72606 54.068314,108.12218 67.430459,100.81567 85.111874,91.147356 94.559531,88.636386 115,88.172778 c 11.02904,-0.250149 13.86895,-0.743867 17.78366,-3.091689 4.07351,-2.443061 5.20434,-2.613915 9.00298,-1.36025 6.32525,2.087519 56.65073,1.396821 57.48952,-0.78902 0.33806,-0.880966 0.0686,-1.939185 -0.59861,-2.351599 -3.21493,-1.986927 -6.29178,-10.922919 -5.92784,-17.215989 0.31823,-5.502611 0.77583,-6.546415 3.00975,-6.865338 2.32571,-0.33203 2.72691,-1.469939 3.42343,-9.709732 0.97706,-11.558622 4.1224,-18.007812 11.12155,-22.803581 8.2475,-5.65113 20.79245,-9.411512 29.09942,-8.722634 6.33632,0.525457 7.53924,1.136392 13.23164,6.720029 10.393,10.194425 11.56791,12.886728 11.92169,27.318231 0.30521,12.450429 -1.42534,23.063786 -5.10745,31.323794 -0.91942,2.0625 -2.00495,4.875 -2.41231,6.25 -0.79962,2.69899 -0.6131,2.821781 24.21257,15.94117 18.75078,9.90904 32.37865,24.55707 35.75713,38.43383 0.58582,2.40625 1.14361,14.21875 1.23951,26.25 0.0959,12.03125 0.59902,36.14373 1.11805,53.58326 1.07232,36.03074 0.723,38.38256 -6.79114,45.71993 -4.36087,4.25827 -5.36346,4.71111 -7.84901,3.54515 -4.62488,-2.16951 -22.24985,-19.1336 -28.0242,-26.9734 l -5.33999,-7.25007 -3.18017,5.03773 c -3.74297,5.92922 -3.81074,7.16922 -1.16093,21.23999 1.52284,8.08647 1.78796,13.6417 1.07846,22.59741 -1.24748,15.74655 -1.25702,30.652 -0.0238,37.17554 0.67615,3.57668 0.52623,5.87386 -0.461,7.06338 -1.68855,2.03454 -7.61296,31.6753 -7.61296,38.08867 0,4.48251 -6.48029,48.40245 -8.83219,59.85991 -0.74091,3.60937 -1.81556,6.5625 -2.38814,6.5625 -1.36467,0 -7.42864,10.83705 -12.34664,22.06495 -4.12811,9.42452 -7.36972,22.64791 -8.33617,34.00539 -0.64501,7.58009 -3.03457,12.28246 -15.01848,29.55466 -5.55335,8.00394 -10.09913,12.92964 -15.75447,17.07119 -4.3719,3.20165 -12.25608,10.25528 -17.52042,15.67476 -8.54119,8.79289 -9.67159,10.52096 -10.50125,16.05353 -0.95215,6.34942 0.96674,27.38474 3.49872,38.35393 0.87793,3.80338 0.95374,6.46689 0.20539,7.21524 -1.66579,1.66579 -31.75562,2.80519 -35.13732,1.33052 z"
       id="path3426"
       inkscape:connector-curvature="0" />
    <path
       style="fill:blue"
       d="m 289.02431,636.9534 c -14.4391,-5.36376 -21.00995,-11.39561 -27.37684,-25.13114 -2.84728,-6.14257 -3.45822,-9.20377 -3.48726,-17.47355 -0.0311,-8.84801 0.4476,-11.00702 4.07323,-18.3717 13.66365,-27.75482 49.83125,-33.95386 71.57002,-12.26692 19.3971,19.35085 16.68957,51.61074 -5.61561,66.90912 -7.5067,5.1486 -19.36422,9.33273 -26.31285,9.28493 -2.75,-0.0189 -8.53281,-1.34675 -12.85069,-2.95074 z M 138.5946,614.95557 c -2.91204,-0.69503 -2.96081,-0.9418 -2.51604,-12.73135 0.35475,-9.40331 -0.169,-14.60498 -2.40403,-23.87606 -2.80849,-11.64974 -2.81888,-11.95766 -0.60448,-17.91332 1.60369,-4.31314 4.90882,-8.65322 11.46655,-15.05708 5.06736,-4.94847 9.21474,-10.01097 9.21637,-11.25 0.001,-1.23901 2.30825,-5.62776 5.1258,-9.75276 4.92468,-7.20989 5.0964,-7.79011 4.43955,-15 -0.88617,-9.72713 1.48445,-14.76754 12.76634,-27.14388 8.5191,-9.34553 8.52068,-9.34862 9.26488,-18.22542 0.40937,-4.88308 1.46768,-10.1726 2.35178,-11.7545 1.79675,-3.21488 2.32653,-29.2917 0.71237,-35.0637 -0.76232,-2.72587 -1.7023,-3.4375 -4.54064,-3.4375 -3.54285,0 -3.58829,-0.0955 -4.45784,-9.375 -0.87212,-9.30689 -2.24357,-11.74802 -3.81627,-6.79286 -0.45075,1.42016 -2.43424,4.42116 -4.40775,6.66887 -1.97352,2.24772 -4.1597,6.63683 -4.85818,9.75358 -1.76566,7.87871 -3.29651,11.63661 -8.5529,20.99541 -4.6089,8.20595 -13.01019,25.90861 -18.50205,38.98629 -1.87734,4.4705 -3.39164,11.43336 -4.07777,18.75 -0.629,6.70724 -2.15073,14.0221 -3.59142,17.26371 -7.16926,16.13121 -11.70946,27.96191 -14.16732,36.91678 -1.5033,5.47702 -3.23013,10.93496 -3.83741,12.12876 -0.60727,1.1938 -1.10414,3.52615 -1.10414,5.18301 0,1.90319 -1.68555,4.4924 -4.57747,7.03154 -4.12207,3.61923 -5.18318,3.96087 -10.665791,3.43406 C 86.701167,573.6799 80.345863,564.63572 79.14211,548.91541 l -0.639858,-8.35616 12.794707,-24.96713 c 7.037087,-13.73191 14.128331,-26.76328 15.758311,-28.9586 2.62433,-3.53452 3.24932,-6.85147 5.45931,-28.97366 1.37264,-13.74021 2.75879,-25.72529 3.08035,-26.63352 0.32155,-0.90824 1.16882,-7.55759 1.88282,-14.77634 1.5286,-15.45461 4.90673,-23.59613 12.71929,-30.6543 l 5.12258,-4.62795 -0.62511,-7.78756 c -0.50396,-6.27822 -1.63512,-9.46092 -5.83636,-16.42138 -2.86618,-4.7486 -5.50922,-10.04006 -5.87342,-11.75881 -0.3642,-1.71875 -1.46344,-5.75408 -2.44274,-8.96738 -0.9793,-3.21331 -2.35852,-11.65081 -3.06494,-18.75 -0.70642,-7.0992 -1.85109,-16.44027 -2.54372,-20.75795 -1.44422,-9.00295 -0.2716,-15.07643 4.18304,-21.6657 1.5743,-2.32868 4.62885,-7.32772 6.78788,-11.10897 2.15903,-3.78125 5.65131,-8.52711 7.76063,-10.54636 3.54253,-3.39128 3.83512,-4.31834 3.83512,-12.15187 0,-6.32821 0.7931,-10.27383 3.125,-15.54667 1.71875,-3.8864 3.125,-8.63781 3.125,-10.5587 0,-1.9209 2.00408,-9.86653 4.4535,-17.65696 2.44941,-7.79044 5.27981,-17.70425 6.28976,-22.03069 l 1.83628,-7.86626 -4.95594,-11.16523 c -5.5169,-12.42902 -10.7092,-19.60657 -17.47492,-24.15641 -3.73502,-2.51174 -6.59399,-3.16125 -16.39868,-3.72554 -6.75457,-0.38874 -15.07343,-1.75665 -19.29262,-3.17237 -7.259357,-2.43585 -7.514575,-2.43949 -11.961857,-0.17065 -2.499332,1.27506 -6.855727,4.24948 -9.680877,6.60983 -2.82515,2.36034 -11.611518,7.80634 -19.525262,12.10222 C 46.315149,149.53585 39.76465,154.19589 31.318139,162.01251 24.865845,167.98362 18.894738,172.5 17.452611,172.5 13.485303,172.5 7.1639379,169.38555 3.8610767,165.80362 1.2644285,162.98759 0.83593885,161.2583 0.76615211,153.31323 l -0.0810013,-9.22186 7.91250449,-7.79061 c 5.7367657,-5.64839 8.2891977,-7.41391 9.2824247,-6.42069 0.753456,0.75347 2.343298,1.36993 3.532981,1.36993 1.285969,0 2.332583,1.14042 2.581132,2.8125 0.361025,2.42874 2.327818,0.92207 14.414365,-11.04215 12.480041,-12.35373 15.664091,-14.7529 29.391418,-22.14632 17.950909,-9.668209 27.297053,-12.147114 47.377354,-12.566038 9.21814,-0.192313 13.94972,-0.814807 15.41091,-2.027482 1.70722,-1.416875 8.51382,-1.708723 35.76017,-1.533295 C 199.1578,84.95846 200,84.901768 200,82.481941 200,81.116874 199.40587,80 198.67971,80 c -2.53401,0 -6.33279,-11.014576 -5.93486,-17.208188 0.34025,-5.29585 0.67531,-5.885562 3.19265,-5.61905 2.3909,0.253129 2.81958,-0.309 2.85971,-3.75 0.0809,-6.929483 1.23114,-13.835976 3.2175,-19.317785 3.93987,-10.872956 24.50955,-20.512657 39.12101,-18.333526 6.48009,0.966429 16.18357,9.207159 20.43385,17.353549 4.73081,9.067389 3.51642,35.96707 -2.11617,46.875 -0.88753,1.71875 -1.97114,4.628285 -2.40804,6.465634 -0.75566,3.177877 -0.13972,3.692831 12.64264,10.569672 7.39035,3.975974 16.06384,8.547434 19.27443,10.158804 8.69896,4.36596 22.6094,19.6128 26.08733,28.59361 2.55542,6.59865 2.86686,9.72812 3.09392,31.08728 0.13886,13.0625 0.66362,38.18403 1.16613,55.82561 1.02427,35.95855 0.77497,37.42343 -7.62401,44.79783 -4.01984,3.52946 -4.49732,3.65321 -7.67369,1.98875 -5.6267,-2.94848 -22.00191,-18.82545 -27.19908,-26.37153 l -4.87678,-7.08085 -2.86979,3.54509 c -4.17211,5.1539 -4.64952,8.48711 -2.73215,19.07559 1.93008,10.65861 2.1492,26.64363 0.58882,42.95203 -0.76518,7.99724 -0.59996,12.86193 0.60784,17.89662 1.44464,6.02192 1.40742,7.3468 -0.28852,10.26747 -1.9759,3.40281 -5.93039,24.873 -8.56063,46.47839 -0.79511,6.53125 -2.98466,21.49879 -4.86566,33.2612 -2.84795,17.80906 -3.95302,22.09521 -6.60674,25.625 -9.16528,12.19111 -19.70942,42.06945 -19.70942,55.84951 0,8.56629 -15.84564,33.29918 -27.14836,42.37489 -12.63757,10.14756 -29.04277,27.04846 -30.47884,31.39981 -1.73669,5.26224 -0.54631,27.103 2.10211,38.56901 2.43568,10.545 1.80979,11.63478 -6.79615,11.83327 -20.414,0.4708 -23.85617,0.44398 -26.58416,-0.20712 z"
       id="path3424"
       inkscape:connector-curvature="0" />
    <path
       style="fill:pink"
       d="m 289.33046,637.02382 c -28.67047,-10.38817 -39.99901,-41.35651 -24.15866,-66.04155 4.56085,-7.10746 9.18575,-11.18903 17.8189,-15.72556 5.68345,-2.98652 7.7565,-3.35628 18.8843,-3.36826 10.92536,-0.0113 13.38935,0.40351 19.55995,3.2965 21.86023,10.24884 31.62185,37.872 20.84706,58.99235 -5.55377,10.8863 -21.35387,23.3227 -29.63084,23.3227 -1.37699,0 -2.85127,0.5625 -3.27617,1.25 -1.29416,2.094 -12.05995,1.16689 -20.04454,-1.72618 z M 136.10175,613.4375 c -0.0815,-0.85938 -0.0299,-6.95753 0.11487,-13.55145 0.19878,-9.05527 -0.4062,-14.46969 -2.47233,-22.1269 -2.66925,-9.89239 -2.68244,-10.29838 -0.54425,-16.76105 1.7165,-5.18813 4.18007,-8.58326 11.37058,-15.67016 5.04863,-4.97588 9.17933,-9.93703 9.17933,-11.02478 0,-1.08775 1.6084,-4.32907 3.57421,-7.20294 6.75613,-9.87691 7.62478,-12.39452 6.30429,-18.27161 -0.66314,-2.95139 -0.83786,-6.56709 -0.38826,-8.03489 1.20911,-3.94746 10.77853,-16.9484 16.64217,-22.60991 4.32368,-4.17464 5.11988,-5.72597 5.13235,-10 0.008,-2.78235 1.12653,-9.55881 2.48529,-15.05881 2.49012,-10.07951 2.97826,-20.9947 1.45299,-32.49051 -0.75815,-5.71413 -1.14429,-6.2948 -4.57799,-6.88428 -3.63775,-0.6245 -3.78161,-0.91476 -4.80598,-9.69699 C 178.98824,399.07395 178.00386,395 177.38152,395 c -0.62233,0 -1.13152,0.51941 -1.13152,1.15425 0,0.63485 -2.04223,3.82973 -4.53829,7.09974 -2.93156,3.84055 -5.15786,8.63183 -6.28832,13.53325 -0.96252,4.17326 -4.21843,11.8557 -7.23534,17.07207 -3.01691,5.21638 -6.9959,13.09138 -8.84219,17.5 -1.84627,4.40863 -3.85604,8.63027 -4.46612,9.38143 -3.69272,4.54656 -8.6513,20.31935 -9.33645,29.69836 -0.87378,11.96116 -0.99393,12.34736 -11.52987,37.0609 -2.78442,6.53125 -6.02717,15.8125 -7.20611,20.625 -1.17893,4.8125 -2.55524,9.875 -3.05846,11.25 -0.50322,1.375 -1.41937,4.1701 -2.0359,6.21133 C 110.4278,569.8413 103.54329,575 99.149997,575 c -5.352998,0 -11.422367,-3.45905 -14.632059,-8.3391 -3.528772,-5.36518 -6.367627,-19.83493 -5.059741,-25.7897 0.982087,-4.47141 23.428153,-48.56928 27.595023,-54.21356 2.26506,-3.06819 3.2377,-6.75118 4.29142,-16.25 0.7494,-6.75545 2.19394,-19.31389 3.21009,-27.90764 1.01615,-8.59375 2.44101,-20.96875 3.16636,-27.5 1.59505,-14.36239 4.49542,-21.03971 12.72467,-29.29521 l 6.15061,-6.17021 -1.47103,-7.98358 c -0.97969,-5.31699 -2.96555,-10.23449 -5.94552,-14.72264 -5.89523,-8.87886 -8.95451,-19.794 -11.72361,-41.82836 -3.72787,-29.66354 -3.58781,-31.18728 4.01823,-43.71289 3.56094,-5.86416 8.62343,-13.27142 11.25,-16.46059 4.51898,-5.48694 4.77556,-6.26485 4.77556,-14.47916 0,-4.77438 0.40086,-9.08155 0.8908,-9.57149 1.48206,-1.48206 5.35709,-12.47486 5.35819,-15.20022 5.5e-4,-1.40215 2.28293,-10.1209 5.07196,-19.375 8.5473,-28.36029 8.45145,-26.69719 2.34162,-40.62856 -4.01888,-9.1637 -6.94103,-13.74989 -12.28067,-19.27394 l -7.0069,-7.24893 -13.33772,-0.80761 c -7.96433,-0.48225 -16.19214,-1.78967 -20.422891,-3.24526 -6.285988,-2.1627 -7.550623,-2.24317 -11.211731,-0.71346 -2.269612,0.9483 -6.298063,3.65166 -8.952113,6.00747 -2.65405,2.3558 -12.138045,8.38738 -21.075545,13.4035 -8.9375,5.01613 -16.53125,9.50429 -16.875,9.9737 C 36.982216,157.78857 19.308877,172.5 17.375956,172.5 c -3.860086,0 -12.1204401,-4.69799 -14.4133819,-8.19746 -1.3927407,-2.12559 -2.09961526,-5.964 -2.15200675,-11.68563 l -0.0780184,-8.52031 7.97488585,-7.70714 c 5.4567262,-5.27352 8.3802722,-7.30175 9.2587252,-6.4233 0.706112,0.70611 2.361945,1.28384 3.679629,1.28384 1.780377,0 2.227856,0.64217 1.742025,2.5 -1.220047,4.66546 1.925803,2.52556 14.594495,-9.92763 15.582003,-15.31695 15.828721,-15.502 32.323426,-24.243849 15.676137,-8.308027 26.177874,-10.827977 45.126305,-10.828307 10.59728,-1.84e-4 12.83246,-0.374348 16.0891,-2.69328 3.59443,-2.559467 4.27122,-2.618184 13.64241,-1.183618 5.4232,0.830197 10.33814,1.214165 10.92209,0.853264 1.16122,-0.717673 38.46001,-1.181099 41.35345,-0.513806 2.92668,0.674965 2.9937,-3.96596 0.10175,-7.044344 -3.28427,-3.495939 -6.03353,-19.282353 -3.61807,-20.775185 0.81155,-0.50157 2.17792,-0.642423 3.03637,-0.313006 1.1229,0.430896 1.81333,-2.144198 2.46086,-9.17815 0.49504,-5.377399 1.9916,-12.117923 3.3257,-14.978943 4.45444,-9.55268 19.09942,-16.671442 34.29934,-16.672516 l 8.91996,-6.3e-4 6.96654,6.5625 c 8.72828,8.222082 10.86255,13.30008 11.35317,27.012292 0.40818,11.40835 -1.39662,21.636382 -5.58609,31.656934 -1.34675,3.2212 -2.44862,6.385504 -2.44862,7.031787 0,1.049151 16.45992,10.549168 32.92694,19.004127 7.58471,3.89436 21.50556,18.45117 24.64166,25.76739 3.77677,8.81086 5.09996,19.7671 3.90571,32.33997 -0.71236,7.49956 -0.55745,16.04222 0.46466,25.625 2.13607,20.02664 2.17825,61.7049 0.0676,66.74119 C 315.64676,264.21847 310.12374,270 306.78472,270 c -3.95128,0 -23.5576,-17.57143 -29.9296,-26.8233 -2.62383,-3.80969 -5.09898,-6.9257 -5.50033,-6.92446 -0.40135,0.001 -2.22813,2.39185 -4.05952,5.3125 l -3.3298,5.31026 1.85414,10 c 1.4323,7.72489 1.68079,15.47452 1.09218,34.06271 -0.52734,16.65366 -0.31732,25.5468 0.68213,28.88266 1.18012,3.93888 1.09202,5.59548 -0.48195,9.0623 -2.4589,5.41599 -7.90648,34.94769 -8.85295,47.99233 -0.39905,5.5 -2.4154,20.08326 -4.48078,32.40724 -2.80968,16.76507 -4.36353,23.0601 -6.17097,25 -3.55905,3.8199 -13.61828,24.66408 -15.56903,32.26129 -1.5973,6.22066 -3.69425,17.30849 -5.169,27.33151 -0.91503,6.21888 -13.55817,26.27365 -21.90144,34.74045 -3.79899,3.85522 -12.5945,11.93186 -19.54558,17.94807 -6.95107,6.01621 -13.51253,12.78085 -14.58103,15.03255 -3.05629,6.44064 -2.19272,32.15879 1.4871,44.2871 0.66886,2.20452 0.91553,5.15764 0.54816,6.5625 -0.6337,2.42304 -1.5919,2.55429 -18.64724,2.55429 -13.47096,0 -18.01639,-0.39179 -18.12746,-1.5625 z"
       id="path3422"
       inkscape:connector-curvature="0" />
    <path
       style="fill:green"
       d="m 295.5625,638.98304 c -0.65313,-0.55933 -4.53991,-2.03153 -8.6373,-3.27155 -10.09541,-3.05528 -21.44901,-14.157 -25.65563,-25.08649 -11.01636,-28.62243 9.90418,-59.375 40.39197,-59.375 25.4043,0 44.61851,18.73751 44.7843,43.67322 0.0993,14.92482 -8.11505,29.57178 -20.73065,36.96501 -10.52317,6.16698 -26.77174,9.99021 -30.15269,7.09481 z M 135.88012,613.33909 c -0.35055,-0.9135 -0.11812,-4.42913 0.51647,-7.8125 1.33218,-7.10255 0.7296,-13.12164 -2.82708,-28.23879 l -2.54972,-10.83721 3.4094,-7.59714 c 2.20616,-4.91599 5.44507,-9.38715 9.1776,-12.6692 9.75452,-8.57727 10.11318,-9.00108 11.32176,-13.3782 0.64567,-2.33844 2.53245,-6.0358 4.19284,-8.21638 4.17895,-5.48816 5.17256,-9.08622 4.7658,-17.25791 -0.44304,-8.90035 1.32608,-12.39025 12.25736,-24.17964 8.38556,-9.04383 8.47836,-9.22139 9.25481,-17.70628 0.43138,-4.71396 1.6183,-10.82084 2.63761,-13.57084 1.94579,-5.24954 2.50182,-20.33409 1.16097,-31.4957 -0.74014,-6.16105 -0.98108,-6.51524 -4.67664,-6.875 -3.844,-0.37421 -3.90914,-0.4956 -4.85315,-9.04447 -0.95753,-8.67144 -1.99968,-11.51911 -3.09248,-8.45023 -0.32013,0.89903 -2.68911,4.06909 -5.26437,7.04457 -3.32534,3.84213 -4.90384,7.02616 -5.44668,10.98665 -0.46292,3.37743 -5.42584,14.89503 -12.58458,29.20543 -15.34213,30.66906 -16.79588,34.55344 -18.08809,48.33071 -0.64011,6.82473 -2.12616,13.84875 -3.63325,17.17304 -6.75756,14.90561 -16.49461,41.97184 -16.53208,45.95446 -0.0146,1.5562 -0.52295,3.8062 -1.12958,5 -0.60664,1.1938 -1.59844,3.84064 -2.20401,5.88186 -0.60692,2.0458 -3.04159,5.01908 -5.42519,6.62539 -3.49118,2.3527 -5.29394,2.7584 -9.358499,2.10604 -7.399651,-1.18762 -10.527121,-3.72684 -14.03942,-11.3987 -2.357285,-5.149 -3.177875,-9.11355 -3.276852,-15.83161 -0.129737,-8.80589 0.02026,-9.24629 8.587242,-25.21244 4.795606,-8.9375 9.741085,-18.5 10.989951,-21.25 1.248868,-2.75 4.415198,-8.375 7.036298,-12.5 4.64909,-7.31657 4.80064,-7.92798 6.19719,-25 0.78735,-9.625 2.22128,-23.125 3.1865,-30 0.96522,-6.875 2.12051,-16.15625 2.56731,-20.625 1.07378,-10.73961 5.34422,-19.88715 12.55638,-26.89658 l 5.8862,-5.72072 -1.33985,-8.08572 c -0.97542,-5.88637 -2.72306,-10.20267 -6.42511,-15.86848 -2.79689,-4.28052 -5.41665,-9.75617 -5.82168,-12.16814 -0.40503,-2.41195 -1.51596,-6.63536 -2.46873,-9.38536 C 118.73312,329.146 115,297.65409 115,287.60034 c 0,-4.80066 1.08457,-7.58087 6.15447,-15.77649 3.38496,-5.47186 8.44745,-12.73296 11.24999,-16.13578 4.72985,-5.7429 5.09554,-6.73511 5.09554,-13.82547 0,-5.18806 1.00252,-10.19669 3.125,-15.6126 1.71875,-4.38571 3.125,-9.21805 3.125,-10.7385 0,-1.52046 2.20637,-9.83663 4.90305,-18.48038 8.74955,-28.04517 8.70025,-27.40022 3.12349,-40.85461 -3.88057,-9.36215 -6.26583,-13.1008 -12.35525,-19.36554 l -7.54629,-7.76353 -12.5,-0.77589 c -6.875,-0.42674 -16.09766,-1.87319 -20.494801,-3.21433 -9.354918,-2.85327 -12.234667,-2.12338 -21.157105,5.36243 -2.971049,2.49267 -11.904587,8.0586 -19.852305,12.36874 -10.099202,5.47691 -17.269787,10.47135 -23.813629,16.58661 -5.149776,4.8125 -11.002731,9.80282 -13.006568,11.08961 -3.479971,2.2347 -3.892878,2.24431 -9.208524,0.21425 -7.046526,-2.6911 -10.0492804,-6.51506 -11.05210255,-14.0747 -1.16188516,-8.75872 0.62057515,-13.05985 8.58283265,-20.71062 7.0542919,-6.77833 7.1432029,-6.81923 10.8277109,-4.98115 2.386951,1.19076 3.464811,2.50531 3.015117,3.67718 -1.730149,4.5087 5.224181,-0.64202 17.761541,-13.15508 C 52.823838,109.61078 56.040982,107.18183 68.764561,100.4549 85.568313,91.570786 96.798834,88.75 115.36578,88.75 c 9.95496,0 12.75064,-0.448015 16.46272,-2.638189 3.67989,-2.171185 5.51801,-2.473911 10.38395,-1.710151 3.2519,0.51042 17.4438,0.86121 31.53755,0.779532 22.41814,-0.129918 25.67826,-0.399152 26.05062,-2.151361 0.2341,-1.101572 -0.78282,-3.289202 -2.25982,-4.861401 -3.28426,-3.495939 -6.03353,-19.282353 -3.61806,-20.775185 0.81155,-0.50157 2.16055,-0.649085 2.99777,-0.327813 1.0575,0.405802 1.78738,-2.014611 2.39073,-7.92815 1.35626,-13.292813 3.04198,-17.545617 9.05148,-22.835396 7.11138,-6.259677 15.01588,-9.067037 27.31722,-9.701975 l 10.05493,-0.518989 7.62877,7.488002 c 8.82936,8.666451 10.55287,12.808932 10.91513,26.234673 0.25352,9.395423 -2.91147,27.61968 -5.31618,30.611093 -0.64565,0.80317 -1.54827,3.21315 -2.00583,5.35551 -0.8212,3.845075 -0.67427,3.98389 11.41816,10.787256 6.73754,3.790634 15.51784,8.473544 19.51178,10.406464 8.64327,4.18303 21.38424,17.07441 25.92337,26.22943 2.94333,5.93639 3.07423,7.26237 3.29943,33.42031 0.12897,14.98126 0.7875,30.16876 1.4634,33.75 1.88555,9.99053 1.64541,52.94664 -0.32223,57.64154 -2.53788,6.05557 -8.13813,11.9948 -11.31018,11.9948 -3.96507,0 -22.58174,-16.61656 -29.22119,-26.08175 -2.95844,-4.21754 -5.8521,-7.66825 -6.43036,-7.66825 -0.57827,0 -2.49634,2.46562 -4.26239,5.47916 l -3.211,5.47916 1.84051,10.45834 c 2.2057,12.53338 2.40639,33.94451 0.38888,41.48776 -1.12285,4.19823 -1.10059,7.27028 0.0975,13.45544 1.97462,10.19397 2.05321,14.33395 0.33732,17.76832 -1.88076,3.76436 -7.72976,34.47663 -7.72976,40.58794 0,10.0033 -8.60928,60.83952 -10.54281,62.25335 -2.74343,2.00606 -13.95255,25.07624 -16.04855,33.03053 -3.64434,13.83019 -4.65864,18.87775 -4.65864,23.18309 0,2.41846 -0.81097,6.33815 -1.80216,8.7104 -3.49418,8.36272 -18.33522,29.34572 -24.05804,34.01445 -13.03055,10.63041 -29.39954,25.96849 -30.98413,29.03274 -2.24703,4.34528 -2.63418,21.04635 -0.74027,31.93432 0.8371,4.8125 1.83075,11.70312 2.2081,15.3125 l 0.68607,6.5625 -18.14605,0 c -13.93715,0 -18.29388,-0.38524 -18.7834,-1.66091 z"
       id="path3420"
       inkscape:connector-curvature="0" />
    <path
       style="fill:#000"
       d="m 295.625,638.75 c -0.4249,-0.6875 -1.72373,-1.2555 -2.88628,-1.26221 -3.79638,-0.0219 -14.84727,-5.89065 -20.20258,-10.72884 -12.26468,-11.0804 -17.18134,-31.525 -11.31906,-47.06727 5.77496,-15.31078 20.80721,-26.66848 37.10492,-28.03482 35.6939,-2.99245 59.42514,33.14599 42.30084,64.41664 -5.69204,10.39421 -16.78358,18.87396 -27.25729,20.83885 -2.55374,0.47908 -4.9514,1.36979 -5.32813,1.97935 -0.94173,1.52376 -11.45731,1.40371 -12.41242,-0.1417 z M 137.30369,614.0625 c -0.108,-0.51563 -0.3076,-6.84375 -0.44362,-14.0625 -0.16161,-8.57719 -1.14767,-16.54226 -2.84577,-22.98724 -2.59041,-9.8317 -2.59091,-9.88241 -0.16121,-16.37636 2.41255,-6.44811 8.50187,-13.92747 15.27462,-18.7614 1.92649,-1.375 4.27154,-4.76638 5.21122,-7.53639 0.93968,-2.77001 3.69961,-7.99515 6.13318,-11.61142 4.22557,-6.27915 4.39122,-6.93352 3.68088,-14.54035 -0.89689,-9.60456 0.70104,-12.73348 13.63494,-26.69859 8.43175,-9.104 8.46207,-9.16279 8.46207,-16.40534 0,-3.99772 0.85695,-9.69745 1.90433,-12.66604 2.18353,-6.18878 2.75675,-19.48374 1.33028,-30.85437 -0.7982,-6.36265 -1.40228,-7.8125 -3.25511,-7.8125 -5.01124,0 -6.22637,-1.39498 -6.37739,-7.32124 -0.0814,-3.19206 -0.52131,-7.49126 -0.9777,-9.55376 l -0.82978,-3.75 -2.37244,3.75 c -1.30484,2.0625 -3.89404,5.4375 -5.75378,7.5 -2.15528,2.39026 -3.6785,5.84095 -4.20085,9.51661 -0.73703,5.18642 -6.17988,17.82542 -11.24328,26.10839 -1.05068,1.71875 -5.62863,11.1973 -10.17322,21.06344 -7.317,15.88493 -8.33491,19.03301 -8.89193,27.5 -0.82033,12.4693 -1.52068,14.85436 -10.33222,35.18656 -5.17834,11.94877 -10.03396,27.15011 -10.05815,31.48873 -0.0103,1.85004 -0.58126,3.71137 -1.26876,4.13627 -0.6875,0.4249 -1.25,2.06346 -1.25,3.64124 0,3.32925 -4.87122,9.03683 -9.01461,10.5624 -5.633674,2.07426 -11.902459,0.21787 -16.518651,-4.89169 -7.423011,-8.21639 -9.830078,-24.86086 -4.962075,-34.31195 14.002017,-27.1845 23.915446,-45.64588 26.177876,-48.75 2.25403,-3.0926 2.98869,-6.70831 4.19066,-20.625 0.80161,-9.28125 2.57065,-25.3125 3.9312,-35.625 1.36054,-10.3125 2.77805,-21.10693 3.15002,-23.98761 0.79694,-6.17188 7.89672,-17.55527 13.14017,-21.0682 2.80092,-1.87653 3.64906,-3.40432 3.65181,-6.57817 0.006,-6.98026 -2.67013,-15.24796 -7.03538,-21.73468 -2.29118,-3.4047 -4.80232,-8.53959 -5.58029,-11.41085 -0.77796,-2.87128 -2.19014,-7.75174 -3.13817,-10.84549 C 118.84049,328.35872 115,295.72911 115,287.08405 c 0,-4.7801 11.49235,-24.96313 18.29887,-32.13675 3.89402,-4.10404 4.20113,-5.02904 4.20113,-12.6536 0,-5.75906 0.81802,-10.05414 2.72776,-14.3223 1.50026,-3.35303 3.40261,-9.4714 4.22744,-13.5964 0.82482,-4.125 3.81609,-15.31928 6.64724,-24.87618 2.83116,-9.55688 5.14756,-18.74058 5.14756,-20.40821 0,-1.66761 -2.07584,-7.86411 -4.61298,-13.76999 -3.35835,-7.81746 -6.55597,-12.81502 -11.75691,-18.37483 l -7.14392,-7.63688 -14.80559,-1.44206 c -8.14308,-0.79314 -17.31788,-2.34311 -20.388456,-3.4444 -7.173519,-2.57283 -11.089718,-1.63977 -17.770491,4.23394 -2.968159,2.60958 -12.709153,8.8253 -21.646653,13.8127 -11.600136,6.47322 -18.753773,11.47111 -25,17.46622 -12.366838,11.86965 -14.210919,12.92191 -19.479509,11.11525 -5.7391123,-1.968 -9.5131313,-4.50562 -10.5043404,-7.06305 C -0.73971249,153.97447 0.6686688,142.28826 6.103142,139.41004 7.9026639,138.45696 10.5,135.94107 11.875,133.81917 c 2.153135,-3.32271 3.020298,-3.74818 6.25,-3.06658 5.041931,1.06406 5.635417,1.5158 4.811671,3.66245 -1.979436,5.15832 4.739523,0.47997 16.793073,-11.69285 12.257761,-12.37907 14.731356,-14.2334 29.129305,-21.83682 13.678248,-7.22335 17.271378,-8.558318 27.5,-10.217158 6.471271,-1.049487 16.199561,-1.910421 21.618411,-1.913186 7.90469,-0.004 10.71513,-0.53819 14.21618,-2.701952 3.93934,-2.434649 4.92619,-2.553962 10.14754,-1.226855 3.75965,0.955587 14.85895,1.352605 31.71486,1.134426 23.95851,-0.310114 25.93152,-0.505894 25.9375,-2.573761 0.004,-1.230963 -1.15419,-3.807973 -2.57275,-5.726687 -2.46094,-3.328603 -5.3195,-17.11601 -4.00803,-19.331595 0.34066,-0.575518 1.6809,-0.768805 2.97831,-0.429525 1.29742,0.33928 2.3632,0.24766 2.36842,-0.203602 0.0716,-6.194091 2.81932,-22.205473 4.30305,-25.074695 4.43742,-8.581023 20.49268,-16.37078 33.74137,-16.37078 7.72315,0 8.39605,0.249412 14.333,5.3125 9.47661,8.08175 12.4974,15.166254 12.65856,29.6875 0.12924,11.644696 -1.2618,19.339768 -5.62729,31.129585 -1.12103,3.027521 -1.77439,6.192126 -1.45193,7.032454 0.57379,1.495288 15.86741,10.267233 29.53375,16.939641 8.7739,4.28374 22.7422,18.34185 27.22329,27.39832 3.3845,6.84021 3.402,7.01422 3.45901,34.39395 0.0315,15.13541 0.53654,28.29435 1.12226,29.24209 1.53195,2.47872 1.9527,52.27347 0.49279,58.31836 -1.43079,5.92424 -8.55699,14.2956 -12.16927,14.2956 -2.97229,0 -23.13016,-18.81834 -29.60232,-27.6352 -2.46877,-3.36314 -4.90336,-6.1148 -5.41019,-6.1148 -0.50682,0 -2.4824,2.38409 -4.39017,5.29796 l -3.46867,5.29797 2.13415,12.51453 c 2.08385,12.21962 2.05252,27.43169 -0.0893,43.32233 -0.44574,3.30719 -0.0766,8.95827 0.85739,13.125 1.70109,7.58896 1.65384,12.62593 -0.13885,14.80236 -1.44307,1.75199 -7.11722,32.98035 -8.06555,44.38985 -0.6597,7.93685 -1.9923,17.02435 -7.62927,52.02679 -0.3456,2.14597 -1.79544,5.23972 -3.22185,6.875 -5.33484,6.11596 -14.7767,27.76978 -17.33684,39.76002 -1.38419,6.48275 -2.5222,13.514 -2.52891,15.625 -0.0169,5.31855 -4.78609,15.04416 -13.90865,28.36345 -5.79973,8.46783 -10.11555,13.11613 -17.22167,18.54839 -12.17738,9.30897 -25.95825,23.65049 -27.101,28.20355 -1.46592,5.8407 -1.23726,19.3635 0.49624,29.3478 0.89525,5.15625 1.94318,11.68046 2.32874,14.49824 l 0.70101,5.12324 -5.94069,0.81426 c -8.14772,1.11676 -29.29691,1.02854 -29.53808,-0.12325 z"
       id="path3418"
       inkscape:connector-curvature="0" />
  </g>
</svg>
